<svg width="103" height="102" viewBox="0 0 103 102" fill="none" xmlns="http://www.w3.org/2000/svg">
<path d="M51.5 0C37.8906 0 25.0763 5.30812 15.4422 14.9422C5.80812 24.5763 0.5 37.3673 0.5 51C0.5 64.6094 5.80812 77.4237 15.4422 87.0578C25.0763 96.6919 37.8673 102 51.5 102C65.1094 102 77.9237 96.6919 87.5578 87.0578C97.1919 77.4237 102.5 64.6327 102.5 51C102.5 37.3906 97.1919 24.5763 87.5578 14.9422C77.9237 5.30812 65.1094 0 51.5 0ZM51.5 98.5392C25.2868 98.5392 3.9608 77.2132 3.9608 51C3.9608 24.7868 25.2868 3.4608 51.5 3.4608C77.7132 3.4608 99.0392 24.7868 99.0392 51C99.0392 77.2132 77.7132 98.5392 51.5 98.5392Z" fill="#036CC2"/>
<path d="M59.6374 75.482C59.5673 75.786 59.4971 76.0432 59.427 76.3004C58.6553 78.7557 55.9194 79.8548 53.581 78.5921C52.1546 77.8204 50.7516 77.002 49.3486 76.1601C48.8809 75.8795 48.6003 75.9263 48.2262 76.3004C47.7585 76.7681 47.2674 77.189 46.753 77.6099C44.5081 79.4105 41.3046 78.5219 40.2991 75.8328C40.2523 75.6691 40.1821 75.5288 40.112 75.2949C38.7791 75.9029 37.4229 76.0198 36.1134 75.3183C34.8273 74.6168 34.1257 73.5178 33.9387 71.9978C32.5824 72.2784 31.3431 71.9978 30.2908 71.0859C29.2619 70.1973 28.7475 69.0515 28.7475 67.6251C27.1106 67.5549 25.7777 66.9002 24.9827 65.4504C24.1876 64.0006 24.3513 62.5508 25.1931 61.101C24.6553 60.7035 24.1643 60.3059 23.603 59.8617C23.3926 60.2124 23.2055 60.5164 22.9951 60.8204C22.6209 61.405 22.1065 61.5453 21.4985 61.2179C19.581 60.1656 17.687 59.09 15.7929 58.0143C15.1849 57.687 15.1147 57.1725 15.255 56.5879C16.3775 51.6773 17.4999 46.7667 18.6457 41.8562C19.4407 38.372 20.2592 34.8644 21.0542 31.3802C21.0776 31.2399 21.1244 31.0996 21.1478 30.9593C21.4517 29.7667 22.1299 29.5329 23.112 30.3046C25.123 31.8479 27.1574 33.4146 29.1684 34.9813C31.0157 36.4077 32.8396 37.8575 34.7103 39.2606C35.2949 39.7048 35.6691 40.1725 35.3417 40.8506C36.4407 40.8506 37.5398 40.9442 38.592 40.8273C41.7722 40.5233 44.9524 40.079 48.1326 39.7984C48.9511 39.7282 49.8162 40.1258 50.6814 40.2661C51.0322 40.3128 51.4765 40.383 51.7571 40.2193C53.5343 39.1436 55.3348 39.0501 57.2523 39.7516C58.7489 40.3128 60.2922 40.7571 61.8121 41.2482C63.8699 41.9029 65.8341 41.5288 67.7282 40.5467C67.3775 39.775 67.775 39.3073 68.3596 38.8864C72.1945 35.9401 76.0061 32.9703 79.8176 30.024C80.9167 29.1822 81.6416 29.416 81.9456 30.7489C83.559 37.8341 85.1959 44.9194 86.8094 51.9813C87.1134 53.361 87.4407 54.7172 87.7447 56.0969C87.9552 57.0088 87.8383 57.3128 87.0432 57.7805C85.2894 58.7626 83.5356 59.7447 81.7819 60.7269C80.8699 61.2413 80.449 61.1244 79.8644 60.2124C79.4669 59.5577 79.046 58.9029 78.6251 58.178C77.2454 59.5577 75.9125 60.8905 74.6031 62.2234C74.4861 62.3403 74.3926 62.5742 74.3926 62.7379C74.4627 64.9359 72.896 66.9236 70.5109 67.1106C70.4407 67.1106 70.3706 67.1574 70.2303 67.1808C70.3004 68.5136 69.9497 69.7062 68.9442 70.6416C67.9621 71.5535 66.7695 71.8809 65.46 71.764C65.0625 75.3885 62.0226 76.4407 59.6374 75.482ZM50.3307 74.3596C51.7337 75.178 53.09 75.9731 54.4696 76.7447C55.5453 77.3527 56.6911 77.0955 57.2757 76.1601C57.8603 75.2248 57.5797 74.1258 56.5274 73.4009C54.3527 71.8809 52.178 70.3843 50.0033 68.8878C49.7461 68.7007 49.4655 68.537 49.255 68.3266C48.8341 67.9291 48.7172 67.438 49.068 66.9703C49.4187 66.5026 49.8864 66.3623 50.4008 66.6663C50.7282 66.8534 51.0088 67.0639 51.3128 67.2509C54.2124 69.2619 57.112 71.2963 60.035 73.3073C61.1106 74.0322 62.3032 73.8919 62.9579 72.9799C63.6594 72.0212 63.3788 70.8754 62.3032 70.0804C60.8066 69.0047 59.2867 67.9524 57.7901 66.8768C56.1299 65.7076 54.4696 64.515 52.8094 63.3225C52.2949 62.9483 52.2014 62.2936 52.5288 61.8493C52.9263 61.3348 53.4174 61.3348 53.9552 61.5921C54.1189 61.6856 54.2826 61.8025 54.4462 61.9194C57.8135 64.328 61.2041 66.7365 64.5714 69.1216C65.7172 69.9401 67.0033 69.7764 67.7282 68.7709C68.4297 67.7654 68.1725 66.5728 67.0267 65.7544C64.7585 64.1175 62.4903 62.504 60.2454 60.8672C58.7255 59.7681 57.2289 58.6691 55.709 57.57C55.2881 57.2661 54.9607 56.8218 55.2881 56.3307C55.4985 56.0267 55.9194 55.7929 56.2936 55.676C56.504 55.6058 56.8314 55.863 57.0652 56.0267C60.9937 58.8328 64.8988 61.6622 68.8273 64.4683C69.9497 65.2633 71.189 65.1698 71.9139 64.1877C72.6154 63.2757 72.405 62.0831 71.3761 61.2413C66.4187 57.1959 61.4614 53.1973 56.5274 49.1051C55.8726 48.5673 55.3816 48.4738 54.7035 48.9181C54.3527 49.1519 53.9084 49.2688 53.5109 49.4325C50.1436 50.6484 46.8231 50.742 43.6196 48.9181C43.1753 48.6608 42.731 48.2633 42.4738 47.8424C41.7722 46.6732 42.2399 45.3169 43.5728 44.5921C45.1863 43.7269 46.7997 42.885 48.4132 42.0198C48.0859 41.9029 47.8053 41.9029 47.548 41.9497C43.1986 42.6278 38.8259 42.9552 34.4297 43.1189C34.1491 43.1189 33.7984 43.3527 33.6581 43.5632C32.6993 45.0597 31.7874 46.5797 30.852 48.0762C28.8176 51.3967 26.7599 54.7172 24.7021 58.1079C25.2633 58.5288 25.8011 58.9263 26.3156 59.3706C26.6196 59.6278 26.83 59.6044 27.1106 59.3472C27.8121 58.6925 28.5136 58.0611 29.2619 57.4765C31.4834 55.6993 34.6636 56.5645 35.6925 59.2303C35.7626 59.4174 35.8561 59.6278 35.9263 59.8149C37.4229 59.0666 38.8727 58.9731 40.2523 59.8617C41.6319 60.7269 42.2633 62.0363 42.3101 63.6498C43.5728 63.6498 44.6251 64.0474 45.4669 64.9125C46.3087 65.7777 46.6127 66.83 46.7062 67.9992C50.0735 68.1395 51.9208 71.3197 50.3307 74.3596ZM77.4091 56.3073C74.603 51.7241 71.7268 47.0707 68.8506 42.394C68.383 42.581 67.9854 42.7447 67.5879 42.9084C65.3431 43.8672 63.0749 43.9373 60.7832 43.1423C59.2165 42.6044 57.6498 42.1601 56.0831 41.6223C55.0308 41.2482 54.0721 41.3651 53.09 41.9029C50.3307 43.3995 47.5714 44.8493 44.8121 46.3225C44.6017 46.4394 44.3912 46.6031 44.0872 46.7901C45.233 47.7021 46.4724 48.0996 47.7585 48.2633C50.3541 48.5673 52.6925 47.819 54.9373 46.5797C55.5453 46.2289 56.0597 46.1588 56.6677 46.6498C62.2564 51.233 67.8685 55.7929 73.4339 60.3293C74.72 58.9731 76.0528 57.6636 77.4091 56.3073ZM21.709 59.0198C25.4971 52.8699 29.2619 46.7434 33.0267 40.6168C29.5893 37.9511 26.2454 35.3555 22.8314 32.7131C21.0075 40.7103 19.1835 48.6141 17.3596 56.5645C18.8094 57.383 20.2358 58.2014 21.709 59.0198ZM69.9497 40.2661C73.7379 46.416 77.5026 52.5192 81.2674 58.6691C82.7406 57.8273 84.167 57.0322 85.6168 56.2138C83.7929 48.2633 81.9689 40.3596 80.145 32.3623C76.6842 35.0515 73.3403 37.6471 69.9497 40.2661ZM37.9373 61.1711C37.4229 61.4751 36.8616 61.709 36.4407 62.0831C34.8039 63.4628 33.2372 64.9126 31.6237 66.3156C30.6883 67.134 30.5714 68.2798 31.3197 69.2385C32.0914 70.1973 33.3541 70.361 34.2894 69.5659C36.0666 68.046 37.797 66.5026 39.5274 64.9359C40.1821 64.3513 40.3458 63.4394 40.0185 62.6677C39.6677 61.8259 38.9194 61.3114 37.9373 61.1711ZM35.8795 71.5769C36.0198 72.5123 36.4174 73.1436 37.1656 73.5412C37.9607 73.9387 38.7323 73.7984 39.3871 73.2138C40.8837 71.9043 42.3802 70.5948 43.8534 69.2853C44.6952 68.5136 44.7654 67.2509 44.0171 66.4091C43.2688 65.5673 42.0996 65.4738 41.211 66.222C39.6677 67.5549 38.1244 68.8878 36.6512 70.2674C36.3238 70.5948 36.1367 71.1326 35.8795 71.5769ZM26.3857 63.4394C26.5728 64.3981 26.9937 65.0061 27.7654 65.3568C28.5604 65.731 29.3321 65.5673 29.9868 64.9827C31.0157 64.0941 32.0212 63.1821 33.0501 62.2936C34.0322 61.4284 34.1491 60.2592 33.3775 59.3472C32.5824 58.4352 31.3431 58.3885 30.3376 59.2537C29.2853 60.1656 28.233 61.0542 27.2509 62.013C26.8534 62.3871 26.6663 62.9483 26.3857 63.4394ZM44.3445 76.5343C44.6017 76.4174 45.0693 76.3238 45.4201 76.0432C46.4256 75.2248 47.3843 74.383 48.3197 73.4944C49.0914 72.7695 49.068 71.5769 48.3665 70.8053C47.6649 70.0102 46.5191 69.8465 45.6773 70.5247C44.6484 71.3665 43.6429 72.2551 42.6842 73.167C42.0528 73.7516 41.9827 74.5233 42.3101 75.3183C42.6608 76.0666 43.3156 76.4407 44.3445 76.5343Z" fill="#036CC2"/>
</svg>
