<svg width="149" height="149" viewBox="0 0 149 149" fill="none" xmlns="http://www.w3.org/2000/svg">
<path d="M25.8288 76.3186L45.5224 35.0301C48.8512 30.3548 52.9759 31.3058 54.6221 32.3657L120.751 63.9075C125.227 66.0423 124.531 70.3803 123.624 72.2825C117.863 84.5517 105.86 109.986 103.93 113.571C102 117.156 97.475 117.314 95.4534 116.945C75.5187 107.482 34.3843 87.9261 29.3247 85.4029C24.265 82.8797 24.8859 78.2954 25.8288 76.3186Z" stroke="#2B76B0" stroke-width="3"/>
<path d="M31.9766 95.6729V51.5629C32.9329 46.1119 36.9175 45.2273 38.7903 45.4664H109.438C114.22 45.4664 115.415 49.5308 115.415 51.5629C115.495 64.6325 115.606 91.752 115.415 95.6729C115.224 99.5938 111.351 101.61 109.438 102.128C88.16 102.168 44.2413 102.224 38.7903 102.128C33.3393 102.032 31.9766 97.7848 31.9766 95.6729Z" fill="#EEEEEE" stroke="#2B76B0" stroke-width="3"/>
<line x1="75.0762" y1="54.7246" x2="103.874" y2="54.7246" stroke="#2B76B0" stroke-width="3" stroke-linecap="round"/>
<line x1="75.3145" y1="64.0488" x2="104.112" y2="64.0488" stroke="#2B76B0" stroke-width="3" stroke-linecap="round"/>
<line x1="75.5527" y1="72.418" x2="104.35" y2="72.418" stroke="#2B76B0" stroke-width="3" stroke-linecap="round"/>
<line x1="43.2793" y1="90.5879" x2="103.874" y2="90.5879" stroke="#2B76B0" stroke-width="3" stroke-linecap="round"/>
<line x1="75.5527" y1="81.7402" x2="104.35" y2="81.7402" stroke="#2B76B0" stroke-width="3" stroke-linecap="round"/>
<rect x="41.8438" y="55.0957" width="24.9722" height="30.2319" rx="3.5" fill="#EEEEEE" stroke="#2B76B0" stroke-width="3"/>
<path d="M50.5579 63.2253C48.1346 63.929 46.7292 66.5224 47.5586 67.5453C48.1078 68.2228 48.2524 69.7067 48.2335 71.1142M50.5579 63.2253C51.4623 62.9627 52.5085 62.9634 53.6332 63.407C55.4555 62.711 59.2142 62.5642 59.6697 67.5453C59.4621 68.3193 59.2488 69.3334 59.113 70.3928M50.5579 63.2253C48.3685 63.3365 44.1265 64.622 44.6732 68.8742C45.2173 70.3169 46.2526 73.2706 46.0399 73.544C45.7742 73.8857 47.8834 73.7338 48.2335 71.1142M48.2335 71.1142C48.2211 72.0416 48.1376 72.9357 48.0521 73.544C48.0521 77.7962 51.6589 77.6443 53.6332 76.847C58.7586 78.4416 59.0623 75.012 59.0243 73.544C58.9174 72.5818 58.9756 71.4642 59.113 70.3928M56.9742 63.2253C59.4166 63.6276 63.9447 65.3205 62.5172 68.8742C61.0897 72.4278 61.4668 73.6199 61.8338 73.7718C60.8299 73.7844 58.8802 73.1264 59.113 70.3928" stroke="#2B76B0" stroke-width="1.7"/>
<path d="M50.5195 77.2273L53.5948 73.6584M53.5948 73.6584L56.3283 77.2273M53.5948 73.6584V73.1269M53.5948 73.1269C54.2782 72.9751 55.607 72.4056 55.4551 71.3425C55.3033 70.2795 53.2151 70.3934 52.19 70.5832C51.6205 71.0641 51.1042 72.2461 53.5948 73.1269Z" stroke="#2B76B0" stroke-width="1.7"/>
<circle cx="50.4446" cy="68.0384" r="0.835253" fill="#2B76B0"/>
<circle cx="56.8235" cy="68.0384" r="0.835253" fill="#2B76B0"/>
<circle cx="74.5" cy="74.5" r="72" stroke="#2B76B0" stroke-width="5"/>
</svg>
