<svg width="44" height="46" viewBox="0 0 44 46" fill="none" xmlns="http://www.w3.org/2000/svg">
<path fill-rule="evenodd" clip-rule="evenodd" d="M15.1423 35.5402C19.2396 36.0924 23.3979 35.127 26.8327 32.8258C27.3193 32.5622 27.7461 32.2009 28.0865 31.7646C28.4269 31.3282 28.6733 30.8262 28.8106 30.2901C28.9479 29.754 28.9732 29.1952 28.8844 28.6489C28.7956 28.1027 28.5946 27.5806 28.2946 27.1156C27.9945 26.6505 27.6017 26.2525 27.1406 25.9465C26.6795 25.6404 26.1601 25.4328 25.6151 25.3369C25.07 25.241 24.5112 25.2587 23.9734 25.389C23.4355 25.5193 22.9301 25.7594 22.4894 26.0941C21.4108 26.8416 20.1843 27.3485 18.8927 27.5806C17.6011 27.8126 16.2749 27.7642 15.0036 27.4389C13.7323 27.1135 12.5457 26.5187 11.5244 25.6948C10.5031 24.8708 9.6708 23.8369 9.08394 22.6631C8.49708 21.4894 8.16942 20.2033 8.12304 18.8919C8.07665 17.5804 8.31241 16.2743 8.81489 15.062C9.31737 13.8498 10.0748 12.7597 11.0354 11.8656C11.9959 10.9716 13.1373 10.2945 14.3824 9.8801C15.1401 9.66153 15.8178 9.22667 16.3321 8.62883C16.8463 8.03098 17.1751 7.29614 17.2779 6.51428C17.3593 5.97819 17.328 5.43102 17.1865 4.90758C17.045 4.38413 16.7966 3.8958 16.4562 3.47373C16.1158 3.05165 15.691 2.7051 15.2094 2.45594C14.7279 2.20677 14.1999 2.06053 13.6587 2.02651C12.9741 2.00565 12.2902 2.09103 11.6318 2.27977C7.95943 3.52858 4.81875 5.98507 2.72208 9.24845C0.625398 12.5118 -0.303332 16.3895 0.0872032 20.2486C0.477739 24.1078 2.16434 27.7207 4.8723 30.4979C7.58026 33.275 11.1497 35.0524 14.9978 35.5402H15.1423Z" fill="#3CBDEE"/>
<path d="M31.6503 10.2417C33.2294 10.2417 34.5094 8.96171 34.5094 7.38263C34.5094 5.80356 33.2294 4.52344 31.6503 4.52344C30.0712 4.52344 28.791 5.80356 28.791 7.38263C28.791 8.96171 30.0712 10.2417 31.6503 10.2417Z" fill="#3CBDEE"/>
<path d="M30.2407 45.998C29.6622 45.9955 29.091 45.8681 28.5663 45.6245C28.0416 45.3809 27.5759 45.0268 27.2007 44.5865C26.7675 44.0951 26.4384 43.5212 26.2332 42.8992C26.0279 42.2771 25.9504 41.6199 26.0061 40.9673C26.0672 40.0737 26.3924 39.2184 26.9401 38.5097C27.4877 37.801 28.2335 37.2707 29.0828 36.9862C30.5656 36.4001 31.8554 35.4123 32.808 34.1337C33.7605 32.8551 34.338 31.3363 34.4753 29.7478C34.6028 28.0932 34.2497 26.4372 33.4583 24.9786C32.667 23.52 31.471 22.321 30.0145 21.5258C28.558 20.7307 26.9028 20.3731 25.248 20.4962C23.5931 20.6193 22.0088 21.2179 20.686 22.2199C19.7836 22.9018 18.6659 23.2359 17.5373 23.1609C16.3301 23.0593 15.2119 22.4852 14.4257 21.5635C13.6395 20.6417 13.2488 19.4469 13.3389 18.2387C13.39 17.5625 13.5963 16.9072 13.9415 16.3235C14.2867 15.7397 14.7617 15.2434 15.3296 14.8729C18.7458 12.4044 22.9256 11.2248 27.1283 11.5432C31.1151 11.8545 34.8796 13.5043 37.8109 16.2245C40.7421 18.9447 42.6682 22.5757 43.2759 26.5283C43.8837 30.4808 43.1374 34.5228 41.1588 37.998C39.1802 41.4732 36.0851 44.1776 32.3759 45.6723C31.6863 45.8951 30.9654 46.0051 30.2407 45.998ZM25.7529 19.4331H26.5491C29.1116 19.647 31.4891 20.855 33.1725 22.799C34.1779 23.9602 34.8929 25.3436 35.2591 26.8353C35.6253 28.3271 35.6319 29.8845 35.2785 31.3793C34.9251 32.8741 34.2218 34.2636 33.2264 35.4335C32.231 36.6033 30.9723 37.5201 29.5533 38.1082C28.9271 38.3456 28.3788 38.752 27.9699 39.2824C27.5609 39.8127 27.3073 40.4461 27.2369 41.1121C27.2003 41.5964 27.2613 42.0831 27.4167 42.5432C27.5722 43.0033 27.8189 43.4274 28.1417 43.7903C28.4244 44.1063 28.7701 44.3598 29.1565 44.5344C29.543 44.7089 29.9616 44.8005 30.3856 44.8036C30.9876 44.7934 31.585 44.6959 32.159 44.5141C35.6122 43.0916 38.4853 40.5469 40.3146 37.2909C42.1438 34.0348 42.8226 30.2573 42.2412 26.5682C41.6598 22.879 39.8522 19.4933 37.1102 16.9576C34.3682 14.422 30.8516 12.8843 27.1283 12.5928C23.6684 12.3063 20.2074 13.1303 17.2479 14.9453L15.9451 15.8139C15.5192 16.1134 15.163 16.5012 14.9007 16.9509C14.6383 17.4006 14.4759 17.9017 14.4248 18.4198C14.3866 18.8707 14.4408 19.3247 14.5839 19.7541C14.727 20.1835 14.956 20.5792 15.2572 20.917C15.5443 21.2692 15.9022 21.5573 16.3073 21.763C16.7125 21.9686 17.156 22.0873 17.6098 22.1113C18.45 22.1627 19.282 21.9195 19.9623 21.4237C21.6257 20.1499 23.658 19.4514 25.7529 19.4331Z" fill="#3CBDEE"/>
<path d="M13.8068 10.9299C16.825 10.9299 19.2716 8.48325 19.2716 5.46502C19.2716 2.44679 16.825 0 13.8068 0C10.7886 0 8.3418 2.44679 8.3418 5.46502C8.3418 8.48325 10.7886 10.9299 13.8068 10.9299Z" fill="#056FB5"/>
<path d="M16.5214 44.9878C18.1005 44.9878 19.3805 43.7078 19.3805 42.1287C19.3805 40.5497 18.1005 39.2695 16.5214 39.2695C14.9423 39.2695 13.6621 40.5497 13.6621 42.1287C13.6621 43.7078 14.9423 44.9878 16.5214 44.9878Z" fill="#056FB5"/>
</svg>
