<svg width="26" height="21" viewBox="0 0 26 21" fill="none" xmlns="http://www.w3.org/2000/svg">
<path d="M0 18.2V2.8C0 1.26 1.23158 0 2.73684 0H23.2632C24.7684 0 26 1.26 26 2.8V18.2C26 19.74 24.7684 21 23.2632 21H2.73684C1.23158 21 0 19.74 0 18.2Z" fill="white"/>
<path d="M26.0007 8.40078V7.00078H17.7902C17.0376 7.00078 16.4218 6.37078 16.4218 5.60078C16.4218 4.83078 17.0376 4.20078 17.7902 4.20078H18.4744V2.80078H17.7902C16.2849 2.80078 15.0534 4.06078 15.0534 5.60078C15.0534 7.14078 16.2849 8.40078 17.7902 8.40078H19.8428V12.6008H17.7902C15.8744 12.6008 14.3691 14.1408 14.3691 16.1008C14.3691 18.0608 15.8744 19.6008 17.7902 19.6008H19.1586V18.2008H17.7902C16.627 18.2008 15.7376 17.2908 15.7376 16.1008C15.7376 14.9108 16.627 14.0008 17.7902 14.0008H26.0007V12.6008H21.2112V8.40078H26.0007Z" fill="#BDBDBD"/>
<path d="M8.21053 12.6008H6.1579V8.40078H8.21053C9.71579 8.40078 10.9474 7.14078 10.9474 5.60078C10.9474 4.06078 9.71579 2.80078 8.21053 2.80078H6.1579V4.20078H8.21053C8.96316 4.20078 9.57895 4.83078 9.57895 5.60078C9.57895 6.37078 8.96316 7.00078 8.21053 7.00078H0V8.40078H4.78947V12.6008H0V14.0008H8.21053C9.37368 14.0008 10.2632 14.9108 10.2632 16.1008C10.2632 17.2908 9.37368 18.2008 8.21053 18.2008H6.84211V19.6008H8.21053C10.1263 19.6008 11.6316 18.0608 11.6316 16.1008C11.6316 14.1408 10.1263 12.6008 8.21053 12.6008Z" fill="#BDBDBD"/>
</svg>
