<svg width="152" height="152" viewBox="0 0 152 152" fill="none" xmlns="http://www.w3.org/2000/svg">
<path d="M36.4484 105.129H30.9871C26.3168 110.72 32.0543 114.887 35.5068 116.272H115.354C123.941 114.157 122.824 107.962 121.192 105.129H115.354M36.4484 105.129V60.5577C36.6995 58.9209 37.8796 55.6095 40.5914 55.4584C43.3032 55.3073 69.3413 55.3955 82.0215 55.4584H115.354V105.129M36.4484 105.129H42.6629M115.354 105.129H108.763M108.763 105.129L109.516 62.0686H45.2993C44.4205 62.0686 42.6629 62.4086 42.6629 63.7684C42.6629 65.1282 42.6629 91.909 42.6629 105.129M108.763 105.129H42.6629" stroke="#1378B3" stroke-width="3.2"/>
<path d="M67.7076 109.973C64.855 109.973 63.266 106.24 62.8281 104.373H88.727C87.676 108.544 84.911 109.844 83.6598 109.973H67.7076Z" stroke="#1378B3" stroke-width="3.2"/>
<path d="M92.2132 35.0762H117.58C119.073 35.0762 122.094 35.7607 122.243 38.499C122.271 39.008 122.291 40.4273 122.304 42.4922C122.352 50.1565 122.312 66.714 122.267 78.6215C122.259 80.7631 122.251 82.7543 122.243 84.5163C122.181 85.9108 121.46 88.7377 119.073 88.8899C116.685 89.042 100.172 88.9532 92.2132 88.8899C90.9076 88.6997 88.259 87.5588 88.1097 84.5163C88.0747 83.8018 88.0527 81.6613 88.0403 78.6215C88.0046 69.8459 88.0493 53.5761 88.0931 42.4922C88.0987 41.0663 88.1043 39.7262 88.1097 38.499C88.4206 37.358 89.6765 35.0762 92.2132 35.0762Z" fill="#EEEEEE"/>
<path d="M88.0931 42.4922C88.0987 41.0663 88.1043 39.7262 88.1097 38.499C88.4206 37.358 89.6765 35.0762 92.2132 35.0762H117.58C119.073 35.0762 122.094 35.7607 122.243 38.499C122.271 39.008 122.291 40.4273 122.304 42.4922M88.0931 42.4922H122.304M88.0931 42.4922C88.0493 53.5761 88.0046 69.8459 88.0403 78.6215M122.304 42.4922C122.352 50.1565 122.312 66.714 122.267 78.6215M122.267 78.6215C122.259 80.7631 122.251 82.7543 122.243 84.5163C122.181 85.9108 121.46 88.7377 119.073 88.8899C116.685 89.042 100.172 88.9532 92.2132 88.8899C90.9076 88.6997 88.259 87.5588 88.1097 84.5163C88.0747 83.8018 88.0527 81.6613 88.0403 78.6215M122.267 78.6215H88.0403" stroke="#1378B3" stroke-width="3.2"/>
<rect x="100.627" y="81.9746" width="9.79958" height="2.09991" rx="1.04995" fill="#1378B3"/>
<circle cx="76" cy="76" r="73.5" stroke="#2B76B0" stroke-width="5"/>
</svg>
