<svg width="59" height="45" viewBox="0 0 59 45" fill="none" xmlns="http://www.w3.org/2000/svg">
<path d="M7.01616 38.1418V43.7578H5.64816V40.3898L4.39216 43.7578H3.28816L2.02416 40.3818V43.7578H0.656156V38.1418H2.27216L3.84816 42.0298L5.40816 38.1418H7.01616ZM11.4959 42.7658H9.39991L9.06391 43.7578H7.63191L9.66391 38.1418H11.2479L13.2799 43.7578H11.8319L11.4959 42.7658ZM11.1439 41.7098L10.4479 39.6538L9.75991 41.7098H11.1439ZM15.2663 38.1418V43.7578H13.8983V38.1418H15.2663ZM18.2897 43.8138C17.8791 43.8138 17.5111 43.7471 17.1857 43.6138C16.8604 43.4805 16.5991 43.2831 16.4017 43.0218C16.2097 42.7605 16.1084 42.4458 16.0977 42.0778H17.5537C17.5751 42.2858 17.6471 42.4458 17.7697 42.5578C17.8924 42.6645 18.0524 42.7178 18.2497 42.7178C18.4524 42.7178 18.6124 42.6725 18.7297 42.5818C18.8471 42.4858 18.9057 42.3551 18.9057 42.1898C18.9057 42.0511 18.8577 41.9365 18.7617 41.8458C18.6711 41.7551 18.5564 41.6805 18.4177 41.6218C18.2844 41.5631 18.0924 41.4965 17.8417 41.4218C17.4791 41.3098 17.1831 41.1978 16.9537 41.0858C16.7244 40.9738 16.5271 40.8085 16.3617 40.5898C16.1964 40.3711 16.1137 40.0858 16.1137 39.7338C16.1137 39.2111 16.3031 38.8031 16.6817 38.5098C17.0604 38.2111 17.5537 38.0618 18.1617 38.0618C18.7804 38.0618 19.2791 38.2111 19.6577 38.5098C20.0364 38.8031 20.2391 39.2138 20.2657 39.7418H18.7857C18.7751 39.5605 18.7084 39.4191 18.5857 39.3178C18.4631 39.2111 18.3057 39.1578 18.1137 39.1578C17.9484 39.1578 17.8151 39.2031 17.7137 39.2938C17.6124 39.3791 17.5617 39.5045 17.5617 39.6698C17.5617 39.8511 17.6471 39.9925 17.8177 40.0938C17.9884 40.1951 18.2551 40.3045 18.6177 40.4218C18.9804 40.5445 19.2737 40.6618 19.4977 40.7738C19.7271 40.8858 19.9244 41.0485 20.0897 41.2618C20.2551 41.4751 20.3377 41.7498 20.3377 42.0858C20.3377 42.4058 20.2551 42.6965 20.0897 42.9578C19.9297 43.2191 19.6951 43.4271 19.3857 43.5818C19.0764 43.7365 18.7111 43.8138 18.2897 43.8138ZM28.1469 38.1418L26.1549 43.7578H24.4429L22.4509 38.1418H23.9069L25.2989 42.3818L26.6989 38.1418H28.1469ZM30.0867 39.2378V40.3738H31.9187V41.4298H30.0867V42.6618H32.1587V43.7578H28.7187V38.1418H32.1587V39.2378H30.0867ZM38.0708 43.7578H36.7028L34.4148 40.2938V43.7578H33.0468V38.1418H34.4148L36.7028 41.6218V38.1418H38.0708V43.7578ZM41.1664 38.1418C41.7584 38.1418 42.2757 38.2591 42.7184 38.4938C43.1611 38.7285 43.5024 39.0591 43.7424 39.4858C43.9877 39.9071 44.1104 40.3951 44.1104 40.9498C44.1104 41.4991 43.9877 41.9871 43.7424 42.4138C43.5024 42.8405 43.1584 43.1711 42.7104 43.4058C42.2677 43.6405 41.7531 43.7578 41.1664 43.7578H39.0624V38.1418H41.1664ZM41.0784 42.5738C41.5957 42.5738 41.9984 42.4325 42.2864 42.1498C42.5744 41.8671 42.7184 41.4671 42.7184 40.9498C42.7184 40.4325 42.5744 40.0298 42.2864 39.7418C41.9984 39.4538 41.5957 39.3098 41.0784 39.3098H40.4304V42.5738H41.0784ZM46.2429 38.1418V43.7578H44.8749V38.1418H46.2429ZM49.3383 38.1418C49.9303 38.1418 50.4476 38.2591 50.8903 38.4938C51.3329 38.7285 51.6743 39.0591 51.9143 39.4858C52.1596 39.9071 52.2823 40.3951 52.2823 40.9498C52.2823 41.4991 52.1596 41.9871 51.9143 42.4138C51.6743 42.8405 51.3303 43.1711 50.8823 43.4058C50.4396 43.6405 49.9249 43.7578 49.3383 43.7578H47.2343V38.1418H49.3383ZM49.2503 42.5738C49.7676 42.5738 50.1703 42.4325 50.4583 42.1498C50.7463 41.8671 50.8903 41.4671 50.8903 40.9498C50.8903 40.4325 50.7463 40.0298 50.4583 39.7418C50.1703 39.4538 49.7676 39.3098 49.2503 39.3098H48.6023V42.5738H49.2503ZM55.7028 43.8138C55.1748 43.8138 54.6894 43.6911 54.2468 43.4458C53.8094 43.2005 53.4601 42.8591 53.1988 42.4218C52.9428 41.9791 52.8148 41.4831 52.8148 40.9338C52.8148 40.3845 52.9428 39.8911 53.1988 39.4538C53.4601 39.0165 53.8094 38.6751 54.2468 38.4298C54.6894 38.1845 55.1748 38.0618 55.7028 38.0618C56.2308 38.0618 56.7134 38.1845 57.1508 38.4298C57.5934 38.6751 57.9401 39.0165 58.1908 39.4538C58.4468 39.8911 58.5748 40.3845 58.5748 40.9338C58.5748 41.4831 58.4468 41.9791 58.1908 42.4218C57.9348 42.8591 57.5881 43.2005 57.1508 43.4458C56.7134 43.6911 56.2308 43.8138 55.7028 43.8138ZM55.7028 42.5658C56.1508 42.5658 56.5081 42.4165 56.7748 42.1178C57.0468 41.8191 57.1828 41.4245 57.1828 40.9338C57.1828 40.4378 57.0468 40.0431 56.7748 39.7498C56.5081 39.4511 56.1508 39.3018 55.7028 39.3018C55.2494 39.3018 54.8868 39.4485 54.6148 39.7418C54.3481 40.0351 54.2148 40.4325 54.2148 40.9338C54.2148 41.4298 54.3481 41.8271 54.6148 42.1258C54.8868 42.4191 55.2494 42.5658 55.7028 42.5658Z" fill="#F8BA06"/>
<path d="M12 17.2784C12 17.176 12 17.0633 12 16.9609C12.0541 16.838 12.0541 16.7048 12 16.5819C12 16.459 12 16.3259 12 16.203C12.0541 16.0801 12.0541 15.9469 12 15.824C12 15.7216 12 15.6089 12 15.5065C12.0433 15.4758 12.0325 15.4246 12.0325 15.3836C12.0325 15.3426 12.0433 15.2914 12 15.2607C12 15.1787 12 15.0866 12 15.0046C12.0758 14.5745 12.0649 14.1443 12.1082 13.7141C12.2164 12.7002 12.5194 11.7272 12.8874 10.7849C13.4393 9.38174 14.1535 8.06051 15.0734 6.8417C16.0582 5.51023 17.2161 4.36312 18.5256 3.37988C20.441 1.93575 22.6054 0.952513 24.9645 0.358472C25.8303 0.143389 26.7068 0.0819366 27.5942 0.0307262C27.6592 0.0307262 27.7349 0.0512104 27.789 0C27.9513 0 28.1029 0 28.2652 0C28.395 0.0716945 28.5357 0.0204841 28.6656 0.0307262C28.7954 0.0102421 28.9361 0.0614524 29.066 0C29.4448 0 29.8343 0 30.2131 0C30.2456 0.0409683 30.2997 0.0307262 30.343 0.0307262C30.3863 0.0307262 30.4404 0.0409683 30.4728 0C30.5378 0 30.6027 0 30.6784 0C31.1762 0.0716945 31.6849 0.0512104 32.1827 0.112663C33.438 0.256052 34.6392 0.604282 35.808 1.06518C37.085 1.56704 38.3078 2.1918 39.4225 2.95996C40.9808 4.03538 42.3119 5.31563 43.4374 6.79049C44.7252 8.48044 45.6125 10.3343 46.1645 12.3519C46.3917 13.202 46.5108 14.0624 46.5324 14.9329C46.554 15.8445 46.5432 16.7663 46.5324 17.6778C46.5108 19.2141 46.1536 20.6685 45.5909 22.1024C44.9199 23.8333 43.9568 25.4208 42.7123 26.8445C41.5219 28.2067 40.1583 29.3845 38.5675 30.3268C37.0308 31.2383 35.3968 31.9245 33.6436 32.3649C32.7346 32.5903 31.8147 32.6722 30.8841 32.7234C30.8083 32.7234 30.7217 32.7029 30.6568 32.7541C30.5919 32.7541 30.5269 32.7541 30.4512 32.7541C30.4187 32.7132 30.3646 32.7234 30.3213 32.7234C30.278 32.7234 30.2239 32.7132 30.1915 32.7541C30.0832 32.7541 29.9642 32.7541 29.856 32.7541C29.7261 32.7029 29.5854 32.7029 29.4556 32.7541C29.3257 32.7541 29.185 32.7541 29.0552 32.7541C28.8928 32.7029 28.7413 32.7029 28.579 32.7541C28.4924 32.7541 28.395 32.7541 28.3085 32.7541C28.276 32.7132 28.2219 32.7234 28.1786 32.7234C28.1353 32.7234 28.0812 32.7132 28.0487 32.7541C27.9622 32.7541 27.8648 32.7541 27.7782 32.7541C27.3237 32.6824 26.8692 32.6927 26.4147 32.6415C25.1918 32.5083 24.023 32.1703 22.8867 31.7402C20.9929 31.0335 19.2723 30.04 17.7464 28.7597C15.7985 27.1108 14.2726 25.1545 13.2445 22.8603C12.7683 21.7849 12.3896 20.689 12.1731 19.5419C12.0758 19.0093 12.0758 18.4665 12.0325 17.9236C12.0325 17.8724 12.0433 17.8212 12 17.77C12 17.6881 12 17.5959 12 17.5139C12.0433 17.4832 12.0325 17.432 12.0325 17.391C12.0325 17.3603 12.0433 17.3091 12 17.2784Z" fill="#F8BA06"/>
<path d="M28.5938 32.7527C28.7561 32.6605 28.9076 32.6605 29.0699 32.7527C28.9076 32.7527 28.7453 32.7527 28.5938 32.7527Z" fill="#F8BF1B"/>
<path d="M28.6543 0.0614524C28.5245 0.0409683 28.3729 0.112663 28.2539 0C28.3838 0 28.5245 0 28.6543 0C28.7084 0.0204841 28.7084 0.0409683 28.6543 0.0614524Z" fill="#F8CB49"/>
<path d="M28.6582 0.0614524C28.6582 0.0409683 28.6582 0.0204841 28.669 0C28.7989 0 28.9396 0 29.0694 0C28.9504 0.0921786 28.7989 0.0614524 28.6582 0.0614524Z" fill="#F8C01C"/>
<path d="M12 15.8047C12.0974 15.9276 12.0866 16.0607 12 16.1836C12 16.0607 12 15.9276 12 15.8047Z" fill="#F8BE16"/>
<path d="M12 16.5703C12.0866 16.6932 12.0974 16.8264 12 16.9493C12 16.8264 12 16.6932 12 16.5703Z" fill="#F8BE16"/>
<path d="M29.4824 32.7568C29.6123 32.6748 29.753 32.6646 29.8828 32.7568C29.753 32.7568 29.6123 32.7568 29.4824 32.7568Z" fill="#F8BF1B"/>
<path d="M30.3536 0.0512104C30.2995 0.0614524 30.2454 0.0512104 30.2129 0C30.2562 0 30.2995 0 30.3428 0C30.3969 0.0204841 30.3969 0.0307262 30.3536 0.0512104Z" fill="#F8D674"/>
<path d="M30.3516 0.0512104C30.3516 0.0307262 30.3516 0.0102421 30.3516 0C30.3948 0 30.4381 0 30.4814 0C30.4598 0.0614524 30.4057 0.0614524 30.3516 0.0512104Z" fill="#F9DE8E"/>
<path d="M12 15.2344C12.0642 15.2549 12.0642 15.3061 12.0535 15.3573C12.0321 15.3982 12.0214 15.4085 12 15.3573C12 15.3163 12 15.2753 12 15.2344Z" fill="#F9DE8D"/>
<path d="M12 15.3516C12.0214 15.3516 12.0321 15.3516 12.0535 15.3516C12.0642 15.4028 12.0535 15.454 12 15.4847C12 15.4335 12 15.3925 12 15.3516Z" fill="#F8D674"/>
<path d="M12 17.2773C12.0535 17.3081 12.0642 17.3593 12.0535 17.4105C12.0321 17.4515 12.0107 17.4515 12 17.4105C12 17.3593 12 17.3183 12 17.2773Z" fill="#F8D675"/>
<path d="M12 17.3984C12.0214 17.3984 12.0428 17.3984 12.0535 17.3984C12.0642 17.4496 12.0642 17.5009 12 17.5213C12 17.4804 12 17.4394 12 17.3984Z" fill="#F9DE8E"/>
<path d="M28.0605 32.7555C28.0822 32.6941 28.1363 32.6941 28.1904 32.7043C28.2337 32.7248 28.2445 32.735 28.1904 32.7555C28.1471 32.7555 28.1038 32.7555 28.0605 32.7555Z" fill="#F9DF91"/>
<path d="M28.1934 32.754C28.1934 32.7335 28.1934 32.713 28.1934 32.7028C28.2475 32.6925 28.3016 32.7028 28.334 32.754C28.2908 32.754 28.2366 32.754 28.1934 32.754Z" fill="#F8D776"/>
<path d="M30.2129 32.754C30.2454 32.7028 30.2995 32.6925 30.3536 32.7028C30.3969 32.7233 30.3969 32.7438 30.3536 32.754C30.3103 32.754 30.2562 32.754 30.2129 32.754Z" fill="#F8D777"/>
<path d="M30.3516 32.7555C30.3516 32.735 30.3516 32.7145 30.3516 32.7043C30.4057 32.6941 30.4598 32.6941 30.4814 32.7555C30.4381 32.7555 30.3948 32.7555 30.3516 32.7555Z" fill="#F9DF91"/>
<path d="M29.2582 18.6431C26.4013 18.6431 23.5443 18.6431 20.6982 18.6534C20.3843 18.6534 20.2869 18.6022 20.2869 18.2744C20.3086 16.5333 20.2978 14.8024 20.2978 13.0612C20.2978 12.8564 20.2545 12.7232 20.0597 12.5901C19.432 12.1599 19.2697 11.361 19.6376 10.7363C20.0056 10.1013 20.8172 9.83496 21.5315 10.1013C22.2349 10.3778 22.6353 11.0947 22.4297 11.8014C22.3647 12.0063 22.408 12.1292 22.5595 12.2726C23.6092 13.3377 24.659 14.4132 25.6979 15.4886C25.871 15.6627 25.9359 15.6832 26.055 15.4476C26.6935 14.2186 27.3428 12.9895 27.9921 11.7605C28.0787 11.5966 28.0678 11.4839 27.9704 11.3303C27.5808 10.7158 27.7324 9.95787 28.2951 9.50722C28.8578 9.05656 29.6803 9.04632 30.2538 9.49697C30.8274 9.94762 30.9789 10.6953 30.6001 11.3098C30.4811 11.4942 30.4919 11.6273 30.5893 11.8014C31.2386 13.01 31.8771 14.2083 32.5048 15.4271C32.6238 15.6627 32.6887 15.6832 32.8835 15.4783C33.9333 14.3927 34.983 13.3173 36.0435 12.2418C36.1734 12.1087 36.2058 11.996 36.1517 11.8219C35.9353 11.0947 36.3249 10.3675 37.0391 10.091C37.7533 9.81448 38.5542 10.0808 38.9329 10.7158C39.3225 11.361 39.1494 12.1394 38.5001 12.5901C38.3269 12.713 38.2836 12.8256 38.2836 13.01C38.2944 14.7716 38.2836 16.523 38.2944 18.2847C38.2944 18.5714 38.197 18.6329 37.9157 18.6329C35.0154 18.6329 32.1368 18.6431 29.2582 18.6431Z" fill="#F9F9F9"/>
<path d="M29.2718 19.8306C32.3668 19.8306 35.451 19.8306 38.5461 19.8306C39.1846 19.8306 39.3902 20.0252 39.3902 20.6294C39.3902 21.3771 39.3902 22.1248 39.3902 22.8622C39.3902 23.3846 39.1629 23.5894 38.6002 23.5894C32.3777 23.5894 26.1551 23.5894 19.9217 23.5894C19.3698 23.5894 19.1426 23.3743 19.1426 22.852C19.1426 22.0838 19.1426 21.3157 19.1426 20.5475C19.1426 20.0252 19.3698 19.8203 19.9326 19.8203C23.0493 19.8306 26.1659 19.8306 29.2718 19.8306Z" fill="#F9F9F9"/>
</svg>
