<svg width="77" height="89" viewBox="0 0 77 89" fill="none" xmlns="http://www.w3.org/2000/svg">
<rect x="0.5" y="0.5" width="70" height="88" rx="4.5" stroke="#036CC2"/>
<path d="M28 18C28 23.5672 23.7034 28 18.5 28C13.2966 28 9 23.5672 9 18C9 12.4328 13.2966 8 18.5 8C23.7034 8 28 12.4328 28 18Z" stroke="#036CC2" stroke-width="2"/>
<circle cx="19.5" cy="44.5" r="9.5" stroke="#036CC2" stroke-width="2"/>
<path d="M29 71C29 76.5672 24.7034 81 19.5 81C14.2966 81 10 76.5672 10 71C10 65.4328 14.2966 61 19.5 61C24.7034 61 29 65.4328 29 71Z" stroke="#036CC2" stroke-width="2"/>
<path d="M17.4888 13.9321L20.8868 17.2667C23.0682 14.625 27.2917 10.1611 28.4056 9.20447C29.3007 8.43575 30.6334 10.0234 29.6587 10.8449L21.026 20L20.0514 19.1802L16.0964 15.299C15.735 14.5333 16.4312 13.4402 17.4888 13.9321Z" fill="white" stroke="white" stroke-width="3" stroke-linecap="round"/>
<path d="M17.3825 41.3805L20.5378 45.0182C22.5633 42.1364 26.4851 37.2667 27.5195 36.2231C28.3506 35.3845 29.5881 37.1165 28.6831 38.0126L20.667 48L19.762 47.1056L16.0895 42.8716C15.7539 42.0364 16.4004 40.8439 17.3825 41.3805Z" fill="white" stroke="white" stroke-width="3" stroke-linecap="round"/>
<path d="M17.3825 67.4837L20.5378 70.5152C22.5633 68.1137 26.4851 64.0556 27.5195 63.1859C28.3506 62.487 29.5881 63.9304 28.6831 64.6772L20.667 73L19.762 72.2547L16.0895 68.7263C15.7539 68.0303 16.4004 67.0366 17.3825 67.4837Z" fill="white" stroke="white" stroke-width="3" stroke-linecap="round"/>
<path d="M15 16L19.2326 20L28 11" stroke="#036CC2" stroke-width="3" stroke-linecap="round"/>
<path d="M15 43L18.907 47L27 38" stroke="#036CC2" stroke-width="3" stroke-linecap="round"/>
<path d="M15 69.4444L18.907 73L27 65" stroke="#036CC2" stroke-width="3" stroke-linecap="round"/>
<path d="M36 15H62" stroke="#036CC2" stroke-width="3" stroke-linecap="round"/>
<path d="M35 22C36.9817 22 45.8257 22 50 22" stroke="#036CC2" stroke-width="3" stroke-linecap="round"/>
<path d="M35 41C36.4682 41 51.6118 41 59 41" stroke="#036CC2" stroke-width="3" stroke-linecap="round"/>
<path d="M35 48C35.4286 48 45.1786 48 50 48" stroke="#036CC2" stroke-width="3" stroke-linecap="round"/>
<path d="M50.8302 73.4299L42 77L43.1861 66.9505C49.1077 60.1958 59.5937 47.9876 64.5425 42.2232C65.7617 40.803 66.6448 39.774 67.0408 39.3139C69.5449 36.4048 71.39 36.4051 73.894 38.3883C76.7346 40.6381 76.1345 43.0172 75.3438 44.2066L71.7428 48.7026L69.4131 51.6113L50.8302 73.4299Z" fill="white"/>
<path d="M50.8302 73.4299L42 77L43.1861 66.9505M50.8302 73.4299L69.4131 51.6113L71.7428 48.7026M50.8302 73.4299L43.1861 66.9505M43.1861 66.9505C49.1077 60.1958 59.5937 47.9876 64.5425 42.2232M64.5425 42.2232C65.7617 40.803 66.6448 39.774 67.0408 39.3139C69.5449 36.4048 71.39 36.4051 73.894 38.3883C76.7346 40.6381 76.1345 43.0172 75.3438 44.2066L71.7428 48.7026M64.5425 42.2232L71.7428 48.7026" stroke="#036CC2"/>
</svg>
