<svg width="110" height="145" viewBox="0 0 110 145" fill="none" xmlns="http://www.w3.org/2000/svg">
<path d="M103.414 132.559C103.414 134.154 102.78 135.683 101.653 136.81C100.525 137.938 98.9961 138.571 97.4017 138.571H13.1358C12.3443 138.574 11.5598 138.421 10.8276 138.121C10.0953 137.82 9.42966 137.378 8.86878 136.819C8.30789 136.26 7.86283 135.597 7.55916 134.866C7.25549 134.135 7.09916 133.351 7.09917 132.559V30.1091C7.09916 29.3176 7.25549 28.5339 7.55916 27.8029C7.86283 27.0719 8.30789 26.4079 8.86878 25.8493C9.42966 25.2908 10.0953 24.8485 10.8276 24.5478C11.5598 24.2472 12.3443 24.094 13.1358 24.0972H97.4759C99.0704 24.0972 100.6 24.7306 101.727 25.8581C102.854 26.9855 103.488 28.5147 103.488 30.1091V132.559H103.414ZM78.1784 6.18521C79.033 5.99377 79.9196 5.9954 80.7735 6.18997C81.6274 6.38453 82.4272 6.76712 83.1146 7.30988C83.8019 7.85265 84.3595 8.5419 84.7468 9.32744C85.134 10.113 85.3412 10.975 85.3531 11.8507V18.0606H35.2538L78.1784 6.18521ZM97.4017 18.0606H91.365V11.8507C91.3259 8.68556 90.0377 5.66415 87.7809 3.4445C85.5242 1.22484 82.4818 -0.0131891 79.3164 0.000105984C78.4132 0.00340334 77.5145 0.12821 76.6445 0.371197L12.3194 18.1349C9.24949 18.299 6.35842 19.6302 4.2381 21.8564C2.11779 24.0825 0.928618 27.0349 0.914062 30.1091V132.559C0.920615 135.757 2.19551 138.822 4.45898 141.08C6.72246 143.339 9.78963 144.608 12.9874 144.608H97.3275C100.521 144.601 103.582 143.33 105.84 141.072C108.098 138.814 109.369 135.753 109.376 132.559V30.1091C109.369 26.9157 108.098 23.8549 105.84 21.5968C103.582 19.3386 100.521 18.0671 97.3275 18.0606" fill="#2B76B0"/>
<path d="M65.3866 83.1758C64.0608 81.0967 62.2324 79.3852 60.0703 78.1996C57.9082 77.014 55.4822 76.3926 53.0164 76.3926C50.5505 76.3926 48.1245 77.014 45.9624 78.1996C43.8003 79.3852 41.9719 81.0967 40.6462 83.1758L34.09 93.3688C33.027 95.05 32.5246 97.025 32.655 99.0097C32.7596 100.497 33.2199 101.937 33.9973 103.208C34.7746 104.48 35.8462 105.547 37.1218 106.318C38.3973 107.089 39.8395 107.542 41.3269 107.64C42.8143 107.737 44.3032 107.475 45.6685 106.877H45.7922C48.083 105.879 50.5548 105.364 53.0535 105.364C55.5521 105.364 58.024 105.879 60.3148 106.877C61.4919 107.397 62.764 107.666 64.0506 107.669C64.7509 107.672 65.4489 107.589 66.1288 107.421C68.0636 106.983 69.8015 105.923 71.0769 104.403C72.3833 102.896 73.1646 101.004 73.3029 99.0141C73.4412 97.024 72.9291 95.0427 71.8438 93.3688L65.3123 83.1758H65.3866Z" fill="#2B76B0"/>
<path d="M35.9214 83.1528C36.8951 82.7691 37.7723 82.1756 38.4907 81.4144C39.209 80.6533 39.7509 79.7433 40.0778 78.7491C40.7473 76.6775 40.685 74.4388 39.9014 72.4077C39.1177 70.3765 37.6603 68.6762 35.7729 67.5911C34.8648 67.0702 33.8532 66.7558 32.8098 66.6703C31.7664 66.5848 30.7171 66.7302 29.7363 67.0963C27.7901 68.0054 26.2806 69.6449 25.5349 71.6595C24.7893 73.674 24.8677 75.9013 25.7531 77.8585C26.3166 79.4784 27.3538 80.8916 28.7301 81.915C30.1064 82.9384 31.7585 83.5248 33.4721 83.5981C34.3179 83.6119 35.1582 83.4606 35.9461 83.1528" fill="#2B76B0"/>
<path d="M46.9759 74.9187C48.5869 75.1677 50.2236 74.8274 51.6678 73.943C53.112 73.0586 54.2952 71.6722 55.0597 69.9685C55.8242 68.2649 56.1337 66.3247 55.9471 64.4067C55.7604 62.4886 55.0865 60.6837 54.0149 59.2323C52.9434 57.781 51.5253 56.7522 49.9493 56.2829C48.3734 55.8137 46.7146 55.9261 45.1939 56.6056C43.6732 57.285 42.3628 58.4991 41.4373 60.086C40.5117 61.6729 40.015 63.5572 40.0133 65.488C39.8957 67.8327 40.5608 70.1379 41.8643 71.9034C43.1678 73.669 45.0045 74.7525 46.9759 74.9187Z" fill="#2B76B0"/>
<path d="M63.8778 77.6585C64.6128 77.8962 65.3815 78.0132 66.1539 78.0049C68.0533 77.9165 69.8778 77.2372 71.3725 76.0618C72.8672 74.8865 73.9576 73.2737 74.4915 71.4487C75.2618 69.23 75.218 66.8096 74.3678 64.6203C73.9883 63.561 73.3729 62.6019 72.5682 61.8154C71.7635 61.0289 70.7905 60.4356 69.7228 60.0805C68.6551 59.7254 67.5206 59.6177 66.4051 59.7655C65.2896 59.9134 64.2224 60.313 63.2841 60.934C61.2857 62.1748 59.7946 64.0869 59.0782 66.3274C58.2276 68.4678 58.2543 70.8571 59.1526 72.9779C60.0509 75.0987 61.7486 76.7804 63.8778 77.6585Z" fill="#2B76B0"/>
<path d="M82.4089 76.5461C80.5679 75.5344 78.4226 75.2243 76.3705 75.6734C74.3184 76.1225 72.4986 77.3003 71.2484 78.9884C69.9982 80.6765 69.4023 82.7604 69.5711 84.8543C69.7398 86.9481 70.6619 88.91 72.1664 90.376C73.37 91.2609 74.8289 91.7298 76.3227 91.7119C77.711 91.6804 79.073 91.3265 80.301 90.6782C81.529 90.0298 82.5894 89.1047 83.3985 87.9761C84.7699 86.3236 85.435 84.1974 85.2498 82.058C85.0646 79.9186 84.0439 77.9382 82.4089 76.5461Z" fill="#2B76B0"/>
</svg>
