<svg width="16" height="34" viewBox="0 0 16 34" fill="none" xmlns="http://www.w3.org/2000/svg">
<path d="M4.355 33.1081H10.5251C10.7123 33.1053 10.891 33.0292 11.0234 32.8961C11.1558 32.7631 11.2314 32.5835 11.2343 32.3954V18.7734C11.2343 18.1494 11.2642 17.5174 11.2343 16.8933C11.2335 16.8838 11.2335 16.8742 11.2343 16.8647L10.5251 17.5775H14.8291C15.0158 17.5731 15.1936 17.4966 15.3257 17.3639C15.4578 17.2312 15.5339 17.0524 15.5383 16.8647L15.9386 12.3236L15.9969 11.6663C16.03 11.283 15.6439 10.9535 15.2877 10.9535H10.5251L11.2343 11.6663V9.06545C11.2343 8.90705 11.2343 8.74866 11.2343 8.59027C11.2343 8.50315 11.2343 8.41759 11.2343 8.33048C11.2343 8.28296 11.2342 8.23546 11.2453 8.18794L11.2547 8.09606C11.239 8.20693 11.2358 8.23386 11.2453 8.17843C11.2547 8.12299 11.2705 8.03431 11.2894 7.96303C11.2894 7.93927 11.3052 7.91548 11.3115 7.89172C11.3446 7.76184 11.3603 7.89176 11.291 7.92977C11.3229 7.88479 11.3498 7.83643 11.3714 7.78561C11.4265 7.6779 11.2453 7.90437 11.3383 7.82993C11.3509 7.82042 11.4029 7.78088 11.406 7.76504C11.3855 7.84582 11.2579 7.86003 11.3666 7.79984C11.3921 7.78767 11.4169 7.77396 11.4407 7.7587C11.5069 7.71118 11.2595 7.81412 11.384 7.78244C11.4186 7.77294 11.4549 7.75869 11.4911 7.74918C11.5542 7.73018 11.6314 7.73017 11.6913 7.70641C11.5337 7.76819 11.6046 7.71909 11.6913 7.70641L11.841 7.69845C12.495 7.68102 13.1506 7.69845 13.8047 7.69845H15.2861C15.4734 7.69559 15.6521 7.61959 15.7845 7.48653C15.9168 7.35348 15.9925 7.17382 15.9953 6.98567V1.60344C15.9925 1.41529 15.9168 1.23571 15.7845 1.10265C15.6521 0.969598 15.4734 0.893523 15.2861 0.890662H12.1341C10.6716 0.890662 9.19174 0.878022 7.77964 1.31836C6.39119 1.75077 5.15247 2.60925 4.44958 3.91284C3.61114 5.46669 3.65211 7.2027 3.65211 8.91811V11.6694L4.36131 10.9567H1.15256C0.965355 10.9595 0.786638 11.0355 0.654249 11.1686C0.521861 11.3016 0.446206 11.4813 0.443359 11.6694V16.9329C0.445808 17.1212 0.521314 17.301 0.653788 17.4341C0.786261 17.5673 0.965229 17.6432 1.15256 17.6457H4.36131L3.65211 16.9329V30.4915C3.65211 31.1155 3.63477 31.7443 3.65211 32.3684V32.3954C3.65211 32.5844 3.72685 32.7656 3.85985 32.8993C3.99285 33.033 4.17322 33.1081 4.36131 33.1081C4.5494 33.1081 4.72977 33.033 4.86278 32.8993C4.99578 32.7656 5.07051 32.5844 5.07051 32.3954V18.8383C5.07051 18.2127 5.08942 17.5839 5.07051 16.9598V16.9329C5.06766 16.7447 4.99205 16.5651 4.85966 16.432C4.72727 16.299 4.54851 16.223 4.36131 16.2201H1.15256L1.86176 16.9329V11.6694L1.15256 12.3822H4.36131C4.54851 12.3794 4.72727 12.3034 4.85966 12.1703C4.99205 12.0372 5.06766 11.8576 5.07051 11.6694V9.68951C5.07051 8.73915 5.02794 7.78086 5.09413 6.83842C5.09413 6.74496 5.10834 6.64992 5.1178 6.55488C5.1178 6.48994 5.18084 6.25389 5.1178 6.46772C5.16665 6.2824 5.17767 6.08443 5.22022 5.89594C5.29053 5.58182 5.38485 5.27365 5.50233 4.97411C5.55592 4.83472 5.4314 5.13249 5.49287 4.99468C5.50863 4.95984 5.5244 4.92179 5.54173 4.88695C5.57483 4.81409 5.61106 4.74287 5.64731 4.67318C5.72138 4.53537 5.80491 4.40228 5.88687 4.2724C5.92942 4.20745 5.97671 4.14727 6.02084 4.08392C6.10279 3.96512 5.90893 4.21382 6.00349 4.10611C6.02083 4.08711 6.03502 4.0665 6.05235 4.04749C6.15881 3.91911 6.27245 3.79694 6.39276 3.68159C6.44476 3.63249 6.49677 3.58498 6.55036 3.53905C6.60394 3.49311 6.76313 3.32521 6.60395 3.48994C6.72907 3.38013 6.86662 3.28554 7.01373 3.20803C7.14769 3.12566 7.28636 3.04964 7.42662 2.97995L7.65671 2.87376C7.76546 2.82308 7.61734 2.89283 7.60631 2.89441C7.66065 2.87815 7.7134 2.85688 7.76391 2.83099C8.11004 2.69855 8.46566 2.59265 8.82771 2.5142C9.00737 2.47619 9.18702 2.44453 9.36826 2.41761C9.40766 2.41761 9.57785 2.37325 9.38558 2.41761C9.43768 2.40806 9.49031 2.40169 9.54318 2.39858C9.66768 2.38432 9.79221 2.37166 9.91829 2.36215C10.5377 2.31147 11.1586 2.31938 11.778 2.31938H15.2814L14.5722 1.60661V7.00153L15.2814 6.28875C14.1498 6.28875 13.0183 6.27291 11.8883 6.28875C11.4695 6.27652 11.0544 6.37023 10.6811 6.56123C10.3351 6.77089 10.0772 7.10045 9.95611 7.48785C9.84513 7.86652 9.79565 8.26064 9.80955 8.65516C9.80955 9.03213 9.80955 9.41072 9.80955 9.78928V11.671C9.812 11.8593 9.88751 12.0392 10.02 12.1723C10.1525 12.3055 10.3314 12.3813 10.5188 12.3838H15.2814L14.5722 11.671L14.1703 16.2138L14.1136 16.8695L14.8228 16.1568H10.5188C10.3315 16.1596 10.1528 16.2356 10.0204 16.3687C9.88801 16.5017 9.8124 16.6814 9.80955 16.8695V30.4915C9.80955 31.1155 9.77803 31.749 9.80955 32.3715V32.4001L10.5188 31.6873H4.34869C4.1606 31.6873 3.98023 31.7624 3.84723 31.896C3.71422 32.0297 3.63949 32.211 3.63949 32.4001C3.63949 32.5891 3.71422 32.7704 3.84723 32.9041C3.98023 33.0378 4.1606 33.1128 4.34869 33.1128L4.355 33.1081Z" fill="#26313C"/>
</svg>
