<svg width="142" height="151" viewBox="0 0 142 151" fill="none" xmlns="http://www.w3.org/2000/svg">
<path d="M105.395 93.5085C105.007 92.6262 104.448 91.8267 103.749 91.1547C103.049 90.4808 102.223 89.9452 101.318 89.5771C100.379 89.1939 99.3713 88.9977 98.3544 89C96.9277 89 95.5358 89.3838 94.3262 90.1087C94.0368 90.2821 93.7619 90.4725 93.5014 90.68C93.241 90.4725 92.9661 90.2821 92.6767 90.1087C91.4671 89.3838 90.0751 89 88.6484 89C87.6211 89 86.6256 89.1933 85.6851 89.5771C84.7765 89.9466 83.9575 90.4782 83.2543 91.1547C82.554 91.826 81.9946 92.6256 81.6077 93.5085C81.2055 94.4266 81 95.4017 81 96.4051C81 97.3517 81.1968 98.3381 81.5875 99.3416C81.9145 100.18 82.3833 101.05 82.9823 101.928C83.9315 103.318 85.2366 104.768 86.8572 106.238C89.5426 108.674 92.2021 110.357 92.315 110.425L93.0008 110.857C93.3047 111.048 93.6953 111.048 93.9992 110.857L94.685 110.425C94.7979 110.354 97.4544 108.674 100.143 106.238C101.763 104.768 103.069 103.318 104.018 101.928C104.617 101.05 105.088 100.18 105.413 99.3416C105.803 98.3381 106 97.3517 106 96.4051C106.003 95.4017 105.797 94.4266 105.395 93.5085Z" fill="#2B76B0"/>
<path d="M3 43.1732V148H138.898V43.1732L70.7922 3L3 43.1732Z" stroke="#2B76B0" stroke-width="5"/>
<path d="M66.7114 75.8144L69.8499 69.5373L54.7851 114.104L95.5859 146.745H116.3C123.519 141.41 129.482 79.8944 96.5275 48.5092C63.5729 17.1239 49.1357 48.823 49.1357 51.3338C49.1357 53.3425 39.5108 56.7739 34.6984 58.2386C29.4257 62.2559 30.4091 66.608 31.5599 68.2819L37.8369 77.0698L66.7114 75.8144Z" stroke="#2B76B0" stroke-width="5"/>
<path d="M78.01 126.03C91.5685 131.303 94.1211 142.246 93.7027 147.058H30.9321C18.378 107.387 40.7662 82.8232 53.5295 75.5V88.9957C67.5901 90 70.6868 100.922 70.4776 106.258C77.0685 112.221 72.3607 119.126 72.3607 120.381C72.3607 121.385 76.1269 124.566 78.01 126.03Z" fill="#F8FAFB"/>
<path d="M72.3607 120.381C72.3607 121.385 76.1269 124.566 78.01 126.03C91.5685 131.303 94.1211 142.246 93.7027 147.058H30.9321C18.378 107.387 40.7662 82.8232 53.5295 75.5V88.9957C67.5901 90 70.6868 100.922 70.4776 106.258C77.0685 112.221 72.3607 119.126 72.3607 120.381ZM72.3607 120.381C67.0252 124.252 54.5339 129.42 47.2525 119.126" stroke="#2B76B0" stroke-width="5"/>
<circle cx="59.1789" cy="105.003" r="3.45238" fill="#2B76B0"/>
<path d="M34.3851 71.1052C36.7913 70.2683 41.4782 66.2091 40.976 56.668C35.3267 57.6095 26.0994 61.8152 34.3851 71.1052Z" stroke="#2B76B0" stroke-width="5"/>
<circle cx="60.7479" cy="53.8456" r="3.13853" fill="#2B76B0"/>
<path d="M78 49.7379L72 37.7379C84 33.3379 98.5 49.738 102 57.2379C97.5 79.238 84 70.5713 79 62.7379L78 49.7379Z" stroke="#2B76B0" stroke-width="5"/>
</svg>
