<svg width="31" height="21" viewBox="0 0 31 21" fill="none" xmlns="http://www.w3.org/2000/svg">
<path d="M10.7257 20.3108C8.78517 20.3108 6.88818 19.7354 5.27466 18.6573C3.66114 17.5792 2.40356 16.0468 1.66094 14.2539C0.918314 12.4611 0.72401 10.4883 1.1026 8.58501C1.48118 6.68173 2.41565 4.93346 3.78784 3.56128C5.16002 2.18909 6.9083 1.25462 8.81157 0.876033C10.7149 0.497447 12.6876 0.691752 14.4805 1.43437C16.2733 2.177 17.8057 3.43458 18.8838 5.0481C19.962 6.66162 20.5374 8.55861 20.5374 10.4992C20.5347 13.1006 19.5001 15.5946 17.6606 17.4341C15.8212 19.2735 13.3271 20.3081 10.7257 20.3108Z" fill="#E3001A"/>
<path opacity="0.5" d="M20.2721 20.3108C18.3316 20.3111 16.4345 19.736 14.8208 18.6581C13.2071 17.5802 11.9493 16.048 11.2064 14.2553C10.4635 12.4625 10.2689 10.4898 10.6472 8.58644C11.0255 6.68311 11.9597 4.9347 13.3317 3.56231C14.7037 2.18992 16.4518 1.25519 18.3551 0.876318C20.2583 0.497449 22.2311 0.691459 24.0241 1.43381C25.817 2.17617 27.3496 3.43353 28.4279 5.04689C29.5063 6.66025 30.082 8.55715 30.0823 10.4977V10.4992C30.0796 13.1003 29.0452 15.5941 27.2061 17.4336C25.3669 19.273 22.8732 20.3077 20.2721 20.3108Z" fill="#EF991B"/>
</svg>
