<svg width="102" height="102" viewBox="0 0 102 102" fill="none" xmlns="http://www.w3.org/2000/svg">
<path d="M72.8871 46.7417C74.5473 47.5368 75.1553 49.7114 74.2667 51.5821C73.7055 52.7747 72.6532 53.5698 71.5308 53.7802C70.8994 53.8971 70.2213 53.827 69.6367 53.5464C67.9765 52.7513 67.3685 50.5766 68.2571 48.7059C69.1456 46.8352 71.2268 45.9467 72.8871 46.7417ZM61.9434 44.3098C62.0837 43.2575 62.5748 42.3222 63.2997 41.644C64.0714 40.9425 65.0301 40.6385 66.0122 40.7555C66.971 40.8724 67.8362 41.4336 68.3974 42.3222C68.9352 43.164 69.169 44.1929 69.0287 45.2451C68.7949 47.0691 67.5088 48.4721 65.9655 48.7761C65.6381 48.8462 65.2873 48.8462 64.96 48.7995C63.0191 48.5423 61.6628 46.5313 61.9434 44.3098ZM66.059 51.0443L69.7302 54.9026C70.3382 55.534 70.7124 56.3524 70.8293 57.2176C70.9462 58.0828 70.7591 58.9714 70.3382 59.7197C69.8939 60.4914 69.2392 61.076 68.4441 61.4267C68.1635 61.5436 67.8595 61.6372 67.5789 61.7073C67.0411 61.8242 66.4565 61.8009 65.9187 61.6839C63.7674 61.1929 61.4758 61.6138 59.6518 62.8765L59.6051 62.8999C58.8802 63.3909 58.0384 63.6482 57.1498 63.6248C56.2612 63.6014 55.4428 63.2974 54.7412 62.7362C54.0631 62.175 53.5721 61.4501 53.3382 60.5849C53.1044 59.7431 53.1745 58.8545 53.5019 58.0361L55.4661 53.1021C56.2846 51.0443 58.0617 49.5945 60.2364 49.1736C62.341 48.7527 64.5624 49.4542 66.059 51.0443ZM56.495 40.3112C58.5996 39.9136 60.6807 41.5271 61.1484 43.9123C61.6161 46.2974 60.2832 48.589 58.1787 48.9865C56.0741 49.3841 53.993 47.7706 53.5253 45.3854C53.0576 42.9769 54.3905 40.7087 56.495 40.3112ZM48.5445 52.0498C47.4455 50.2727 47.8196 48.0512 49.363 47.0925C50.1346 46.6014 51.07 46.5079 52.0053 46.8119C52.8939 47.0925 53.6656 47.7004 54.18 48.5423C54.6945 49.3841 54.9049 50.3428 54.788 51.2548C54.6477 52.2135 54.1333 53.0086 53.3616 53.4996C53.0342 53.6867 52.7069 53.827 52.3561 53.8971C50.9765 54.1544 49.4331 53.4528 48.5445 52.0498Z" fill="#036CC2"/>
<path d="M51.0935 85.0688C45.1073 84.9752 40.337 79.9711 40.337 73.9849V62.8542H29.2063C23.2201 62.8542 18.1926 58.0839 18.1224 52.0977C18.0289 45.9945 22.9628 41.0137 29.0426 41.0137H40.3604V29.8831C40.3604 23.8968 45.1307 18.8693 51.1169 18.7992C57.2201 18.7056 62.2008 23.6396 62.2008 29.7194V34.3728C62.2008 35.121 61.5928 35.7524 60.8212 35.7524C60.0729 35.7524 59.4415 35.1444 59.4415 34.3728V29.8831C59.4415 25.4168 55.9106 21.652 51.4209 21.5818C46.8377 21.4883 43.0963 25.2063 43.0963 29.7428V41.3645C43.0963 42.7208 41.9972 43.8198 40.641 43.8198H29.1829C24.7166 43.8198 20.9518 47.3507 20.8817 51.8404C20.7882 56.4236 24.4828 60.1651 29.0426 60.1651H40.6176C41.9972 60.1651 43.0963 61.2875 43.0963 62.6437V74.0784C43.0963 78.5447 46.6272 82.3095 51.1169 82.3796C55.7001 82.4732 59.4415 78.7785 59.4415 74.2187V69.3315C59.4415 68.5832 60.0495 67.9518 60.8212 67.9518C61.5695 67.9518 62.2008 68.5598 62.2008 69.3315V74.2187C62.1774 80.2283 57.1967 85.1623 51.0935 85.0688Z" fill="#036CC2"/>
<path d="M51 0C37.3906 0 24.5763 5.30812 14.9422 14.9422C5.30812 24.5763 0 37.3673 0 51C0 64.6094 5.30812 77.4237 14.9422 87.0578C24.5763 96.6919 37.3673 102 51 102C64.6094 102 77.4237 96.6919 87.0578 87.0578C96.6919 77.4237 102 64.6327 102 51C102 37.3906 96.6919 24.5763 87.0578 14.9422C77.4237 5.30812 64.6094 0 51 0ZM51 98.5392C24.7868 98.5392 3.4608 77.2132 3.4608 51C3.4608 24.7868 24.7868 3.4608 51 3.4608C77.2132 3.4608 98.5392 24.7868 98.5392 51C98.5392 77.2132 77.2132 98.5392 51 98.5392Z" fill="#036CC2"/>
</svg>
