<svg width="29" height="28" viewBox="0 0 29 28" fill="none" xmlns="http://www.w3.org/2000/svg">
<path d="M14.5581 0.118743C13.1354 0.118743 11.7099 0.107828 10.2858 0.150114C8.86173 0.192401 7.37899 0.251085 6.00263 0.725785C5.0272 1.05213 4.12829 1.57329 3.36043 2.25764C2.58038 2.95518 1.96053 3.81327 1.54346 4.773C1.1749 5.65106 0.935082 6.57773 0.831415 7.52434C0.755027 8.16 0.734548 8.80112 0.711359 9.43405C0.666344 10.6808 0.671794 11.9303 0.67043 13.1785C0.67043 14.7731 0.656812 16.369 0.693642 17.965C0.725016 19.3141 0.75639 20.6932 1.10287 22C1.63077 23.9697 2.88709 25.7212 4.6904 26.7128C5.49568 27.1484 6.36565 27.452 7.26714 27.6118C8.06579 27.7422 8.87253 27.8169 9.68155 27.8355C10.7933 27.8819 11.9064 27.8859 13.0195 27.8873C14.7396 27.8873 16.4597 27.9023 18.1798 27.8723C19.4238 27.8518 20.6897 27.83 21.9146 27.5995C22.8162 27.4336 23.6848 27.1217 24.486 26.676C25.4409 26.1227 26.2628 25.3665 26.8935 24.4608C27.9848 22.9153 28.2931 21.0301 28.3749 19.1832C28.4199 18.1792 28.4336 17.1752 28.4377 16.1699C28.4458 14.3652 28.4513 12.5605 28.4295 10.7558C28.4398 9.64743 28.3865 8.53932 28.2699 7.43702C28.159 6.49286 27.9119 5.5698 27.536 4.6966C27.1087 3.7385 26.4775 2.88518 25.6863 2.19623C24.1381 0.832154 22.1397 0.304271 20.125 0.200601C19.1701 0.15013 18.2029 0.128294 17.2413 0.121474C16.3451 0.121474 15.4489 0.121474 14.5527 0.121474C14.3899 0.121474 14.2338 0.186125 14.1186 0.301242C14.0035 0.416358 13.9388 0.57251 13.9388 0.73531C13.9388 0.898109 14.0035 1.05426 14.1186 1.16938C14.2338 1.28449 14.3899 1.34915 14.5527 1.34915C15.9618 1.34915 17.3709 1.33826 18.7813 1.37918C19.1905 1.39146 19.6134 1.40918 20.0295 1.42827C20.3023 1.44055 20.5683 1.45967 20.837 1.48695L21.0102 1.506L21.1221 1.51966H21.1507H21.1767L21.2571 1.53191C21.3185 1.5401 21.3785 1.551 21.4399 1.56055C21.8558 1.63185 22.266 1.73266 22.6676 1.86207C22.864 1.92755 23.0564 1.99846 23.2474 2.07621C23.1505 2.03802 23.265 2.08442 23.3005 2.10079C23.3578 2.12534 23.4151 2.1526 23.471 2.17852C23.576 2.22899 23.6798 2.28221 23.7821 2.33677C23.9955 2.45266 24.2018 2.58108 24.4 2.72142L24.5364 2.81826C24.5937 2.85782 24.5364 2.81825 24.5227 2.80734L24.5896 2.85916C24.6933 2.94373 24.7956 3.02969 24.8952 3.11972C25.0955 3.30068 25.2862 3.49194 25.4667 3.69266C25.5431 3.7786 25.6167 3.86585 25.689 3.95588C25.7136 3.98453 25.7368 4.01456 25.76 4.0432C25.7532 4.03502 25.7082 3.97366 25.7477 4.03095C25.7873 4.08824 25.8241 4.13321 25.8609 4.18641C25.9999 4.38512 26.127 4.59192 26.2415 4.8057C26.2933 4.89982 26.3411 4.99532 26.3875 5.09217C26.4148 5.14946 26.4406 5.20679 26.4665 5.26408L26.4993 5.33775C26.5375 5.42505 26.4666 5.25317 26.4993 5.33775C26.6467 5.71173 26.7711 6.09438 26.8717 6.48356C26.9235 6.6909 26.9672 6.90235 27.0081 7.11378C27.019 7.1738 27.0286 7.23513 27.0381 7.29515L27.0504 7.37568C27.0504 7.38522 27.064 7.47385 27.0504 7.40292C27.0368 7.33198 27.0504 7.42204 27.0504 7.43022C27.0504 7.46842 27.06 7.50526 27.064 7.54345C27.0722 7.61029 27.0804 7.67986 27.0858 7.74534C27.1445 8.32371 27.1622 8.90614 27.1827 9.48587C27.225 10.7135 27.2209 11.9412 27.2209 13.1689C27.2209 14.7471 27.2345 16.3268 27.1991 17.905C27.1909 18.3142 27.1745 18.7234 27.1568 19.1327C27.139 19.5419 27.1213 19.9129 27.0804 20.3003C27.0804 20.3576 27.0681 20.4149 27.0613 20.4722C27.0613 20.5035 27.0313 20.6877 27.0504 20.5581C27.034 20.6713 27.0163 20.7859 26.9972 20.8991C26.9576 21.1174 26.9126 21.3343 26.8608 21.5498C26.813 21.7408 26.7571 21.9291 26.6957 22.1159C26.6657 22.206 26.6357 22.2946 26.6029 22.3887L26.558 22.5088L26.5293 22.5797C26.5293 22.5933 26.468 22.7311 26.498 22.6588L26.4543 22.7597C26.4324 22.8088 26.4093 22.8566 26.3861 22.9057C26.3315 23.019 26.2756 23.1294 26.2156 23.2399C26.0982 23.4526 25.9689 23.6584 25.8282 23.8565L25.7299 23.9929C25.7886 23.9124 25.7095 24.0201 25.6876 24.0447C25.6031 24.1493 25.5158 24.2516 25.4258 24.3516C25.2507 24.5429 25.0658 24.7251 24.8719 24.8972C24.7792 24.9805 24.6851 25.0609 24.5883 25.1387L24.5214 25.1919C24.5418 25.1755 24.6087 25.1264 24.5132 25.1919L24.3563 25.3037C24.1644 25.437 23.9649 25.559 23.7589 25.6693C23.6579 25.7239 23.5543 25.7771 23.4492 25.8262L23.3019 25.8944L23.2023 25.9367C23.2583 25.9135 23.2487 25.919 23.2023 25.9367C23.0209 26.009 22.8381 26.0731 22.6567 26.1372C22.2551 26.266 21.8449 26.3658 21.429 26.436L21.2462 26.4659C21.2039 26.4659 21.0839 26.4891 21.193 26.4741C21.0566 26.4919 20.9202 26.5069 20.7933 26.5192C20.5355 26.5451 20.2764 26.5614 20.0172 26.5737L19.3747 26.601C18.2834 26.646 17.1772 26.6487 16.0791 26.6501C14.3863 26.6501 12.6921 26.6637 10.9993 26.6364C10.5778 26.6296 10.1549 26.6173 9.7334 26.5996C9.5097 26.5914 9.28733 26.5819 9.06498 26.571C8.78671 26.5573 8.50891 26.5364 8.23155 26.5082L8.06104 26.4878C8.01875 26.4878 7.89324 26.4646 8.00373 26.4878C7.88096 26.4687 7.7582 26.4509 7.6368 26.4291C7.22585 26.3561 6.82062 26.254 6.42414 26.1236C6.33321 26.0936 6.24451 26.0622 6.15812 26.0295L6.03946 25.9844L5.9617 25.9544L5.90988 25.9326L5.78437 25.8767L5.63843 25.8085C5.52521 25.7539 5.4147 25.6966 5.30557 25.6366C5.10044 25.5233 4.9019 25.3985 4.71085 25.2628L4.6222 25.1974L4.59626 25.1783L4.50351 25.1046C4.39847 25.02 4.29753 24.9314 4.19796 24.84C4.00659 24.6645 3.82447 24.4792 3.65232 24.2848C3.57048 24.192 3.49 24.0965 3.41224 23.9997C3.33449 23.9028 3.43952 24.0393 3.37268 23.9465C3.33039 23.8879 3.28675 23.8292 3.24583 23.7678C3.11398 23.5755 2.99285 23.376 2.883 23.1704C2.82843 23.0681 2.77658 22.9644 2.72747 22.858C2.70428 22.8102 2.68246 22.7611 2.66063 22.7107L2.6279 22.637C2.67564 22.7475 2.62789 22.6288 2.61698 22.6069C2.4684 22.236 2.3467 21.855 2.25278 21.4666C2.20231 21.2565 2.16002 21.0437 2.11637 20.8309L2.09182 20.6727L2.07544 20.5663C2.07544 20.5758 2.08772 20.6659 2.07544 20.5922C2.06043 20.4681 2.04542 20.3453 2.03314 20.2212C1.99768 19.8502 1.97994 19.4778 1.96358 19.1054C1.91992 18.111 1.90766 17.1166 1.90356 16.1208C1.89674 14.3475 1.8913 12.5742 1.91176 10.8009C1.92403 9.75734 1.93495 8.70018 2.04816 7.66348C2.05498 7.59664 2.06316 7.52707 2.07134 7.46433C2.07134 7.43705 2.07135 7.40842 2.08227 7.38114C2.08227 7.39069 2.06726 7.47931 2.08227 7.40838C2.10273 7.28561 2.12045 7.16425 2.14228 7.04285C2.18047 6.83414 2.22412 6.6254 2.27869 6.41942C2.33325 6.21344 2.38645 6.02792 2.45193 5.83422C2.47921 5.75238 2.50787 5.67053 2.53925 5.59005C2.55698 5.54094 2.5747 5.49326 2.5938 5.44552C2.61289 5.39777 2.67018 5.25999 2.62517 5.36366C2.81182 4.92541 3.04556 4.50869 3.32223 4.12093C3.3386 4.09774 3.44362 3.9573 3.37541 4.0446C3.40997 4.00095 3.44544 3.95548 3.48181 3.90819C3.56821 3.80362 3.65914 3.70131 3.75463 3.60128C3.93136 3.41019 4.11758 3.22808 4.31255 3.05564C4.40531 2.97516 4.50077 2.89602 4.59626 2.81826C4.65218 2.77461 4.59628 2.81827 4.58264 2.82919L4.64947 2.7801C4.70131 2.7419 4.75313 2.70507 4.80633 2.6696C5.00606 2.53235 5.21377 2.40709 5.42836 2.29448C5.53066 2.23991 5.63434 2.18806 5.74074 2.13895L5.88804 2.07348C5.89486 2.07348 5.97809 2.03531 5.91534 2.06122L5.96716 2.04071C6.15404 1.96569 6.34227 1.90434 6.53461 1.8375C6.93884 1.70933 7.3519 1.61083 7.77047 1.54283C7.82231 1.53465 7.87553 1.52514 7.92873 1.51832L8.00919 1.506C7.98463 1.506 7.88778 1.52101 8.00919 1.506C8.13059 1.491 8.25745 1.47602 8.38158 1.46511C8.63939 1.44055 8.89722 1.42416 9.15504 1.41189C10.0785 1.3696 11.0006 1.34777 11.9241 1.34095C12.808 1.34095 13.6974 1.34095 14.5745 1.34095C14.7373 1.34095 14.8934 1.2763 15.0086 1.16119C15.1237 1.04607 15.1884 0.889917 15.1884 0.727117C15.1884 0.564318 15.1237 0.408233 15.0086 0.293116C14.8934 0.177999 14.7373 0.113281 14.5745 0.113281L14.5581 0.118743Z" fill="#26313C"/>
<path d="M14.5581 0.118743C13.1354 0.118743 11.7099 0.107828 10.2858 0.150114C8.86173 0.192401 7.37899 0.251085 6.00263 0.725785C5.0272 1.05213 4.12829 1.57329 3.36043 2.25764C2.58038 2.95518 1.96053 3.81327 1.54346 4.773C1.1749 5.65106 0.935082 6.57773 0.831415 7.52434C0.755027 8.16 0.734548 8.80112 0.711359 9.43405C0.666344 10.6808 0.671794 11.9303 0.67043 13.1785C0.67043 14.7731 0.656812 16.369 0.693642 17.965C0.725016 19.3141 0.75639 20.6932 1.10287 22C1.63077 23.9697 2.88709 25.7212 4.6904 26.7128C5.49568 27.1484 6.36565 27.452 7.26714 27.6118C8.06579 27.7422 8.87253 27.8169 9.68155 27.8355C10.7933 27.8819 11.9064 27.8859 13.0195 27.8873C14.7396 27.8873 16.4597 27.9023 18.1798 27.8723C19.4238 27.8518 20.6897 27.83 21.9146 27.5995C22.8162 27.4336 23.6848 27.1217 24.486 26.676C25.4409 26.1227 26.2628 25.3665 26.8935 24.4608C27.9848 22.9153 28.2931 21.0301 28.3749 19.1832C28.4199 18.1792 28.4336 17.1752 28.4377 16.1699C28.4458 14.3652 28.4513 12.5605 28.4295 10.7558C28.4398 9.64743 28.3865 8.53932 28.2699 7.43702C28.159 6.49286 27.9119 5.5698 27.536 4.6966C27.1087 3.7385 26.4775 2.88518 25.6863 2.19623C24.1381 0.832154 22.1397 0.304271 20.125 0.200601C19.1701 0.15013 18.2029 0.128294 17.2413 0.121474C16.3451 0.121474 15.4489 0.121474 14.5527 0.121474C14.3899 0.121474 14.2338 0.186125 14.1186 0.301242C14.0035 0.416358 13.9388 0.57251 13.9388 0.73531C13.9388 0.898109 14.0035 1.05426 14.1186 1.16938C14.2338 1.28449 14.3899 1.34915 14.5527 1.34915C15.9618 1.34915 17.3709 1.33826 18.7813 1.37918C19.1905 1.39146 19.6134 1.40918 20.0295 1.42827C20.3023 1.44055 20.5683 1.45967 20.837 1.48695L21.0102 1.506L21.1221 1.51966H21.1507H21.1767L21.2571 1.53191C21.3185 1.5401 21.3785 1.551 21.4399 1.56055C21.8558 1.63185 22.266 1.73266 22.6676 1.86207C22.864 1.92755 23.0564 1.99846 23.2474 2.07621C23.1505 2.03802 23.265 2.08442 23.3005 2.10079C23.3578 2.12534 23.4151 2.1526 23.471 2.17852C23.576 2.22899 23.6798 2.28221 23.7821 2.33677C23.9955 2.45266 24.2018 2.58108 24.4 2.72142L24.5364 2.81826C24.5937 2.85782 24.5364 2.81825 24.5227 2.80734L24.5896 2.85916C24.6933 2.94373 24.7956 3.02969 24.8952 3.11972C25.0955 3.30068 25.2862 3.49194 25.4667 3.69266C25.5431 3.7786 25.6167 3.86585 25.689 3.95588C25.7136 3.98453 25.7368 4.01456 25.76 4.0432C25.7532 4.03502 25.7082 3.97366 25.7477 4.03095C25.7873 4.08824 25.8241 4.13321 25.8609 4.18641C25.9999 4.38512 26.127 4.59192 26.2415 4.8057C26.2933 4.89982 26.3411 4.99532 26.3875 5.09217C26.4148 5.14946 26.4406 5.20679 26.4665 5.26408L26.4993 5.33775C26.5375 5.42505 26.4666 5.25317 26.4993 5.33775C26.6467 5.71173 26.7711 6.09438 26.8717 6.48356C26.9235 6.6909 26.9672 6.90235 27.0081 7.11378C27.019 7.1738 27.0286 7.23513 27.0381 7.29515L27.0504 7.37568C27.0504 7.38522 27.064 7.47385 27.0504 7.40292C27.0368 7.33198 27.0504 7.42204 27.0504 7.43022C27.0504 7.46842 27.06 7.50526 27.064 7.54345C27.0722 7.61029 27.0804 7.67986 27.0858 7.74534C27.1445 8.32371 27.1622 8.90614 27.1827 9.48587C27.225 10.7135 27.2209 11.9412 27.2209 13.1689C27.2209 14.7471 27.2345 16.3268 27.1991 17.905C27.1909 18.3142 27.1745 18.7234 27.1568 19.1327C27.139 19.5419 27.1213 19.9129 27.0804 20.3003C27.0804 20.3576 27.0681 20.4149 27.0613 20.4722C27.0613 20.5035 27.0313 20.6877 27.0504 20.5581C27.034 20.6713 27.0163 20.7859 26.9972 20.8991C26.9576 21.1174 26.9126 21.3343 26.8608 21.5498C26.813 21.7408 26.7571 21.9291 26.6957 22.1159C26.6657 22.206 26.6357 22.2946 26.6029 22.3887L26.558 22.5088L26.5293 22.5797C26.5293 22.5933 26.468 22.7311 26.498 22.6588L26.4543 22.7597C26.4324 22.8088 26.4093 22.8566 26.3861 22.9057C26.3315 23.019 26.2756 23.1294 26.2156 23.2399C26.0982 23.4526 25.9689 23.6584 25.8282 23.8565L25.7299 23.9929C25.7886 23.9124 25.7095 24.0201 25.6876 24.0447C25.6031 24.1493 25.5158 24.2516 25.4258 24.3516C25.2507 24.5429 25.0658 24.7251 24.8719 24.8972C24.7792 24.9805 24.6851 25.0609 24.5883 25.1387L24.5214 25.1919C24.5418 25.1755 24.6087 25.1264 24.5132 25.1919L24.3563 25.3037C24.1644 25.437 23.9649 25.559 23.7589 25.6693C23.6579 25.7239 23.5543 25.7771 23.4492 25.8262L23.3019 25.8944L23.2023 25.9367C23.2583 25.9135 23.2487 25.919 23.2023 25.9367C23.0209 26.009 22.8381 26.0731 22.6567 26.1372C22.2551 26.266 21.8449 26.3658 21.429 26.436L21.2462 26.4659C21.2039 26.4659 21.0839 26.4891 21.193 26.4741C21.0566 26.4919 20.9202 26.5069 20.7933 26.5192C20.5355 26.5451 20.2764 26.5614 20.0172 26.5737L19.3747 26.601C18.2834 26.646 17.1772 26.6487 16.0791 26.6501C14.3863 26.6501 12.6921 26.6637 10.9993 26.6364C10.5778 26.6296 10.1549 26.6173 9.7334 26.5996C9.5097 26.5914 9.28733 26.5819 9.06498 26.571C8.78671 26.5573 8.50891 26.5364 8.23155 26.5082L8.06104 26.4878C8.01875 26.4878 7.89324 26.4646 8.00373 26.4878C7.88096 26.4687 7.7582 26.4509 7.6368 26.4291C7.22585 26.3561 6.82062 26.254 6.42414 26.1236C6.33321 26.0936 6.24451 26.0622 6.15812 26.0295L6.03946 25.9844L5.9617 25.9544L5.90988 25.9326L5.78437 25.8767L5.63843 25.8085C5.52521 25.7539 5.4147 25.6966 5.30557 25.6366C5.10044 25.5233 4.9019 25.3985 4.71085 25.2628L4.6222 25.1974L4.59626 25.1783L4.50351 25.1046C4.39847 25.02 4.29753 24.9314 4.19796 24.84C4.00659 24.6645 3.82447 24.4792 3.65232 24.2848C3.57048 24.192 3.49 24.0965 3.41224 23.9997C3.33449 23.9028 3.43952 24.0393 3.37268 23.9465C3.33039 23.8879 3.28675 23.8292 3.24583 23.7678C3.11398 23.5755 2.99285 23.376 2.883 23.1704C2.82843 23.0681 2.77658 22.9644 2.72747 22.858C2.70428 22.8102 2.68246 22.7611 2.66063 22.7107L2.6279 22.637C2.67564 22.7475 2.62789 22.6288 2.61698 22.6069C2.4684 22.236 2.3467 21.855 2.25278 21.4666C2.20231 21.2565 2.16002 21.0437 2.11637 20.8309L2.09182 20.6727L2.07544 20.5663C2.07544 20.5758 2.08772 20.6659 2.07544 20.5922C2.06043 20.4681 2.04542 20.3453 2.03314 20.2212C1.99768 19.8502 1.97994 19.4778 1.96358 19.1054C1.91992 18.111 1.90766 17.1166 1.90356 16.1208C1.89674 14.3475 1.8913 12.5742 1.91176 10.8009C1.92403 9.75734 1.93495 8.70018 2.04816 7.66348C2.05498 7.59664 2.06316 7.52707 2.07134 7.46433C2.07134 7.43705 2.07135 7.40842 2.08227 7.38114C2.08227 7.39069 2.06726 7.47931 2.08227 7.40838C2.10273 7.28561 2.12045 7.16425 2.14228 7.04285C2.18047 6.83414 2.22412 6.6254 2.27869 6.41942C2.33325 6.21344 2.38645 6.02792 2.45193 5.83422C2.47921 5.75238 2.50787 5.67053 2.53925 5.59005C2.55698 5.54094 2.5747 5.49326 2.5938 5.44552C2.61289 5.39777 2.67018 5.25999 2.62517 5.36366C2.81182 4.92541 3.04556 4.50869 3.32223 4.12093C3.3386 4.09774 3.44362 3.9573 3.37541 4.0446C3.40997 4.00095 3.44544 3.95548 3.48181 3.90819C3.56821 3.80362 3.65914 3.70131 3.75463 3.60128C3.93136 3.41019 4.11758 3.22808 4.31255 3.05564C4.40531 2.97516 4.50077 2.89602 4.59626 2.81826C4.65218 2.77461 4.59628 2.81827 4.58264 2.82919L4.64947 2.7801C4.70131 2.7419 4.75313 2.70507 4.80633 2.6696C5.00606 2.53235 5.21377 2.40709 5.42836 2.29448C5.53066 2.23991 5.63434 2.18806 5.74074 2.13895L5.88804 2.07348C5.89486 2.07348 5.97809 2.03531 5.91534 2.06122L5.96716 2.04071C6.15404 1.96569 6.34227 1.90434 6.53461 1.8375C6.93884 1.70933 7.3519 1.61083 7.77047 1.54283C7.82231 1.53465 7.87553 1.52514 7.92873 1.51832L8.00919 1.506C7.98463 1.506 7.88778 1.52101 8.00919 1.506C8.13059 1.491 8.25745 1.47602 8.38158 1.46511C8.63939 1.44055 8.89722 1.42416 9.15504 1.41189C10.0785 1.3696 11.0006 1.34777 11.9241 1.34095C12.808 1.34095 13.6974 1.34095 14.5745 1.34095C14.7373 1.34095 14.8934 1.2763 15.0086 1.16119C15.1237 1.04607 15.1884 0.889917 15.1884 0.727117C15.1884 0.564318 15.1237 0.408233 15.0086 0.293116C14.8934 0.177999 14.7373 0.113281 14.5745 0.113281L14.5581 0.118743Z" fill="#26313C"/>
<path d="M14.5589 17.8162C14.4484 17.8162 14.3379 17.8162 14.2274 17.8039L14.0637 17.7889C14.041 17.7831 14.0176 17.7803 13.9942 17.7808C14.0242 17.7589 14.1142 17.7985 13.9942 17.7808C13.7754 17.7449 13.5597 17.6924 13.349 17.6238C13.2548 17.5938 13.1648 17.5557 13.0761 17.5229C12.9875 17.4902 13.1757 17.5706 13.098 17.5324L13.0366 17.5052C12.982 17.4807 12.9275 17.4547 12.8743 17.4274C12.682 17.3293 12.4969 17.2176 12.3204 17.0933L12.1949 17.0005C12.2904 17.0728 12.2086 17.0114 12.1622 16.9718C12.0776 16.9009 11.9944 16.8273 11.9153 16.7495C11.8362 16.6718 11.7789 16.6131 11.7148 16.5422C11.6793 16.5026 11.6452 16.4644 11.6125 16.4249C11.5798 16.3853 11.4897 16.268 11.5688 16.3757C11.4395 16.2016 11.3214 16.0194 11.2155 15.8301C11.1651 15.7387 11.1187 15.6446 11.0791 15.5505C11.0627 15.5123 10.9823 15.3813 11.0614 15.5109C11.0342 15.4568 11.0123 15.4001 10.9959 15.3417C10.9237 15.1411 10.8663 14.9355 10.8241 14.7266C10.8131 14.6734 10.8036 14.6202 10.794 14.567C10.7681 14.4087 10.794 14.6379 10.7872 14.5233C10.7804 14.4087 10.764 14.2887 10.7599 14.1714C10.7529 13.9437 10.762 13.7158 10.7872 13.4894C10.7995 13.368 10.7695 13.5889 10.7872 13.4688C10.7981 13.4075 10.809 13.3475 10.8213 13.2861C10.8418 13.1811 10.8677 13.0774 10.8964 12.9737C10.925 12.87 10.9577 12.7705 10.9932 12.6709C11.0109 12.6218 11.0341 12.5727 11.0491 12.5236C11.0641 12.4745 11.0314 12.5632 11.0314 12.5659C11.0442 12.5308 11.0592 12.4967 11.0764 12.4636C11.1677 12.2671 11.273 12.0774 11.3915 11.8961C11.4488 11.8088 11.5102 11.7256 11.5716 11.641C11.5102 11.7256 11.547 11.6738 11.5866 11.626C11.6261 11.5783 11.663 11.536 11.7025 11.4896C11.8454 11.3292 11.9999 11.1796 12.1649 11.0421C12.2072 11.0067 12.3013 10.9398 12.1977 11.0135L12.3232 10.9208C12.4132 10.8567 12.5073 10.7953 12.596 10.738C12.6847 10.6807 12.7774 10.6343 12.8688 10.5866L12.9902 10.5279L13.0721 10.4911C13.1416 10.4584 13.0843 10.4788 13.0488 10.4992C13.2474 10.4025 13.4587 10.3346 13.6763 10.2974C13.7814 10.2714 13.8864 10.251 13.9928 10.2333C14.0162 10.2313 14.0395 10.2276 14.0624 10.2224C14.0542 10.2387 13.9409 10.236 14.0378 10.2224L14.2247 10.2046C14.4458 10.1883 14.6678 10.1883 14.889 10.2046L15.0527 10.2196C15.0745 10.2196 15.1755 10.2387 15.0868 10.2196C14.9981 10.2005 15.0868 10.2196 15.0977 10.2196C15.2109 10.2401 15.3241 10.2606 15.4373 10.2878C15.6544 10.3259 15.8651 10.3938 16.0635 10.4897C15.9625 10.4297 16.0444 10.4816 16.103 10.5088L16.2394 10.577C16.3304 10.6243 16.4213 10.6748 16.5123 10.7284C16.6009 10.783 16.6882 10.8389 16.7742 10.8989L16.8997 10.9903C16.9692 11.0394 16.8178 10.9194 16.8806 10.9767C16.9024 10.9958 16.9269 11.0135 16.9501 11.0326C17.1148 11.1705 17.2693 11.32 17.4125 11.4801C17.4466 11.5183 17.4808 11.5578 17.5135 11.5974C17.5462 11.6369 17.6349 11.7542 17.5435 11.6287C17.609 11.7188 17.6799 11.8088 17.7345 11.9016C17.8488 12.0757 17.95 12.2581 18.0373 12.4472C18.0646 12.5058 18.1164 12.5836 18.0564 12.4854C18.0797 12.5327 18.0989 12.582 18.1137 12.6327C18.1532 12.7404 18.1874 12.8482 18.2187 12.9573C18.2501 13.0664 18.2719 13.1647 18.2938 13.2697C18.3047 13.3229 18.3142 13.3761 18.3238 13.4293C18.3243 13.4524 18.3279 13.4754 18.3347 13.4975C18.3156 13.4907 18.3183 13.3611 18.3347 13.4975C18.3592 13.718 18.3674 13.9401 18.3592 14.1618C18.3592 14.2709 18.3469 14.3815 18.3347 14.4906C18.3286 14.5133 18.3259 14.5367 18.3265 14.5601C18.306 14.526 18.3429 14.4497 18.3265 14.5356C18.3156 14.5956 18.306 14.657 18.2938 14.717C18.2502 14.9337 18.19 15.1467 18.1137 15.3541C18.0989 15.4047 18.0797 15.454 18.0564 15.5014C18.1096 15.4141 18.0741 15.4604 18.0468 15.5204C18.0005 15.6214 17.95 15.7223 17.8954 15.8206C17.791 16.0104 17.6734 16.1927 17.5435 16.3662C17.6158 16.268 17.5435 16.3553 17.5135 16.3976L17.4125 16.5163C17.3389 16.5981 17.2611 16.6786 17.1806 16.755C17.1002 16.8314 17.0443 16.8914 16.9665 16.9487L16.8901 17.0114L16.8642 17.0318L16.7919 17.0837C16.6154 17.208 16.4304 17.3198 16.2381 17.4179L16.1017 17.4861C16.0485 17.5106 15.9653 17.568 16.0621 17.5052C15.9604 17.5557 15.8533 17.5946 15.7429 17.6211C15.5312 17.6874 15.3152 17.7389 15.0963 17.7753C14.9763 17.7971 15.1959 17.7657 15.0745 17.7753L14.9108 17.7916C14.7922 17.7998 14.6735 17.8039 14.5548 17.8053C14.392 17.8053 14.2359 17.87 14.1208 17.9851C14.0056 18.1002 13.941 18.2563 13.941 18.4191C13.941 18.5819 14.0056 18.7381 14.1208 18.8532C14.2359 18.9683 14.392 19.0329 14.5548 19.0329C15.8608 19.0341 17.1162 18.5281 18.0563 17.6215C18.9963 16.7149 19.5476 15.4787 19.5938 14.1735C19.6399 12.8684 19.1774 11.5963 18.3038 10.6255C17.4301 9.65478 16.2136 9.06123 14.9108 8.97012C13.8932 8.89654 12.8773 9.13451 11.9982 9.65229C11.119 10.1701 10.4183 10.9431 9.98922 11.8688C9.53978 12.8552 9.41144 13.9579 9.62229 15.0212C10.0151 17.0073 11.7066 18.6496 13.7145 18.9593C13.9938 19.0042 14.276 19.0288 14.5589 19.0329C14.7217 19.0329 14.8778 18.9683 14.993 18.8532C15.1081 18.7381 15.1727 18.5819 15.1727 18.4191C15.1727 18.2563 15.1081 18.1002 14.993 17.9851C14.8778 17.87 14.7217 17.8053 14.5589 17.8053V17.8162Z" fill="#26313C"/>
<path d="M14.5589 17.8162C14.4484 17.8162 14.3379 17.8162 14.2274 17.8039L14.0637 17.7889C14.041 17.7831 14.0176 17.7803 13.9942 17.7808C14.0242 17.7589 14.1142 17.7985 13.9942 17.7808C13.7754 17.7449 13.5597 17.6924 13.349 17.6238C13.2548 17.5938 13.1648 17.5557 13.0761 17.5229C12.9875 17.4902 13.1757 17.5706 13.098 17.5324L13.0366 17.5052C12.982 17.4807 12.9275 17.4547 12.8743 17.4274C12.682 17.3293 12.4969 17.2176 12.3204 17.0933L12.1949 17.0005C12.2904 17.0728 12.2086 17.0114 12.1622 16.9718C12.0776 16.9009 11.9944 16.8273 11.9153 16.7495C11.8362 16.6718 11.7789 16.6131 11.7148 16.5422C11.6793 16.5026 11.6452 16.4644 11.6125 16.4249C11.5798 16.3853 11.4897 16.268 11.5688 16.3757C11.4395 16.2016 11.3214 16.0194 11.2155 15.8301C11.1651 15.7387 11.1187 15.6446 11.0791 15.5505C11.0627 15.5123 10.9823 15.3813 11.0614 15.5109C11.0342 15.4568 11.0123 15.4001 10.9959 15.3417C10.9237 15.1411 10.8663 14.9355 10.8241 14.7266C10.8131 14.6734 10.8036 14.6202 10.794 14.567C10.7681 14.4087 10.794 14.6379 10.7872 14.5233C10.7804 14.4087 10.764 14.2887 10.7599 14.1714C10.7529 13.9437 10.762 13.7158 10.7872 13.4894C10.7995 13.368 10.7695 13.5889 10.7872 13.4688C10.7981 13.4075 10.809 13.3475 10.8213 13.2861C10.8418 13.1811 10.8677 13.0774 10.8964 12.9737C10.925 12.87 10.9577 12.7705 10.9932 12.6709C11.0109 12.6218 11.0341 12.5727 11.0491 12.5236C11.0641 12.4745 11.0314 12.5632 11.0314 12.5659C11.0442 12.5308 11.0592 12.4967 11.0764 12.4636C11.1677 12.2671 11.273 12.0774 11.3915 11.8961C11.4488 11.8088 11.5102 11.7256 11.5716 11.641C11.5102 11.7256 11.547 11.6738 11.5866 11.626C11.6261 11.5783 11.663 11.536 11.7025 11.4896C11.8454 11.3292 11.9999 11.1796 12.1649 11.0421C12.2072 11.0067 12.3013 10.9398 12.1977 11.0135L12.3232 10.9208C12.4132 10.8567 12.5073 10.7953 12.596 10.738C12.6847 10.6807 12.7774 10.6343 12.8688 10.5866L12.9902 10.5279L13.0721 10.4911C13.1416 10.4584 13.0843 10.4788 13.0488 10.4992C13.2474 10.4025 13.4587 10.3346 13.6763 10.2974C13.7814 10.2714 13.8864 10.251 13.9928 10.2333C14.0162 10.2313 14.0395 10.2276 14.0624 10.2224C14.0542 10.2387 13.9409 10.236 14.0378 10.2224L14.2247 10.2046C14.4458 10.1883 14.6678 10.1883 14.889 10.2046L15.0527 10.2196C15.0745 10.2196 15.1755 10.2387 15.0868 10.2196C14.9981 10.2005 15.0868 10.2196 15.0977 10.2196C15.2109 10.2401 15.3241 10.2606 15.4373 10.2878C15.6544 10.3259 15.8651 10.3938 16.0635 10.4897C15.9625 10.4297 16.0444 10.4816 16.103 10.5088L16.2394 10.577C16.3304 10.6243 16.4213 10.6748 16.5123 10.7284C16.6009 10.783 16.6882 10.8389 16.7742 10.8989L16.8997 10.9903C16.9692 11.0394 16.8178 10.9194 16.8806 10.9767C16.9024 10.9958 16.9269 11.0135 16.9501 11.0326C17.1148 11.1705 17.2693 11.32 17.4125 11.4801C17.4466 11.5183 17.4808 11.5578 17.5135 11.5974C17.5462 11.6369 17.6349 11.7542 17.5435 11.6287C17.609 11.7188 17.6799 11.8088 17.7345 11.9016C17.8488 12.0757 17.95 12.2581 18.0373 12.4472C18.0646 12.5058 18.1164 12.5836 18.0564 12.4854C18.0797 12.5327 18.0989 12.582 18.1137 12.6327C18.1532 12.7404 18.1874 12.8482 18.2187 12.9573C18.2501 13.0664 18.2719 13.1647 18.2938 13.2697C18.3047 13.3229 18.3142 13.3761 18.3238 13.4293C18.3243 13.4524 18.3279 13.4754 18.3347 13.4975C18.3156 13.4907 18.3183 13.3611 18.3347 13.4975C18.3592 13.718 18.3674 13.9401 18.3592 14.1618C18.3592 14.2709 18.3469 14.3815 18.3347 14.4906C18.3286 14.5133 18.3259 14.5367 18.3265 14.5601C18.306 14.526 18.3429 14.4497 18.3265 14.5356C18.3156 14.5956 18.306 14.657 18.2938 14.717C18.2502 14.9337 18.19 15.1467 18.1137 15.3541C18.0989 15.4047 18.0797 15.454 18.0564 15.5014C18.1096 15.4141 18.0741 15.4604 18.0468 15.5204C18.0005 15.6214 17.95 15.7223 17.8954 15.8206C17.791 16.0104 17.6734 16.1927 17.5435 16.3662C17.6158 16.268 17.5435 16.3553 17.5135 16.3976L17.4125 16.5163C17.3389 16.5981 17.2611 16.6786 17.1806 16.755C17.1002 16.8314 17.0443 16.8914 16.9665 16.9487L16.8901 17.0114L16.8642 17.0318L16.7919 17.0837C16.6154 17.208 16.4304 17.3198 16.2381 17.4179L16.1017 17.4861C16.0485 17.5106 15.9653 17.568 16.0621 17.5052C15.9604 17.5557 15.8533 17.5946 15.7429 17.6211C15.5312 17.6874 15.3152 17.7389 15.0963 17.7753C14.9763 17.7971 15.1959 17.7657 15.0745 17.7753L14.9108 17.7916C14.7922 17.7998 14.6735 17.8039 14.5548 17.8053C14.392 17.8053 14.2359 17.87 14.1208 17.9851C14.0056 18.1002 13.941 18.2563 13.941 18.4191C13.941 18.5819 14.0056 18.7381 14.1208 18.8532C14.2359 18.9683 14.392 19.0329 14.5548 19.0329C15.8608 19.0341 17.1162 18.5281 18.0563 17.6215C18.9963 16.7149 19.5476 15.4787 19.5938 14.1735C19.6399 12.8684 19.1774 11.5963 18.3038 10.6255C17.4301 9.65478 16.2136 9.06123 14.9108 8.97012C13.8932 8.89654 12.8773 9.13451 11.9982 9.65229C11.119 10.1701 10.4183 10.9431 9.98922 11.8688C9.53978 12.8552 9.41144 13.9579 9.62229 15.0212C10.0151 17.0073 11.7066 18.6496 13.7145 18.9593C13.9938 19.0042 14.276 19.0288 14.5589 19.0329C14.7217 19.0329 14.8778 18.9683 14.993 18.8532C15.1081 18.7381 15.1727 18.5819 15.1727 18.4191C15.1727 18.2563 15.1081 18.1002 14.993 17.9851C14.8778 17.87 14.7217 17.8053 14.5589 17.8053V17.8162Z" fill="#26313C"/>
<path d="M22.6249 6.92071C22.6249 6.96573 22.6249 7.00938 22.6249 7.05712C22.6249 7.18262 22.6249 7.02302 22.6249 7.02302C22.644 7.05303 22.5881 7.19357 22.5758 7.23176C22.5685 7.27386 22.5542 7.31443 22.5335 7.35178C22.5335 7.35178 22.6004 7.21538 22.5444 7.32041C22.5021 7.39407 22.4612 7.46362 22.4162 7.53455C22.3439 7.64504 22.4871 7.47592 22.4162 7.52503C22.3916 7.5492 22.3684 7.57471 22.3466 7.60142C22.3275 7.62188 22.3085 7.641 22.288 7.6601L22.2566 7.68734C22.2062 7.72963 22.2157 7.72419 22.2839 7.66963C22.2333 7.71736 22.1746 7.75571 22.1106 7.78286L22.0356 7.82242C21.9333 7.88244 22.157 7.78966 22.0083 7.83467C21.9401 7.85514 21.8719 7.87695 21.8037 7.89196C21.7355 7.90696 21.7382 7.94515 21.816 7.89196C21.7804 7.90097 21.7435 7.90375 21.7069 7.90015C21.6319 7.90015 21.5596 7.90015 21.4859 7.90015C21.4122 7.90015 21.6373 7.93152 21.4982 7.90015C21.4559 7.8906 21.415 7.88239 21.3727 7.87011C21.3304 7.85783 21.2922 7.84425 21.2513 7.83061C21.1681 7.80469 21.2608 7.85102 21.2813 7.8442C21.2472 7.85375 21.1326 7.76645 21.0985 7.74462C21.0644 7.7228 21.0426 7.70238 21.0126 7.68601C20.9403 7.64509 21.119 7.78559 21.0235 7.68601C20.9935 7.656 20.8475 7.54959 20.8503 7.50731C20.8503 7.52913 20.9184 7.60688 20.8693 7.53322C20.8475 7.49775 20.823 7.46501 20.8011 7.42818L20.7602 7.35591L20.7411 7.31908C20.7138 7.2577 20.7166 7.26861 20.752 7.35045C20.7167 7.28832 20.6944 7.21962 20.6865 7.14857C20.6797 7.12129 20.6743 7.09263 20.6688 7.06398C20.6402 6.94122 20.6756 7.20036 20.6688 7.03394C20.6647 6.96717 20.6647 6.90024 20.6688 6.83346V6.78977C20.6756 6.7202 20.6688 6.73114 20.6688 6.82254C20.6767 6.79488 20.6822 6.76657 20.6852 6.73795C20.7002 6.66838 20.7234 6.60158 20.7452 6.53474C20.7875 6.39833 20.6797 6.64931 20.7452 6.52654C20.767 6.48971 20.7848 6.45287 20.8052 6.41604C20.8257 6.37921 20.8434 6.35873 20.8625 6.32872L20.8734 6.31234C20.913 6.25914 20.9062 6.26735 20.8543 6.33692C20.8543 6.30827 20.9757 6.20732 20.9908 6.18685C21.0058 6.16639 21.0876 6.08049 21.0235 6.15415C20.9594 6.22781 21.0439 6.14188 21.0617 6.12824C21.1012 6.10369 21.2417 5.99182 21.2799 6.00682C21.2799 6.00682 21.1353 6.05727 21.2499 6.01908C21.2908 6.0068 21.3304 5.99182 21.3713 5.98091L21.4545 5.95906C21.4654 5.95906 21.606 5.92768 21.5009 5.94814C21.3959 5.9686 21.5364 5.94814 21.55 5.94814C21.5868 5.94814 21.6237 5.94814 21.6605 5.94814C21.6973 5.94814 21.7342 5.94814 21.771 5.94814C21.9074 5.94814 21.6591 5.9195 21.7805 5.94814C21.8637 5.9686 21.9456 5.99043 22.0274 6.01634C22.1543 6.05727 21.951 5.96315 22.0165 6.01634C22.0581 6.04167 22.1008 6.06493 22.1447 6.08595C22.1693 6.09959 22.1925 6.11457 22.2157 6.12957L22.2825 6.17866C22.2143 6.1241 22.2048 6.11866 22.2552 6.16095L22.4026 6.30688C22.5008 6.40646 22.3316 6.19506 22.4094 6.31374C22.4312 6.34784 22.4557 6.38191 22.4776 6.41738C22.4994 6.45284 22.5158 6.49104 22.5376 6.52787C22.5977 6.63291 22.5022 6.41057 22.5376 6.53607C22.5636 6.61791 22.5853 6.69837 22.6072 6.78157C22.629 6.86478 22.6358 6.79522 22.6072 6.74747C22.629 6.78157 22.6153 6.88389 22.6167 6.92344C22.6167 7.08624 22.6814 7.2424 22.7965 7.35751C22.9116 7.47263 23.0677 7.53728 23.2305 7.53728C23.3933 7.53728 23.5495 7.47263 23.6646 7.35751C23.7797 7.2424 23.8444 7.08624 23.8444 6.92344C23.8386 6.46842 23.6946 6.02596 23.4315 5.65468C23.1684 5.2834 22.7986 5.00088 22.3712 4.84462C21.9523 4.69657 21.4985 4.67867 21.0692 4.79334C20.64 4.908 20.2556 5.14987 19.9663 5.4871C19.6648 5.83575 19.4803 6.27017 19.4387 6.72922C19.3971 7.18827 19.5005 7.64884 19.7344 8.04601C19.9683 8.44319 20.3209 8.75695 20.7425 8.94319C21.1642 9.12943 21.6336 9.17878 22.0847 9.08419C23.1064 8.90004 23.8307 7.93832 23.8444 6.92344C23.8444 6.76065 23.7797 6.60456 23.6646 6.48944C23.5495 6.37433 23.3933 6.30961 23.2305 6.30961C23.0677 6.30961 22.9116 6.37433 22.7965 6.48944C22.6814 6.60456 22.6167 6.76065 22.6167 6.92344L22.6249 6.92071Z" fill="#26313C"/>
<path d="M22.6249 6.92071C22.6249 6.96573 22.6249 7.00938 22.6249 7.05712C22.6249 7.18262 22.6249 7.02302 22.6249 7.02302C22.644 7.05303 22.5881 7.19357 22.5758 7.23176C22.5685 7.27386 22.5542 7.31443 22.5335 7.35178C22.5335 7.35178 22.6004 7.21538 22.5444 7.32041C22.5021 7.39407 22.4612 7.46362 22.4162 7.53455C22.3439 7.64504 22.4871 7.47592 22.4162 7.52503C22.3916 7.5492 22.3684 7.57471 22.3466 7.60142C22.3275 7.62188 22.3085 7.641 22.288 7.6601L22.2566 7.68734C22.2062 7.72963 22.2157 7.72419 22.2839 7.66963C22.2333 7.71736 22.1746 7.75571 22.1106 7.78286L22.0356 7.82242C21.9333 7.88244 22.157 7.78966 22.0083 7.83467C21.9401 7.85514 21.8719 7.87695 21.8037 7.89196C21.7355 7.90696 21.7382 7.94515 21.816 7.89196C21.7804 7.90097 21.7435 7.90375 21.7069 7.90015C21.6319 7.90015 21.5596 7.90015 21.4859 7.90015C21.4122 7.90015 21.6373 7.93152 21.4982 7.90015C21.4559 7.8906 21.415 7.88239 21.3727 7.87011C21.3304 7.85783 21.2922 7.84425 21.2513 7.83061C21.1681 7.80469 21.2608 7.85102 21.2813 7.8442C21.2472 7.85375 21.1326 7.76645 21.0985 7.74462C21.0644 7.7228 21.0426 7.70238 21.0126 7.68601C20.9403 7.64509 21.119 7.78559 21.0235 7.68601C20.9935 7.656 20.8475 7.54959 20.8503 7.50731C20.8503 7.52913 20.9184 7.60688 20.8693 7.53322C20.8475 7.49775 20.823 7.46501 20.8011 7.42818L20.7602 7.35591L20.7411 7.31908C20.7138 7.2577 20.7166 7.26861 20.752 7.35045C20.7167 7.28832 20.6944 7.21962 20.6865 7.14857C20.6797 7.12129 20.6743 7.09263 20.6688 7.06398C20.6402 6.94122 20.6756 7.20036 20.6688 7.03394C20.6647 6.96717 20.6647 6.90024 20.6688 6.83346V6.78977C20.6756 6.7202 20.6688 6.73114 20.6688 6.82254C20.6767 6.79488 20.6822 6.76657 20.6852 6.73795C20.7002 6.66838 20.7234 6.60158 20.7452 6.53474C20.7875 6.39833 20.6797 6.64931 20.7452 6.52654C20.767 6.48971 20.7848 6.45287 20.8052 6.41604C20.8257 6.37921 20.8434 6.35873 20.8625 6.32872L20.8734 6.31234C20.913 6.25914 20.9062 6.26735 20.8543 6.33692C20.8543 6.30827 20.9757 6.20732 20.9908 6.18685C21.0058 6.16639 21.0876 6.08049 21.0235 6.15415C20.9594 6.22781 21.0439 6.14188 21.0617 6.12824C21.1012 6.10369 21.2417 5.99182 21.2799 6.00682C21.2799 6.00682 21.1353 6.05727 21.2499 6.01908C21.2908 6.0068 21.3304 5.99182 21.3713 5.98091L21.4545 5.95906C21.4654 5.95906 21.606 5.92768 21.5009 5.94814C21.3959 5.9686 21.5364 5.94814 21.55 5.94814C21.5868 5.94814 21.6237 5.94814 21.6605 5.94814C21.6973 5.94814 21.7342 5.94814 21.771 5.94814C21.9074 5.94814 21.6591 5.9195 21.7805 5.94814C21.8637 5.9686 21.9456 5.99043 22.0274 6.01634C22.1543 6.05727 21.951 5.96315 22.0165 6.01634C22.0581 6.04167 22.1008 6.06493 22.1447 6.08595C22.1693 6.09959 22.1925 6.11457 22.2157 6.12957L22.2825 6.17866C22.2143 6.1241 22.2048 6.11866 22.2552 6.16095L22.4026 6.30688C22.5008 6.40646 22.3316 6.19506 22.4094 6.31374C22.4312 6.34784 22.4557 6.38191 22.4776 6.41738C22.4994 6.45284 22.5158 6.49104 22.5376 6.52787C22.5977 6.63291 22.5022 6.41057 22.5376 6.53607C22.5636 6.61791 22.5853 6.69837 22.6072 6.78157C22.629 6.86478 22.6358 6.79522 22.6072 6.74747C22.629 6.78157 22.6153 6.88389 22.6167 6.92344C22.6167 7.08624 22.6814 7.2424 22.7965 7.35751C22.9116 7.47263 23.0677 7.53728 23.2305 7.53728C23.3933 7.53728 23.5495 7.47263 23.6646 7.35751C23.7797 7.2424 23.8444 7.08624 23.8444 6.92344C23.8386 6.46842 23.6946 6.02596 23.4315 5.65468C23.1684 5.2834 22.7986 5.00088 22.3712 4.84462C21.9523 4.69657 21.4985 4.67867 21.0692 4.79334C20.64 4.908 20.2556 5.14987 19.9663 5.4871C19.6648 5.83575 19.4803 6.27017 19.4387 6.72922C19.3971 7.18827 19.5005 7.64884 19.7344 8.04601C19.9683 8.44319 20.3209 8.75695 20.7425 8.94319C21.1642 9.12943 21.6336 9.17878 22.0847 9.08419C23.1064 8.90004 23.8307 7.93832 23.8444 6.92344C23.8444 6.76065 23.7797 6.60456 23.6646 6.48944C23.5495 6.37433 23.3933 6.30961 23.2305 6.30961C23.0677 6.30961 22.9116 6.37433 22.7965 6.48944C22.6814 6.60456 22.6167 6.76065 22.6167 6.92344L22.6249 6.92071Z" fill="#26313C"/>
</svg>
