<svg width="73" height="73" viewBox="0 0 73 73" fill="none" xmlns="http://www.w3.org/2000/svg">
<circle cx="36.5" cy="36.5" r="36.5" fill="#036CC2"/>
<path d="M19.5479 26.8047H17.7363V39.8441H19.5479V26.8047Z" fill="#EEEEEE"/>
<path d="M41.7427 30.5352C42.3814 30.5352 42.9737 30.6565 43.5239 30.8969C44.0742 31.1402 44.5603 31.4711 44.9791 31.8935C45.4004 32.3138 45.7296 32.804 45.9672 33.3643C46.2052 33.9248 46.324 34.5296 46.324 35.177V39.8425H44.5113V35.1774C44.5113 34.7923 44.4394 34.4294 44.2974 34.0907C44.1549 33.7522 43.9586 33.4561 43.7072 33.1992C43.4552 32.9447 43.1612 32.7427 42.8214 32.5988C42.4815 32.4523 42.1227 32.3806 41.7427 32.3806C41.3619 32.3806 41.0056 32.4523 40.6738 32.5988C40.3407 32.743 40.0495 32.9451 39.7975 33.1992C39.5461 33.4561 39.3501 33.7522 39.207 34.0907C39.0656 34.4298 38.9934 34.7926 38.9934 35.1774V39.8425H37.1818V35.1774C37.1818 34.7923 37.1099 34.4294 36.9671 34.0907C36.8254 33.7522 36.6273 33.4561 36.377 33.1992C36.125 32.9447 35.8295 32.7427 35.4908 32.5988C35.1524 32.4523 34.7928 32.3806 34.4124 32.3806C34.0317 32.3806 33.675 32.4523 33.3425 32.5988C33.0101 32.743 32.7182 32.9451 32.4683 33.1992C32.2173 33.4561 32.0199 33.7522 31.8768 34.0907C31.7354 34.4298 31.6631 34.7926 31.6631 35.1774V39.8425H29.8516V35.1774C29.8516 34.5303 29.9704 33.9252 30.208 33.3646C30.4445 32.8044 30.7709 32.3142 31.1837 31.8939C31.5986 31.4715 32.0841 31.1406 32.641 30.8973C33.1973 30.6568 33.7878 30.5355 34.4121 30.5355C35.1721 30.5355 35.8683 30.7056 36.499 31.0426C37.1296 31.3821 37.6559 31.8419 38.0758 32.4222C38.497 31.8419 39.0276 31.3825 39.6646 31.0426C40.303 30.7053 40.9953 30.5352 41.7427 30.5352Z" fill="#EEEEEE"/>
<path d="M54.143 36.568L55.4272 37.8736L54.7955 38.5167C54.3609 38.9581 53.8656 39.2977 53.309 39.5331C52.7523 39.7689 52.1686 39.8855 51.5573 39.8855C50.9468 39.8855 50.363 39.7689 49.8064 39.5331C49.2497 39.2977 48.7541 38.9581 48.3194 38.5167C47.8714 38.0616 47.54 37.5466 47.3211 36.9724C47.1054 36.3996 46.9961 35.8143 46.9961 35.2218C46.9961 34.6271 47.1054 34.0457 47.3211 33.4801C47.54 32.913 47.8717 32.4016 48.3194 31.9455C48.7678 31.489 49.2726 31.1473 49.8367 30.9187C50.4004 30.6915 50.9735 30.5781 51.5573 30.5781C52.1411 30.5781 52.7146 30.6915 53.2776 30.9187C53.8402 31.1473 54.3471 31.489 54.7952 31.9455L55.4269 32.5883L50.3566 37.7505C50.8717 38.0114 51.4191 38.0983 51.9951 38.0092C52.5729 37.9181 53.0774 37.6536 53.5124 37.2111L54.143 36.568ZM49.6033 33.2303C49.0601 33.7833 48.7893 34.4462 48.7893 35.2214C48.7893 35.6488 48.8838 36.0565 49.0738 36.4438C49.2356 36.2773 49.4835 36.0253 49.8169 35.6869C50.1504 35.3485 50.5019 34.9896 50.8759 34.6088C51.2492 34.2287 51.6091 33.8659 51.955 33.5199C52.3001 33.1758 52.5687 32.9066 52.7598 32.711C52.2437 32.4501 51.6962 32.3596 51.1202 32.4411C50.5428 32.5265 50.0383 32.7878 49.6033 33.2303Z" fill="#EEEEEE"/>
<path d="M65.5853 30.4922L60.8211 39.8204L56.0762 30.4922H58.1134C58.3027 30.8669 58.5195 31.2914 58.7634 31.7677C59.0074 32.2454 59.2534 32.7284 59.4977 33.2194C59.7413 33.7096 59.9814 34.183 60.219 34.6384C60.4587 35.0949 60.6589 35.4883 60.8214 35.8195C61.0234 35.4204 61.2592 34.96 61.5243 34.4421C61.7894 33.9242 62.0496 33.4096 62.3083 32.8967C62.5646 32.3875 62.8022 31.9127 63.0208 31.477C63.2379 31.0431 63.4068 30.7151 63.5298 30.4922H65.5853Z" fill="#EEEEEE"/>
<path d="M23.5233 35.1092L23.8776 34.7485L23.3752 34.6L22.875 34.4492L23.0227 34.9599L23.169 35.4706L23.5233 35.1092Z" fill="#EEEEEE"/>
<path d="M14.2873 35.133C14.3247 35.2457 14.2933 35.6434 13.8911 35.7844C13.4906 35.9258 13.0969 35.8346 13.0091 35.5788C12.9227 35.3243 13.1758 35.0027 13.5766 34.8613C13.9767 34.7189 14.2517 35.025 14.2873 35.133Z" fill="#EEEEEE"/>
<path d="M16.7698 33.4087C16.5322 32.8492 16.2026 32.3593 15.7827 31.9369C15.3625 31.5166 14.8768 31.1843 14.3265 30.9413C13.7762 30.7012 13.184 30.5781 12.5452 30.5781C11.9209 30.5781 11.3308 30.7012 10.7731 30.9413C10.2176 31.1843 9.7318 31.5166 9.319 31.9369C8.90303 32.3593 8.57766 32.8492 8.34112 33.4087C8.10212 33.9678 7.98438 34.574 7.98438 35.2221V43.619H9.79631V40.6324V39.8862V38.043V35.2221C9.79631 34.836 9.86717 34.4728 10.0099 34.1343C10.1108 33.8925 10.2412 33.6717 10.3988 33.4733L10.3945 33.4686C10.2902 33.4094 9.72968 33.2604 9.72968 33.2604C9.71488 33.4826 9.44626 33.7065 9.44626 33.7065C8.64957 34.3931 8.66191 33.8085 8.66191 33.8085C8.84875 33.2077 9.472 32.6866 9.472 32.6866C9.67328 32.3955 10.4167 33.0207 10.6321 33.2106C10.8761 32.9698 11.1574 32.7806 11.4764 32.6407C11.8078 32.4964 12.1645 32.4239 12.5449 32.4239C12.621 32.4239 12.6965 32.4282 12.7701 32.4325L12.7719 32.4239C12.7719 32.4239 13.2922 31.1696 13.6444 31.3799C13.6444 31.3799 14.4263 31.5909 14.8394 32.0567C14.8394 32.0567 15.0908 32.5832 14.0871 32.2968C14.0871 32.2968 13.7501 32.2075 13.6447 32.0122C13.6447 32.0122 13.1988 32.3833 13.1258 32.4835C13.2968 32.5197 13.4614 32.5725 13.6243 32.6407C13.9641 32.7871 14.2578 32.9866 14.5105 33.2436C14.7619 33.498 14.9575 33.7952 15.1006 34.134C15.242 34.4724 15.3143 34.8356 15.3143 35.2218C15.3143 35.6083 15.2423 35.9751 15.1006 36.3214C14.9575 36.667 14.7619 36.9663 14.5105 37.2233C14.2578 37.4788 13.9641 37.6794 13.6243 37.8241C13.2848 37.9694 12.9238 38.0426 12.5456 38.0426H11.1873C11.01 38.0692 10.6015 38.2996 10.6159 39.8446V39.8859H12.5456C13.1847 39.8859 13.7769 39.766 14.3269 39.523C14.8775 39.2822 15.3629 38.9467 15.7831 38.5182C16.2029 38.0893 16.5325 37.5926 16.7701 37.0259C17.0077 36.4592 17.1265 35.8574 17.1265 35.2218C17.1262 34.574 17.0077 33.9678 16.7698 33.4087Z" fill="#EEEEEE"/>
<path d="M28.9876 33.3646C28.749 32.8051 28.4236 32.3152 28.0101 31.8939C27.5948 31.4715 27.1133 31.1406 26.5641 30.8984C26.0145 30.6565 25.4205 30.5352 24.7828 30.5352C24.1585 30.5352 23.5673 30.6565 23.0111 30.8984C22.4537 31.1406 21.9659 31.4715 21.545 31.8939C21.1251 32.3152 20.7945 32.8051 20.5579 33.3646C20.3193 33.9252 20.2012 34.5299 20.2012 35.1781C20.2012 35.8137 20.3193 36.417 20.5579 36.9822C20.7945 37.55 21.1251 38.0467 21.545 38.4745C21.9659 38.9041 22.4537 39.2385 23.0111 39.4794C23.5673 39.7212 24.1585 39.8422 24.7828 39.8422H26.7111V39.8059C26.7312 37.8364 26.0614 38.0022 26.0614 38.0022L26.0635 37.9979H24.7825C24.4032 37.9979 24.0425 37.9257 23.7024 37.7793C23.3636 37.6354 23.0689 37.4355 22.8179 37.1789C22.5666 36.9241 22.3684 36.6226 22.2267 36.277C22.085 35.9321 22.0142 35.5657 22.0142 35.1784C22.0142 34.7912 22.085 34.428 22.2267 34.0907C22.3684 33.7515 22.5666 33.4551 22.8179 33.1992C23.0689 32.9437 23.3639 32.7427 23.7024 32.5977C23.9174 32.5065 24.1398 32.4437 24.3714 32.41L25.0722 31.2127L25.539 32.4861C25.6451 32.518 25.7494 32.5528 25.8509 32.5977C26.0283 32.6752 26.1918 32.7685 26.3448 32.8769L27.531 32.1903V35.1099L27.5293 35.1059C27.5307 35.1311 27.531 35.1548 27.531 35.1788V37.9986H27.5257L27.531 38.0029V39.8429H29.344V35.1781C29.344 34.5299 29.2238 33.9252 28.9876 33.3646Z" fill="#EEEEEE"/>
<path d="M57.687 44.8522C57.687 44.4882 57.597 44.2082 57.417 44.0122C57.237 43.8162 56.997 43.7182 56.697 43.7182C56.529 43.7182 56.397 43.7242 56.301 43.7362C56.209 43.7482 56.135 43.7622 56.079 43.7782V45.7462C56.147 45.8022 56.245 45.8562 56.373 45.9082C56.501 45.9602 56.641 45.9862 56.793 45.9862C56.953 45.9862 57.089 45.9582 57.201 45.9022C57.317 45.8422 57.411 45.7622 57.483 45.6622C57.555 45.5582 57.607 45.4382 57.639 45.3022C57.671 45.1622 57.687 45.0122 57.687 44.8522ZM58.269 44.8522C58.269 45.0882 58.237 45.3062 58.173 45.5062C58.113 45.7062 58.023 45.8782 57.903 46.0222C57.783 46.1662 57.635 46.2782 57.459 46.3582C57.287 46.4382 57.089 46.4783 56.865 46.4783C56.685 46.4783 56.525 46.4543 56.385 46.4062C56.249 46.3582 56.147 46.3122 56.079 46.2682V47.5163H55.521V43.3822C55.653 43.3502 55.817 43.3162 56.013 43.2802C56.213 43.2402 56.443 43.2202 56.703 43.2202C56.943 43.2202 57.159 43.2582 57.351 43.3342C57.543 43.4102 57.707 43.5182 57.843 43.6582C57.979 43.7982 58.083 43.9702 58.155 44.1742C58.231 44.3742 58.269 44.6002 58.269 44.8522ZM58.8802 44.8522C58.8802 44.5762 58.9202 44.3362 59.0002 44.1322C59.0802 43.9242 59.1862 43.7522 59.3182 43.6162C59.4502 43.4802 59.6022 43.3782 59.7742 43.3102C59.9462 43.2422 60.1222 43.2082 60.3022 43.2082C60.7222 43.2082 61.0442 43.3402 61.2682 43.6042C61.4922 43.8642 61.6042 44.2622 61.6042 44.7982C61.6042 44.8222 61.6042 44.8542 61.6042 44.8942C61.6042 44.9302 61.6022 44.9642 61.5982 44.9962H59.4622C59.4862 45.3202 59.5802 45.5662 59.7442 45.7342C59.9082 45.9022 60.1642 45.9862 60.5122 45.9862C60.7082 45.9862 60.8722 45.9702 61.0042 45.9382C61.1402 45.9022 61.2422 45.8682 61.3102 45.8362L61.3882 46.3042C61.3202 46.3402 61.2002 46.3782 61.0282 46.4183C60.8602 46.4583 60.6682 46.4783 60.4522 46.4783C60.1802 46.4783 59.9442 46.4382 59.7442 46.3582C59.5482 46.2742 59.3862 46.1602 59.2582 46.0162C59.1302 45.8722 59.0342 45.7022 58.9702 45.5062C58.9102 45.3062 58.8802 45.0882 58.8802 44.8522ZM61.0222 44.5462C61.0262 44.2942 60.9622 44.0882 60.8302 43.9282C60.7022 43.7642 60.5242 43.6822 60.2962 43.6822C60.1682 43.6822 60.0542 43.7082 59.9542 43.7602C59.8582 43.8082 59.7762 43.8722 59.7082 43.9522C59.6402 44.0322 59.5862 44.1242 59.5462 44.2282C59.5102 44.3322 59.4862 44.4382 59.4742 44.5462H61.0222ZM62.9278 43.2862H64.1098V43.7542H62.9278V45.1942C62.9278 45.3502 62.9398 45.4802 62.9638 45.5842C62.9878 45.6842 63.0238 45.7642 63.0718 45.8242C63.1198 45.8802 63.1798 45.9202 63.2518 45.9442C63.3238 45.9682 63.4078 45.9802 63.5038 45.9802C63.6718 45.9802 63.8058 45.9622 63.9058 45.9262C64.0098 45.8862 64.0818 45.8582 64.1218 45.8422L64.2298 46.3042C64.1738 46.3322 64.0758 46.3662 63.9358 46.4062C63.7958 46.4503 63.6358 46.4723 63.4558 46.4723C63.2438 46.4723 63.0678 46.4463 62.9278 46.3942C62.7918 46.3382 62.6818 46.2562 62.5978 46.1482C62.5138 46.0402 62.4538 45.9082 62.4178 45.7522C62.3858 45.5922 62.3698 45.4082 62.3698 45.2002V42.4162L62.9278 42.3202V43.2862Z" fill="#EEEEEE"/>
</svg>
