<svg width="73" height="73" viewBox="0 0 73 73" fill="none" xmlns="http://www.w3.org/2000/svg">
<circle cx="36.5" cy="36.5" r="36.5" fill="#EEEEEE"/>
<path d="M19.5479 26.8047H17.7363V39.8441H19.5479V26.8047Z" fill="#0078B4"/>
<path d="M41.7427 30.5352C42.3814 30.5352 42.9737 30.6565 43.5239 30.8969C44.0742 31.1402 44.5603 31.4711 44.9791 31.8935C45.4004 32.3138 45.7296 32.804 45.9672 33.3643C46.2052 33.9248 46.324 34.5296 46.324 35.177V39.8425H44.5113V35.1774C44.5113 34.7923 44.4394 34.4294 44.2974 34.0907C44.1549 33.7522 43.9586 33.4561 43.7072 33.1992C43.4552 32.9447 43.1612 32.7427 42.8214 32.5988C42.4815 32.4523 42.1227 32.3806 41.7427 32.3806C41.3619 32.3806 41.0056 32.4523 40.6738 32.5988C40.3407 32.743 40.0495 32.9451 39.7975 33.1992C39.5461 33.4561 39.3501 33.7522 39.207 34.0907C39.0657 34.4298 38.9934 34.7926 38.9934 35.1774V39.8425H37.1818V35.1774C37.1818 34.7923 37.1099 34.4294 36.9671 34.0907C36.8254 33.7522 36.6273 33.4561 36.377 33.1992C36.125 32.9447 35.8295 32.7427 35.4908 32.5988C35.1524 32.4523 34.7928 32.3806 34.4124 32.3806C34.0317 32.3806 33.675 32.4523 33.3425 32.5988C33.0101 32.743 32.7182 32.9451 32.4683 33.1992C32.2173 33.4561 32.0199 33.7522 31.8768 34.0907C31.7354 34.4298 31.6631 34.7926 31.6631 35.1774V39.8425H29.8516V35.1774C29.8516 34.5303 29.9704 33.9252 30.208 33.3646C30.4445 32.8044 30.7709 32.3142 31.1837 31.8939C31.5986 31.4715 32.0841 31.1406 32.641 30.8973C33.1973 30.6568 33.7878 30.5355 34.4121 30.5355C35.1721 30.5355 35.8683 30.7056 36.499 31.0426C37.1296 31.3821 37.6559 31.8419 38.0758 32.4222C38.497 31.8419 39.0276 31.3825 39.6646 31.0426C40.303 30.7053 40.9953 30.5352 41.7427 30.5352Z" fill="#0078B4"/>
<path d="M54.143 36.568L55.4272 37.8736L54.7955 38.5167C54.3609 38.9581 53.8656 39.2977 53.309 39.5331C52.7523 39.7689 52.1686 39.8855 51.5573 39.8855C50.9468 39.8855 50.363 39.7689 49.8064 39.5331C49.2497 39.2977 48.7541 38.9581 48.3194 38.5167C47.8714 38.0616 47.54 37.5466 47.3211 36.9724C47.1054 36.3996 46.9961 35.8143 46.9961 35.2218C46.9961 34.6271 47.1054 34.0457 47.3211 33.4801C47.54 32.913 47.8717 32.4016 48.3194 31.9455C48.7678 31.489 49.2726 31.1473 49.8367 30.9187C50.4004 30.6915 50.9735 30.5781 51.5573 30.5781C52.1411 30.5781 52.7146 30.6915 53.2776 30.9187C53.8402 31.1473 54.3471 31.489 54.7952 31.9455L55.4269 32.5883L50.3566 37.7505C50.8717 38.0114 51.4191 38.0983 51.9951 38.0092C52.5729 37.9181 53.0774 37.6536 53.5124 37.2111L54.143 36.568ZM49.6033 33.2303C49.0601 33.7833 48.7893 34.4462 48.7893 35.2214C48.7893 35.6488 48.8838 36.0565 49.0738 36.4438C49.2356 36.2773 49.4835 36.0253 49.8169 35.6869C50.1504 35.3485 50.5019 34.9896 50.8759 34.6088C51.2492 34.2287 51.6091 33.8659 51.955 33.5199C52.3001 33.1758 52.5687 32.9066 52.7598 32.711C52.2437 32.4501 51.6962 32.3596 51.1202 32.4411C50.5428 32.5265 50.0383 32.7878 49.6033 33.2303Z" fill="#0078B4"/>
<path d="M65.5853 30.4941L60.8211 39.8224L56.0762 30.4941H58.1134C58.3027 30.8688 58.5195 31.2934 58.7634 31.7696C59.0074 32.2473 59.2534 32.7304 59.4977 33.2213C59.7413 33.7116 59.9814 34.1849 60.219 34.6404C60.4587 35.0969 60.6589 35.4902 60.8214 35.8215C61.0234 35.4224 61.2592 34.9619 61.5243 34.4441C61.7894 33.9262 62.0496 33.4115 62.3083 32.8987C62.5646 32.3894 62.8022 31.9146 63.0208 31.4789C63.2379 31.045 63.4068 30.717 63.5298 30.4941H65.5853V30.4941Z" fill="#0078B4"/>
<path d="M23.5233 35.1073L23.8776 34.7466L23.3752 34.598L22.875 34.4473L23.0227 34.958L23.169 35.4687L23.5233 35.1073Z" fill="#0078B4"/>
<path d="M14.2873 35.133C14.3247 35.2457 14.2933 35.6434 13.8911 35.7844C13.4906 35.9258 13.0969 35.8346 13.0091 35.5788C12.9227 35.3243 13.1758 35.0027 13.5766 34.8613C13.9767 34.7189 14.2517 35.025 14.2873 35.133Z" fill="#0078B4"/>
<path d="M16.7698 33.4067C16.5322 32.8472 16.2026 32.3573 15.7827 31.9349C15.3625 31.5147 14.8768 31.1823 14.3265 30.9394C13.7762 30.6993 13.184 30.5762 12.5452 30.5762C11.9209 30.5762 11.3308 30.6993 10.7731 30.9394C10.2176 31.1823 9.7318 31.5147 9.319 31.9349C8.90303 32.3573 8.57766 32.8472 8.34112 33.4067C8.10212 33.9659 7.98438 34.572 7.98438 35.2202V43.6171H9.79631V40.6304V39.8843V38.041V35.2202C9.79631 34.834 9.86717 34.4708 10.0099 34.1324C10.1108 33.8905 10.2412 33.6698 10.3988 33.4713L10.3945 33.4667C10.2902 33.4074 9.72968 33.2585 9.72968 33.2585C9.71488 33.4806 9.44626 33.7046 9.44626 33.7046C8.64957 34.3911 8.66191 33.8065 8.66191 33.8065C8.84875 33.2057 9.472 32.6846 9.472 32.6846C9.67328 32.3936 10.4167 33.0188 10.6321 33.2086C10.8761 32.9678 11.1574 32.7787 11.4764 32.6387C11.8078 32.4944 12.1645 32.4219 12.5449 32.4219C12.621 32.4219 12.6965 32.4262 12.7701 32.4305L12.7719 32.4219C12.7719 32.4219 13.2922 31.1676 13.6444 31.3779C13.6444 31.3779 14.4263 31.589 14.8394 32.0548C14.8394 32.0548 15.0908 32.5813 14.0871 32.2949C14.0871 32.2949 13.7501 32.2055 13.6447 32.0103C13.6447 32.0103 13.1988 32.3814 13.1258 32.4815C13.2968 32.5178 13.4614 32.5705 13.6243 32.6387C13.9641 32.7851 14.2578 32.9847 14.5105 33.2416C14.7619 33.4961 14.9575 33.7932 15.1006 34.132C15.242 34.4705 15.3143 34.8337 15.3143 35.2198C15.3143 35.6063 15.2423 35.9731 15.1006 36.3194C14.9575 36.6651 14.7619 36.9644 14.5105 37.2213C14.2578 37.4769 13.9641 37.6775 13.6243 37.8221C13.2848 37.9675 12.9238 38.0407 12.5456 38.0407H11.1873C11.01 38.0672 10.6015 38.2976 10.6159 39.8426V39.8839H12.5456C13.1847 39.8839 13.7769 39.7641 14.3269 39.5211C14.8775 39.2803 15.3629 38.9447 15.7831 38.5162C16.2029 38.0873 16.5325 37.5906 16.7701 37.0239C17.0077 36.4573 17.1265 35.8554 17.1265 35.2198C17.1262 34.572 17.0077 33.9659 16.7698 33.4067Z" fill="#0078B4"/>
<path d="M28.9876 33.3646C28.749 32.8051 28.4236 32.3152 28.0101 31.8939C27.5948 31.4715 27.1133 31.1406 26.5641 30.8984C26.0145 30.6565 25.4205 30.5352 24.7828 30.5352C24.1585 30.5352 23.5673 30.6565 23.0111 30.8984C22.4537 31.1406 21.9659 31.4715 21.545 31.8939C21.1251 32.3152 20.7945 32.8051 20.5579 33.3646C20.3193 33.9252 20.2012 34.5299 20.2012 35.1781C20.2012 35.8137 20.3193 36.417 20.5579 36.9822C20.7945 37.55 21.1251 38.0467 21.545 38.4745C21.9659 38.9041 22.4537 39.2385 23.0111 39.4794C23.5673 39.7212 24.1585 39.8422 24.7828 39.8422H26.7111V39.8059C26.7312 37.8364 26.0614 38.0022 26.0614 38.0022L26.0635 37.9979H24.7825C24.4032 37.9979 24.0425 37.9257 23.7024 37.7793C23.3636 37.6354 23.0689 37.4355 22.8179 37.1789C22.5666 36.9241 22.3684 36.6226 22.2267 36.277C22.085 35.9321 22.0142 35.5657 22.0142 35.1784C22.0142 34.7912 22.085 34.428 22.2267 34.0907C22.3684 33.7515 22.5666 33.4551 22.8179 33.1992C23.0689 32.9437 23.3639 32.7427 23.7024 32.5977C23.9174 32.5065 24.1398 32.4437 24.3714 32.41L25.0722 31.2127L25.539 32.4861C25.6451 32.518 25.7494 32.5528 25.8509 32.5977C26.0283 32.6752 26.1918 32.7685 26.3448 32.8769L27.531 32.1903V35.1099L27.5293 35.1059C27.5307 35.1311 27.531 35.1548 27.531 35.1788V37.9986H27.5257L27.531 38.0029V39.8429H29.344V35.1781C29.344 34.5299 29.2238 33.9252 28.9876 33.3646Z" fill="#0078B4"/>
<path d="M57.687 44.8542C57.687 44.4902 57.597 44.2102 57.417 44.0142C57.237 43.8182 56.997 43.7202 56.697 43.7202C56.529 43.7202 56.397 43.7262 56.301 43.7382C56.209 43.7502 56.135 43.7642 56.079 43.7802V45.7482C56.147 45.8042 56.245 45.8582 56.373 45.9102C56.501 45.9622 56.641 45.9882 56.793 45.9882C56.953 45.9882 57.089 45.9602 57.201 45.9042C57.317 45.8442 57.411 45.7642 57.483 45.6642C57.555 45.5602 57.607 45.4402 57.639 45.3042C57.671 45.1642 57.687 45.0142 57.687 44.8542ZM58.269 44.8542C58.269 45.0902 58.237 45.3082 58.173 45.5082C58.113 45.7082 58.023 45.8802 57.903 46.0242C57.783 46.1682 57.635 46.2802 57.459 46.3602C57.287 46.4402 57.089 46.4802 56.865 46.4802C56.685 46.4802 56.525 46.4562 56.385 46.4082C56.249 46.3602 56.147 46.3142 56.079 46.2702V47.5182H55.521V43.3842C55.653 43.3522 55.817 43.3182 56.013 43.2822C56.213 43.2422 56.443 43.2222 56.703 43.2222C56.943 43.2222 57.159 43.2602 57.351 43.3362C57.543 43.4122 57.707 43.5202 57.843 43.6602C57.979 43.8002 58.083 43.9722 58.155 44.1762C58.231 44.3762 58.269 44.6022 58.269 44.8542ZM58.8802 44.8542C58.8802 44.5782 58.9202 44.3382 59.0002 44.1342C59.0802 43.9262 59.1862 43.7542 59.3182 43.6182C59.4502 43.4822 59.6022 43.3802 59.7742 43.3122C59.9462 43.2442 60.1222 43.2102 60.3022 43.2102C60.7222 43.2102 61.0442 43.3422 61.2682 43.6062C61.4922 43.8662 61.6042 44.2642 61.6042 44.8002C61.6042 44.8242 61.6042 44.8562 61.6042 44.8962C61.6042 44.9322 61.6022 44.9662 61.5982 44.9982H59.4622C59.4862 45.3222 59.5802 45.5682 59.7442 45.7362C59.9082 45.9042 60.1642 45.9882 60.5122 45.9882C60.7082 45.9882 60.8722 45.9722 61.0042 45.9402C61.1402 45.9042 61.2422 45.8702 61.3102 45.8382L61.3882 46.3062C61.3202 46.3422 61.2002 46.3802 61.0282 46.4202C60.8602 46.4602 60.6682 46.4802 60.4522 46.4802C60.1802 46.4802 59.9442 46.4402 59.7442 46.3602C59.5482 46.2762 59.3862 46.1622 59.2582 46.0182C59.1302 45.8742 59.0342 45.7042 58.9702 45.5082C58.9102 45.3082 58.8802 45.0902 58.8802 44.8542ZM61.0222 44.5482C61.0262 44.2962 60.9622 44.0902 60.8302 43.9302C60.7022 43.7662 60.5242 43.6842 60.2962 43.6842C60.1682 43.6842 60.0542 43.7102 59.9542 43.7622C59.8582 43.8102 59.7762 43.8742 59.7082 43.9542C59.6402 44.0342 59.5862 44.1262 59.5462 44.2302C59.5102 44.3342 59.4862 44.4402 59.4742 44.5482H61.0222ZM62.9278 43.2882H64.1098V43.7562H62.9278V45.1962C62.9278 45.3522 62.9398 45.4822 62.9638 45.5862C62.9878 45.6862 63.0238 45.7662 63.0718 45.8262C63.1198 45.8822 63.1798 45.9222 63.2518 45.9462C63.3238 45.9702 63.4078 45.9822 63.5038 45.9822C63.6718 45.9822 63.8058 45.9642 63.9058 45.9282C64.0098 45.8882 64.0818 45.8602 64.1218 45.8442L64.2298 46.3062C64.1738 46.3342 64.0758 46.3682 63.9358 46.4082C63.7958 46.4522 63.6358 46.4742 63.4558 46.4742C63.2438 46.4742 63.0678 46.4482 62.9278 46.3962C62.7918 46.3402 62.6818 46.2582 62.5978 46.1502C62.5138 46.0422 62.4538 45.9102 62.4178 45.7542C62.3858 45.5942 62.3698 45.4102 62.3698 45.2022V42.4182L62.9278 42.3222V43.2882Z" fill="#0078B4"/>
</svg>
