<svg width="77" height="33" viewBox="0 0 77 33" fill="none" xmlns="http://www.w3.org/2000/svg">
<path d="M60.4932 26.892C60.4932 26.164 60.3132 25.604 59.9532 25.212C59.5932 24.82 59.1132 24.624 58.5132 24.624C58.1772 24.624 57.9132 24.636 57.7212 24.66C57.5372 24.684 57.3892 24.712 57.2772 24.744V28.68C57.4132 28.792 57.6092 28.9 57.8652 29.004C58.1212 29.108 58.4012 29.16 58.7052 29.16C59.0252 29.16 59.2972 29.104 59.5212 28.992C59.7532 28.872 59.9412 28.712 60.0852 28.512C60.2292 28.304 60.3332 28.064 60.3972 27.792C60.4612 27.512 60.4932 27.212 60.4932 26.892ZM61.6572 26.892C61.6572 27.364 61.5932 27.8 61.4652 28.2C61.3452 28.6 61.1652 28.944 60.9252 29.232C60.6852 29.52 60.3892 29.744 60.0372 29.904C59.6932 30.064 59.2972 30.144 58.8492 30.144C58.4892 30.144 58.1692 30.096 57.8892 30C57.6172 29.904 57.4132 29.812 57.2772 29.724V32.22H56.1612V23.952C56.4252 23.888 56.7532 23.82 57.1452 23.748C57.5452 23.668 58.0052 23.628 58.5252 23.628C59.0052 23.628 59.4372 23.704 59.8212 23.856C60.2052 24.008 60.5332 24.224 60.8052 24.504C61.0772 24.784 61.2852 25.128 61.4292 25.536C61.5812 25.936 61.6572 26.388 61.6572 26.892ZM62.8796 26.892C62.8796 26.34 62.9596 25.86 63.1196 25.452C63.2796 25.036 63.4916 24.692 63.7556 24.42C64.0196 24.148 64.3236 23.944 64.6676 23.808C65.0116 23.672 65.3636 23.604 65.7236 23.604C66.5636 23.604 67.2076 23.868 67.6556 24.396C68.1036 24.916 68.3276 25.712 68.3276 26.784C68.3276 26.832 68.3276 26.896 68.3276 26.976C68.3276 27.048 68.3236 27.116 68.3156 27.18H64.0436C64.0916 27.828 64.2796 28.32 64.6076 28.656C64.9356 28.992 65.4476 29.16 66.1436 29.16C66.5356 29.16 66.8636 29.128 67.1276 29.064C67.3996 28.992 67.6036 28.924 67.7396 28.86L67.8956 29.796C67.7596 29.868 67.5196 29.944 67.1756 30.024C66.8396 30.104 66.4556 30.144 66.0236 30.144C65.4796 30.144 65.0076 30.064 64.6076 29.904C64.2156 29.736 63.8916 29.508 63.6356 29.22C63.3796 28.932 63.1876 28.592 63.0596 28.2C62.9396 27.8 62.8796 27.364 62.8796 26.892ZM67.1636 26.28C67.1716 25.776 67.0436 25.364 66.7796 25.044C66.5236 24.716 66.1676 24.552 65.7116 24.552C65.4556 24.552 65.2276 24.604 65.0276 24.708C64.8356 24.804 64.6716 24.932 64.5356 25.092C64.3996 25.252 64.2916 25.436 64.2116 25.644C64.1396 25.852 64.0916 26.064 64.0676 26.28H67.1636ZM70.9747 23.76H73.3387V24.696H70.9747V27.576C70.9747 27.888 70.9987 28.148 71.0467 28.356C71.0947 28.556 71.1667 28.716 71.2627 28.836C71.3587 28.948 71.4787 29.028 71.6227 29.076C71.7667 29.124 71.9347 29.148 72.1267 29.148C72.4627 29.148 72.7307 29.112 72.9307 29.04C73.1387 28.96 73.2827 28.904 73.3627 28.872L73.5787 29.796C73.4667 29.852 73.2707 29.92 72.9907 30C72.7107 30.088 72.3907 30.132 72.0307 30.132C71.6067 30.132 71.2547 30.08 70.9747 29.976C70.7027 29.864 70.4827 29.7 70.3147 29.484C70.1467 29.268 70.0267 29.004 69.9547 28.692C69.8907 28.372 69.8587 28.004 69.8587 27.588V22.02L70.9747 21.828V23.76Z" fill="white"/>
<path d="M15.46 0H13.0371V16.2884H15.46V0Z" fill="white"/>
<path d="M45.127 4.66241C45.9789 4.66241 46.7738 4.81367 47.5095 5.11619C48.2451 5.4187 48.8929 5.83184 49.4554 6.36011C50.0178 6.88613 50.4568 7.50019 50.7748 8.19779C51.0927 8.89764 51.2517 9.65167 51.2517 10.4644V16.2912H48.8289V10.4621C48.8289 9.97902 48.7339 9.52524 48.5441 9.10308C48.3543 8.68091 48.0909 8.30841 47.7539 7.99009C47.4169 7.67177 47.023 7.42118 46.5698 7.23831C46.1165 7.05771 45.6348 6.9674 45.127 6.9674C44.6191 6.9674 44.1421 7.05771 43.6984 7.23831C43.2523 7.41892 42.8631 7.66951 42.5285 7.99009C42.1915 8.31067 41.9305 8.68091 41.7383 9.10308C41.5484 9.52524 41.4535 9.97902 41.4535 10.4621V16.289H39.0306V10.4621C39.0306 9.97902 38.9357 9.52524 38.7459 9.10308C38.556 8.68091 38.2926 8.30841 37.9557 7.99009C37.6187 7.67177 37.2248 7.42118 36.7715 7.23831C36.3183 7.05771 35.8366 6.9674 35.3287 6.9674C34.8209 6.9674 34.3439 7.05771 33.9002 7.23831C33.4564 7.41892 33.0649 7.66951 32.7303 7.99009C32.3933 8.31067 32.1323 8.68091 31.94 9.10308C31.7502 9.52524 31.6553 9.97902 31.6553 10.4621V16.289H29.2324V10.4621C29.2324 9.65167 29.3914 8.89538 29.7094 8.19553C30.0274 7.49568 30.4617 6.88387 31.0169 6.35786C31.5699 5.83184 32.2177 5.41645 32.9628 5.11393C33.7056 4.81141 34.4958 4.66016 35.3311 4.66016C36.3468 4.66016 37.277 4.87237 38.1218 5.29454C38.9666 5.7167 39.669 6.29239 40.2314 7.01707C40.7938 6.29239 41.501 5.71896 42.3553 5.29454C43.2024 4.87237 44.1279 4.66241 45.127 4.66241Z" fill="white"/>
<path d="M61.7034 12.1965L63.4191 13.8287L62.5743 14.6324C61.9929 15.1855 61.3308 15.6077 60.588 15.9012C59.8429 16.1946 59.0646 16.3414 58.2482 16.3414C57.4319 16.3414 56.6512 16.1946 55.9084 15.9012C55.1633 15.6077 54.5012 15.1855 53.9222 14.6324C53.3242 14.0635 52.8781 13.4201 52.5886 12.7022C52.299 11.9865 52.1543 11.2573 52.1543 10.5146C52.1543 9.77183 52.299 9.04714 52.5886 8.34052C52.8781 7.6339 53.3242 6.995 53.9222 6.42383C54.5202 5.85492 55.1965 5.42598 55.9488 5.14153C56.701 4.85707 57.4675 4.71484 58.2482 4.71484C59.029 4.71484 59.7954 4.85707 60.5477 5.14153C61.2999 5.42598 61.9763 5.85266 62.5766 6.42383L63.4214 7.22753L56.6441 13.6752C57.3322 14.0025 58.0631 14.1109 58.8344 13.998C59.6056 13.8851 60.2819 13.5533 60.8609 13.0002L61.7034 12.1965ZM55.6332 8.02897C54.907 8.71979 54.5439 9.54833 54.5439 10.5146C54.5439 11.0496 54.6697 11.5598 54.926 12.043C55.1443 11.8353 55.4742 11.5215 55.9203 11.097C56.364 10.6749 56.8363 10.2256 57.3346 9.75151C57.833 9.27742 58.3147 8.82364 58.7774 8.39244C59.2402 7.96125 59.5985 7.62487 59.8524 7.3833C59.1619 7.05596 58.4333 6.94308 57.6621 7.04693C56.8909 7.14852 56.2145 7.47587 55.6332 8.02897Z" fill="white"/>
<path d="M77.0009 4.61163L70.6317 16.263L64.291 4.61163H67.0129C67.2668 5.07669 67.5563 5.60948 67.8838 6.20323C68.2113 6.79923 68.5364 7.402 68.8638 8.01606C69.1913 8.62787 69.5117 9.21935 69.8297 9.79052C70.1476 10.3594 70.4158 10.8516 70.6317 11.267C70.9046 10.7658 71.2179 10.1924 71.5715 9.54444C71.925 8.89652 72.2739 8.25537 72.6203 7.61421C72.9644 6.97532 73.2824 6.38383 73.5719 5.83976C73.8614 5.29568 74.0892 4.88706 74.253 4.60938H77.0009V4.61163Z" fill="white"/>
<path d="M20.7705 10.3709L21.2451 9.92163L20.5759 9.73425L19.9043 9.54688L20.1013 10.1858L20.2982 10.8224L20.7705 10.3709Z" fill="white"/>
<path d="M8.42672 10.4043C8.47655 10.5443 8.43384 11.041 7.89753 11.2171C7.36123 11.3932 6.83442 11.2803 6.71814 10.9597C6.60186 10.6414 6.9412 10.2395 7.47751 10.0612C8.01144 9.8851 8.37926 10.2666 8.42672 10.4043Z" fill="white"/>
<path d="M11.7465 8.24631C11.4285 7.54646 10.9895 6.93465 10.4271 6.40864C9.86468 5.88262 9.21684 5.46723 8.4812 5.16471C7.74556 4.86219 6.95297 4.71094 6.09868 4.71094C5.26338 4.71094 4.47553 4.86219 3.7304 5.16471C2.98527 5.46723 2.33743 5.88036 1.78452 6.40864C1.2316 6.93465 0.794965 7.54872 0.476979 8.24631C0.158993 8.94616 0 9.70019 0 10.5129V20.9994H2.42286V17.2699V16.3397V14.0347V10.5129C2.42286 10.0298 2.51778 9.57602 2.70762 9.15385C2.84289 8.85134 3.01849 8.57591 3.22732 8.32758L3.22257 8.32307C3.08019 8.24857 2.33269 8.06344 2.33269 8.06344C2.31133 8.34113 1.953 8.62107 1.953 8.62107C0.889885 9.47669 0.906497 8.74749 0.906497 8.74749C1.15329 8.00023 1.9886 7.34553 1.9886 7.34553C2.25675 6.98206 3.25105 7.76319 3.54056 8.00023C3.86566 7.69997 4.2406 7.46293 4.66775 7.28909C5.1115 7.10849 5.58848 7.01818 6.09631 7.01818C6.19835 7.01818 6.29802 7.0227 6.39768 7.02947L6.40006 7.01818C6.40006 7.01818 7.09535 5.45142 7.56759 5.71556C7.56759 5.71556 8.61172 5.97744 9.16464 6.5599C9.16464 6.5599 9.49923 7.21685 8.15847 6.86015C8.15847 6.86015 7.70997 6.74727 7.56759 6.50346C7.56759 6.50346 6.96958 6.96852 6.87229 7.09268C7.1001 7.13784 7.32316 7.20331 7.53911 7.28909C7.99236 7.4697 8.38628 7.72029 8.72325 8.04087C9.05785 8.36144 9.32125 8.73169 9.51347 9.15385C9.70331 9.57602 9.79823 10.0298 9.79823 10.5129C9.79823 10.996 9.70331 11.4543 9.51347 11.8855C9.32363 12.3167 9.06022 12.6915 8.72325 13.0121C8.38628 13.3326 7.99236 13.581 7.53911 13.7638C7.08586 13.9444 6.60414 14.037 6.09631 14.037H4.28094C4.04364 14.0709 3.49784 14.3598 3.5192 16.2901V16.342H6.09631C6.94823 16.342 7.74319 16.1907 8.47883 15.8882C9.21447 15.5857 9.86231 15.168 10.4247 14.633C10.9871 14.098 11.4261 13.4771 11.7441 12.7682C12.0621 12.0616 12.2211 11.3098 12.2211 10.5152C12.2211 9.70019 12.0621 8.94616 11.7465 8.24631Z" fill="white"/>
<path d="M28.0746 8.19553C27.7566 7.49568 27.3224 6.88387 26.7671 6.35786C26.2142 5.83184 25.5687 5.41645 24.8354 5.11393C24.0998 4.81141 23.3072 4.66016 22.4529 4.66016C21.6176 4.66016 20.8298 4.81141 20.0846 5.11393C19.3395 5.41645 18.6869 5.82958 18.1245 6.35786C17.5621 6.88387 17.1207 7.49794 16.8051 8.19553C16.4871 8.89538 16.3281 9.64941 16.3281 10.4621C16.3281 11.2568 16.4871 12.0063 16.8051 12.7152C17.1231 13.4241 17.5621 14.0449 18.1245 14.58C18.6869 15.115 19.3395 15.5349 20.0846 15.8352C20.8274 16.1377 21.6176 16.289 22.4529 16.289H25.03V16.2415C25.0561 13.7808 24.1615 13.9885 24.1615 13.9885L24.1639 13.984H22.4529C21.9451 13.984 21.4634 13.8937 21.0101 13.7108C20.5569 13.5302 20.1606 13.2796 19.826 12.959C19.489 12.6407 19.228 12.2637 19.0358 11.8325C18.8459 11.4013 18.751 10.943 18.751 10.4599C18.751 9.97676 18.8459 9.52299 19.0358 9.10082C19.2256 8.67865 19.489 8.30615 19.826 7.98783C20.1606 7.66951 20.5569 7.41892 21.0101 7.23606C21.2973 7.12092 21.5939 7.04416 21.9024 7.00127L22.8373 5.50675L23.4615 7.09609C23.6038 7.13447 23.7438 7.17962 23.8791 7.23606C24.114 7.33313 24.3347 7.44827 24.5388 7.58372L26.124 6.7281V10.3741L26.1216 10.3696C26.1216 10.3989 26.124 10.4305 26.124 10.4599V13.9817H26.1193L26.124 13.9862V16.2867H28.5469V10.4621C28.5516 9.64941 28.3926 8.89538 28.0746 8.19553Z" fill="white"/>
</svg>
