<svg width="657" height="673" viewBox="0 0 657 673" fill="none" xmlns="http://www.w3.org/2000/svg">
<g filter="url(#filter0_d_14390_38599)">
<path d="M228.509 96.6572C227.291 98.4099 229.514 100.099 229.813 100.398C230.112 100.697 229.578 101.616 227.056 103.54C224.534 105.464 223.016 104.908 223.016 104.908L219.04 101.381C218.219 100.569 217.591 99.5827 217.202 98.4954L213.547 99.4146L210.725 101.167L208.737 103.54C208.584 105.586 208.305 107.62 207.904 109.632C207.369 111.769 209.571 116.28 209.571 116.28C209.126 115.541 208.641 114.827 208.117 114.142C206.675 113.644 205.195 113.258 203.693 112.988C203.693 112.988 199.867 109.162 199.268 108.713C198.67 108.264 192.856 102.685 192.856 102.685L194.758 101.851C194.899 101.801 195.028 101.724 195.138 101.623C195.249 101.523 195.339 101.402 195.402 101.267C195.466 101.132 195.502 100.985 195.509 100.836C195.516 100.687 195.493 100.538 195.442 100.398L198.499 95.3533L198.114 92.831L194.523 88.556C194.217 85.656 193.63 82.7926 192.77 80.006C191.402 75.731 193.155 76.7997 193.155 76.7997C193.155 76.7997 193.689 74.876 193.924 73.8927C194.16 72.9095 190.483 66.6252 190.483 66.6252C189.703 65.4696 188.99 64.2706 188.346 63.0342C188.224 62.6686 188.204 62.2769 188.286 61.9007C188.369 61.5244 188.552 61.1775 188.816 60.8967C188.816 60.8967 190.12 59.208 190.184 58.9943C189.761 57.9843 189.253 57.0118 188.666 56.0873L185.909 55.7667L184.006 55.2323L182.553 54.0139L181.634 52.881L179.796 52.539C179.796 52.539 177.316 54.1208 176.675 54.3773C176.034 54.6338 172.613 55.9376 171.459 56.5148C170.067 56.9322 168.634 57.1974 167.184 57.3057L166.137 61.3242L163.786 63.4617L163.166 65.1503C162.044 65.3422 160.904 65.4138 159.767 65.3641L157.223 66.2191L153.397 68.9764L152.329 68.1215L149.144 71.7339L146.6 73.6362L145.125 75.56L142.368 77.6975C142.24 76.7828 142.24 75.8548 142.368 74.9401C142.492 74.1684 142.492 73.3819 142.368 72.6102L140.658 73.4652L135.357 76.6287C134.347 77.0321 133.252 77.179 132.172 77.0562C132.172 77.0562 128.987 76.0088 127.897 75.5813C126.587 74.7275 125.375 73.731 124.284 72.6102L121.527 69.6391L116.44 69.4253V63.4831L117.081 59.6569L114.11 58.5882L113.041 56.8995L112.614 51.3848L108.809 53.7146L107.099 54.5697L104.961 57.1133L100.066 57.5408L97.929 56.0445L98.784 60.9394H95.1716C95.1716 60.9394 80.3159 60.2982 77.7723 60.2982C75.2286 60.2982 71.3597 60.7257 71.3597 60.7257L71.4666 71.2636L72.4926 71.5201L77.1951 71.1354C78.5336 71.4015 79.8434 71.7951 81.1068 72.311C82.1122 73.6103 82.9858 75.0066 83.7145 76.4791C83.7145 76.8639 83.5863 77.9112 82.0259 79.2151C80.4655 80.519 77.5799 79.0868 77.5799 79.0868L73.7965 78.9586L67.9397 80.9251V92.7883L76.276 99.2008L75.6348 102.856C75.6348 102.856 78.8838 108.328 78.8838 110.017C78.8838 111.705 69.5001 162.364 69.5001 162.364L67.3626 163.027C65.9515 162.976 64.5517 162.754 63.1944 162.364C61.4507 161.643 59.6038 161.203 57.7224 161.06C56.4186 161.06 55.3712 162.77 52.6352 164.331C49.8992 165.891 41.4133 166.148 38.6773 166.468C35.9413 166.789 24.9758 175.211 22.7742 176.792C20.5726 178.374 18.8625 186.946 18.7129 187.352C18.5633 187.758 16.383 189.831 15.5922 191.263C14.8013 192.695 16.2334 196.479 17.1525 199.087C18.0717 201.694 12.7706 202.977 12.7706 202.977C12.7706 202.977 7.6834 206.375 7.14902 207.936C7.02734 208.664 7.08222 209.412 7.3091 210.115C7.53598 210.817 7.92822 211.456 8.45287 211.976C8.4933 212.036 8.5149 212.106 8.5149 212.179C8.5149 212.251 8.4933 212.322 8.45287 212.382C11.8088 214.263 16.383 216.785 17.2808 217.149C18.777 217.704 24.5911 219.991 24.5911 219.991L37.2451 222.279C37.2451 222.279 55.6063 227.964 58.4492 228.199C61.2921 228.435 65.3961 231.171 66.4221 231.513C67.4481 231.855 90.7042 243.825 94.5945 245.535C98.4847 247.245 113.511 252.824 113.511 252.824L119.561 257.099C119.561 257.099 120.394 257.099 121.548 257.099C122.897 256.416 124.178 255.607 125.375 254.683C126.822 253.367 127.898 251.694 128.495 249.831L135.806 250.707C135.806 250.707 137.003 253.294 138.221 252.61C139.127 252.011 139.946 251.292 140.658 250.472L143.266 251.349L143.608 247.886C143.608 247.886 147.092 248.228 147.883 248.228C148.673 248.228 149.272 249.788 149.272 249.788C149.272 249.788 148.417 252.225 149.614 251.349C151.014 250.04 152.294 248.61 153.44 247.074L153.269 243.076L164.555 242.905L166.286 238.224C166.286 238.224 168.723 237.519 169.236 235.959C169.607 234.303 169.786 232.611 169.771 230.914C169.771 230.914 171.502 231.79 172.378 230.743C173.417 229.133 174.345 227.455 175.157 225.72L187.469 226.062C188.769 228.176 190.351 230.103 192.172 231.79C194.309 233.351 195.292 233.18 195.292 233.18L195.805 235.788L197.943 237.177L200.08 240.127L201.833 240.298L202.859 240.64L207.134 237.519L209.721 239.763H260.337C260.273 238.988 260.166 238.218 260.016 237.455C260.241 235.795 260.606 234.158 261.106 232.56L261.705 229.632C261.34 227.81 261.083 225.969 260.935 224.117C260.935 222.578 261.705 223.027 262.325 222.108C262.945 221.188 265.232 214.284 265.232 214.284C265.232 214.284 264.163 212.147 263.393 210.907C262.624 209.667 259.118 204.494 259.118 204.494L263.393 199.728C263.393 199.728 293.169 132.225 293.618 130.857C294.235 129.386 294.949 127.958 295.755 126.582C294.573 126.562 293.395 126.455 292.228 126.262C291.418 126.828 290.543 127.295 289.621 127.651C288.851 127.801 288.851 126.112 288.851 126.112L287.932 124.274C286.737 123.716 285.501 123.252 284.234 122.884C282.866 122.585 283.016 120.426 283.016 120.426C283.016 120.426 280.109 119.358 277.95 118.759C276.192 118.152 274.496 117.379 272.884 116.451L268.288 114.142L268.908 111.684L267.519 108.478C266.971 108.781 266.455 109.139 265.98 109.546C265.531 109.995 264.761 109.995 263.372 110.316C261.983 110.636 262.453 110.166 261.384 109.546C260.315 108.926 260.615 107.708 260.465 106.618C260.315 105.528 258.477 103.711 258.477 103.711L255.25 101.103C255.023 100.248 254.865 99.376 254.779 98.4954C254.779 97.7259 252.642 95.2678 252.642 95.2678V85.2215H234.003C234.003 85.2215 229.728 94.9044 228.509 96.6572Z" fill="#ED8C24"/>
<path d="M454.508 104.653C452.947 103.605 447.475 101.126 447.475 101.126L436.638 99.3089C432.876 98.6463 433.389 101.446 432.363 101.446C430.322 100.85 428.316 100.136 426.357 99.3089C426.121 98.5466 425.991 97.7554 425.972 96.9577C426.117 95.9971 426.524 95.095 427.148 94.3499C427.148 94.3499 424.54 93.9652 424.027 93.9652C423.056 93.9075 422.091 93.7716 421.141 93.559C419.709 93.3025 415.284 92.2552 414.109 92.2552C412.933 92.2552 409.834 88.6214 408.508 87.4458C407.383 86.3181 406.413 85.0458 405.623 83.6624C404.982 82.615 404.982 83.6624 403.485 84.5602C401.989 85.4579 399.424 84.3036 399.424 84.3036C399.424 84.3036 399.424 83.7906 399.574 81.9524C399.723 80.1141 397.607 78.5751 397.607 78.5751L399.039 77.143L400.471 74.6635L399.681 76.0315L397.971 76.4162C396.926 76.8001 395.93 77.3022 394.999 77.9125C394.444 78.4683 393.14 79.2164 392.584 79.7721C392.028 80.3279 392.776 81.8027 392.776 81.8027C391.962 82.9569 391.023 84.0177 389.976 84.9663C388.941 86.1011 388.129 87.4209 387.582 88.8565C387.39 89.4123 381.448 90.3314 381.448 90.3314C381.448 90.3314 380.721 91.2719 379.973 92.4689C379.016 93.6106 377.957 94.6624 376.809 95.6111C376.032 96.494 375.404 97.4975 374.95 98.5822C374.394 99.6937 374.223 100.078 373.667 101.361C373.355 102.034 373.166 102.758 373.111 103.498C372.855 104.585 372.656 105.683 372.513 106.79C372.513 107.346 371.401 108.286 371.401 108.286L369.905 109.59L367.126 109.954H365.267L361.932 109.398L361.74 107.26L359.709 106.149L358.769 102.814L357.85 100.955L356.93 98.8173C356.867 97.6889 356.681 96.5708 356.375 95.4828C355.689 94.6459 354.873 93.9243 353.959 93.3453C352.792 92.4804 351.786 91.4168 350.988 90.2032C350.24 88.7069 348.573 85.7358 348.573 85.7358L348.209 81.8455L349.513 78.7034L344.875 74.9841L343.379 72.8466C343.379 72.8466 343.186 70.2388 343.015 69.1273C342.844 68.0158 340.236 65.6004 340.236 65.6004L335.961 64.8737C334.729 64.7153 333.535 64.3389 332.435 63.7622L328.544 60.5987L326.129 59.4872L322.046 59.2948L321.854 57.1573L320.187 52.8823L321.191 48.2866L323.885 49.7829L319.823 47.6454C319.823 47.6454 318.926 47.2392 317.087 46.598C316.425 46.4425 315.739 46.419 315.068 46.5291C314.396 46.6391 313.753 46.8804 313.176 47.2393C310.994 48.2373 308.66 48.8589 306.271 49.0775C305.306 49.2116 304.322 49.0605 303.441 48.6428C302.56 48.225 301.82 47.5589 301.312 46.7262L298.705 50.3814C299.945 51.4456 301.122 52.5803 302.232 53.78C302.596 54.0119 302.882 54.3489 303.052 54.7466C303.221 55.1442 303.266 55.5839 303.18 56.0076C303.094 56.4312 302.882 56.819 302.572 57.1196C302.261 57.4203 301.867 57.6197 301.441 57.6917C300.3 57.7786 299.153 57.6848 298.042 57.4138C296.738 57.1573 293.361 56.7725 291.63 56.516C289.934 56.3995 288.23 56.4424 286.542 56.6443C286.542 56.6443 281.455 55.7252 280.429 55.5969C279.403 55.4687 278.719 56.516 278.078 57.029C277.436 57.542 275.47 61.3041 274.679 61.3041C273.888 61.3041 272.542 59.3589 272.071 59.1665C271.601 58.9742 268.951 61.5178 268.544 62.159C268.138 62.8003 266.599 63.5912 266.065 63.3347C265.211 62.7895 264.213 62.5139 263.201 62.5438C262.147 62.6972 261.105 62.9186 260.08 63.2064C260.08 63.2064 260.593 65.6859 259.823 66.7333C259.054 67.7807 257.344 66.6051 256.681 66.7333C256.019 66.8616 254.544 68.8708 254.544 68.8708C253.902 68.2232 253.185 67.6562 252.406 67.1822L252.705 67.3532V95.1408C252.705 95.1408 254.843 97.5989 254.843 98.3684C254.929 99.249 255.086 100.121 255.313 100.976L258.541 103.584C258.541 103.584 260.379 105.422 260.529 106.491C260.678 107.56 260.379 108.799 261.448 109.419C262.517 110.039 262.068 110.488 263.436 110.189C264.804 109.89 265.573 109.868 266.044 109.419C266.519 109.012 267.035 108.654 267.583 108.351L268.972 111.557L268.352 114.015L272.948 116.324C274.559 117.252 276.256 118.025 278.014 118.632C280.151 119.231 283.08 120.299 283.08 120.299C283.08 120.299 282.93 122.437 284.298 122.757C285.564 123.125 286.801 123.589 287.996 124.147L288.915 125.985C288.915 125.985 288.915 127.674 289.684 127.524C290.607 127.168 291.482 126.701 292.292 126.135C293.458 126.328 294.637 126.435 295.819 126.455C295.012 127.831 294.298 129.259 293.682 130.73C293.233 132.098 263.457 199.601 263.457 199.601L259.182 204.367C259.182 204.367 262.709 209.583 263.457 210.78C264.205 211.977 265.295 214.157 265.295 214.157C265.295 214.157 265.295 214.478 265.039 214.948H265.146L266.3 215.653L268.63 217.043L270.767 223.99L272.627 227.453C273.382 228.182 274.096 228.952 274.765 229.761C275.47 230.702 274.316 232.091 274.081 233.929C273.845 235.767 275 235.789 275 235.789C275.705 236.244 276.268 236.888 276.624 237.648C277.095 238.803 278.933 239.487 279.638 239.786C280.343 240.085 281.028 241.41 281.947 243.484C282.866 245.557 284.084 244.189 284.961 244.189C285.837 244.189 288.894 249.747 288.894 249.747L396.09 258.083L397.137 256.116C397.989 254.483 398.704 252.781 399.274 251.029C399.93 249.274 400.791 247.602 401.839 246.049C401.839 246.049 403.977 242.094 404.255 241.517C405.721 240.363 407.272 239.32 408.893 238.397L410.86 234.357L413.874 226.127C413.875 225.356 413.833 224.585 413.745 223.819C413.067 222.251 412.259 220.742 411.33 219.309C410.047 216.872 411.33 217.684 411.565 216.979C411.8 216.273 413.297 214.328 413.403 213.965C413.51 213.601 413.98 207.723 413.98 207.723L415.37 205.992L420.243 204.709L422.21 203.213L423.022 201.076C423.735 200.495 424.509 199.993 425.331 199.579C427.19 198.532 426.378 197.613 426.378 197.613L427.532 195.475L428.922 190.495L430.076 187.374C430.076 187.374 430.076 186.455 429.392 186.327C428.708 186.199 428.216 183.783 428.216 183.783L421.804 180.898L423.407 179.38L426.186 177.413L435.569 169.077L437.707 168.393L442.089 165.379C442.481 164.198 442.945 163.041 443.478 161.917C443.842 161.446 447.197 156.701 447.197 156.701C447.987 155.96 448.703 155.144 449.335 154.264C449.467 153.115 449.538 151.959 449.549 150.802C450.856 148.788 452.329 146.886 453.952 145.116L455.47 140.734L456.282 136.673L459.061 133.659L459.403 129.833L461.134 127.417L463.1 124.403L461.946 119.765C462.577 119.373 463.159 118.907 463.678 118.376C464.148 117.798 464.02 115.939 464.02 115.939L464.447 108.393C463.072 107.584 461.644 106.87 460.172 106.256C458.212 106.021 456.3 105.48 454.508 104.653Z" fill="#ED8C24"/>
<path d="M526.414 135.497L521.177 134.599C521.177 134.599 514.935 131.329 513.888 130.816C512.302 130.471 510.672 130.377 509.057 130.538C508.544 130.538 506.706 127.417 506.321 127.417C504.578 128.887 502.923 130.457 501.362 132.12L495.89 132.248C495.89 132.248 493.753 131.2 493.282 130.11C492.812 129.02 487.661 118.247 486.87 116.409C486.37 115.574 485.663 114.883 484.816 114.403C483.969 113.923 483.012 113.672 482.039 113.673C480.273 114.681 478.612 115.862 477.08 117.2C476.489 115.792 475.774 114.44 474.943 113.16C473.307 111.995 471.441 111.193 469.47 110.809C467.672 110.226 465.939 109.46 464.298 108.521H464.426L463.998 116.067C463.998 116.067 464.127 117.927 463.657 118.504C463.138 119.035 462.556 119.502 461.925 119.893L463.079 124.531L461.113 127.545L459.381 129.961L459.039 133.787L456.261 136.801L455.448 140.862L453.931 145.244C452.308 147.014 450.835 148.916 449.528 150.93C449.517 152.087 449.446 153.243 449.314 154.392C448.682 155.272 447.966 156.088 447.176 156.829C447.176 156.829 443.82 161.574 443.457 162.045C442.924 163.17 442.46 164.326 442.068 165.507L437.686 168.521L435.548 169.205L426.165 177.542L425.887 177.755C426.618 178.371 427.521 178.744 428.473 178.824C431.743 179.166 433.603 179.273 433.603 179.273H434.993L436.403 180.278L438.113 182.415L440.614 183.27L441.875 184.125L443.307 190.944C443.484 192.19 443.584 193.447 443.607 194.706C443.513 195.572 443.47 196.443 443.478 197.314L442.965 200.028L441.683 206.633L441.17 209.006L439.246 210.694L437.28 211.955C437.28 211.955 437.835 213.409 438.626 213.494C439.417 213.58 441.833 213.494 442.004 214.456C442.175 215.418 441.213 216.786 441.213 216.786L445.744 222.344L448.779 227.132C448.779 227.132 449.912 228.35 451.558 226.875C453.204 225.4 453.803 224.952 453.803 224.952L458.334 224.61L459.189 226.255V228.778L457.971 231.214L454.935 232.86L453.119 234.421L451.302 241.026C450.806 241.604 450.278 242.153 449.72 242.672C449.378 242.928 449.463 243.804 449.463 243.804C450.525 244.645 451.538 245.544 452.499 246.498C452.777 247.335 453.188 248.122 453.717 248.828C454.251 249.276 456.774 251.521 456.774 251.521C456.774 251.521 458.056 253.081 457.885 253.658C457.376 254.505 456.766 255.288 456.068 255.988C456.767 256.593 457.405 257.266 457.971 257.997C458.574 259.366 459.011 260.801 459.275 262.272L463.699 264.26L465.965 264.709H468.744C468.744 264.709 469.706 258.19 469.62 257.57C469.687 256.266 469.83 254.967 470.048 253.68L471.009 250.538L468.658 247.331L467.696 243.783L467.525 241.09L471.351 234.057L474.13 226.939L475.862 221.467L477.337 219.544C479.314 218.555 481.348 217.685 483.428 216.936C486.113 216.1 488.635 214.813 490.888 213.131C493.008 211.479 495.007 209.679 496.873 207.745C497.044 207.403 498.434 204.709 499.225 204.538C500.015 204.367 503.991 204.175 505.039 204.089C506.086 204.004 506.941 204.88 507.988 205.222C509.036 205.564 508.95 205.928 510.511 205.735C512.071 205.543 515.448 206.099 516.496 204.88C517.467 203.383 518.256 201.776 518.847 200.092L518.676 196.972L517.287 195.582C517.287 195.582 513.717 190.474 514.144 187.78C514.845 185.575 516.07 183.573 517.714 181.945C518.294 181.404 518.744 180.737 519.029 179.997C519.314 179.256 519.427 178.461 519.36 177.67C519.189 174.891 517.116 171.086 517.629 169.12C518.142 167.153 520.578 166.085 518.419 164.182C516.261 162.28 514.593 162.878 516.752 160.976C518.592 159.651 520.034 157.847 520.92 155.76C521.369 154.115 522.139 151.592 522.139 151.592L525.537 148.985C526.302 148.446 527.193 148.114 528.124 148.023C529.042 147.867 529.971 147.781 530.902 147.766C530.902 147.766 533.04 144.902 534.472 143.171C535.199 142.292 535.864 141.364 536.46 140.392L536.353 136.117L536.225 135.988L526.414 135.497Z" fill="#ED8C24"/>
<path d="M465.773 264.731L463.507 264.282L459.083 262.294C458.82 260.823 458.382 259.387 457.779 258.019C457.213 257.288 456.575 256.615 455.877 256.01C456.574 255.31 457.184 254.527 457.693 253.68C457.864 253.06 456.582 251.543 456.582 251.543C456.582 251.543 454.06 249.405 453.525 248.849C452.996 248.144 452.585 247.357 452.307 246.52C451.346 245.566 450.333 244.667 449.272 243.826C449.272 243.826 449.272 242.95 449.528 242.693C450.086 242.175 450.614 241.626 451.11 241.048L452.927 234.443L454.744 232.882L457.779 231.236L458.997 228.8V226.277L458.142 224.632L453.611 224.974C453.611 224.974 453.012 225.401 451.366 226.897C449.721 228.394 448.588 227.154 448.588 227.154L445.552 222.366L441.021 216.808C441.021 216.808 441.983 215.333 441.812 214.478C441.641 213.623 439.204 213.602 438.434 213.516C437.665 213.431 437.088 211.977 437.088 211.977L439.054 210.716L440.978 209.028L441.491 206.655L442.774 200.05L443.287 197.336C443.278 196.465 443.321 195.594 443.415 194.728C443.392 193.469 443.292 192.212 443.116 190.966L441.683 184.147L440.422 183.292L437.921 182.437L436.211 180.3L434.801 179.295H433.411C433.411 179.295 431.552 179.295 428.281 178.846C427.329 178.766 426.426 178.393 425.695 177.777L423.194 179.53L421.591 181.048L428.003 183.933C428.003 183.933 428.602 186.37 429.179 186.477C429.756 186.584 429.863 187.524 429.863 187.524L428.709 190.645L427.319 195.626L426.165 197.763C426.165 197.763 426.977 198.682 425.118 199.73C424.296 200.143 423.522 200.645 422.809 201.226L421.997 203.363L420.031 204.86L415.157 206.142L413.768 207.873C413.768 207.873 413.319 213.773 413.191 214.115C413.062 214.457 411.566 216.445 411.352 217.129C411.139 217.813 409.835 217.022 411.117 219.459C412.046 220.892 412.854 222.401 413.533 223.969C413.62 224.735 413.663 225.506 413.661 226.277L410.647 234.507L408.68 238.547C407.059 239.47 405.508 240.513 404.042 241.667C403.7 242.245 401.627 246.199 401.627 246.199C400.578 247.752 399.717 249.424 399.062 251.179C398.491 252.931 397.776 254.633 396.924 256.267L395.877 258.233L395.385 259.452L395.15 262.487L393.504 266.334L391.644 269.84L389.785 277.877L389.079 284.524C389.079 284.524 388.951 288.949 388.951 290.36C388.951 291.771 389.421 297.82 389.421 297.82L389.657 300.983L389.421 304.232L390.832 309.255L390.533 308.229C391.37 307.654 392.095 306.929 392.67 306.092C393.474 304.809 394.461 303.649 395.599 302.651L397.736 301.646L395.428 308.336L398.036 309.854L401.883 311.607L407.654 313.744L410.925 315.454L413.062 310.11L414.815 309.277L415.927 310.709L418.064 310.581C418.064 310.581 419.24 309.149 419.282 309.02C419.325 308.892 419.924 308.55 419.924 308.55L423.964 313.402L425.78 315.54L427.918 315.668L430.568 314.45L432.129 316.095C432.129 316.095 432.129 316.309 434.865 316.673C437.601 317.036 436.682 315.005 437.558 316.844C438.434 318.682 438.071 319.366 438.606 319.708C439.14 320.05 440.743 315.155 440.743 315.155C441.601 315.873 442.706 316.226 443.821 316.138C445.698 315.798 447.523 315.216 449.25 314.407L453.525 311.714H462.075L462.417 307.31L463.593 304.617L463.272 303.014L461.562 300.107L461.113 295.148L460.9 292.348L461.349 289.975L463.059 287.709L462.31 287.389L459.831 286.854L456.924 283.285L457.351 282.109C457.351 282.109 459.083 279.202 459.831 278.112C460.579 277.022 461.113 275.205 461.776 274.243C462.635 273.17 463.61 272.195 464.683 271.336C465.324 270.802 468.659 269.07 468.958 268.857C469.745 267.824 470.459 266.739 471.096 265.608L468.958 264.71L465.773 264.731Z" fill="#ED8C24"/>
<path d="M275.191 394.113C277.564 394.349 277.222 394.947 279.082 394.113C279.992 393.637 280.926 393.209 281.882 392.831L283.485 392.489L287.76 387.487L289.363 385.798L293.339 385.029C293.339 385.029 296.737 383.853 297.614 383.34C298.49 382.827 300.222 384.024 300.222 384.024C300.222 384.024 305.907 384.858 307.446 386.311C308.73 387.447 310.087 388.496 311.508 389.454C312.954 390.211 314.455 390.861 315.996 391.399C317.093 391.057 318.17 390.658 319.224 390.202C320.143 389.945 322.345 389.197 322.345 389.197C322.345 389.197 323.029 388.171 323.542 388.171C324.312 388.157 325.081 388.243 325.829 388.428C326.085 388.599 327.689 390.116 327.966 390.373C328.397 390.673 328.855 390.93 329.334 391.142C329.334 391.142 331.28 391.484 331.964 390.373C332.897 389.199 333.911 388.092 334.999 387.06C335.255 386.739 337.714 384.922 337.714 384.922L338.569 384.259L339.253 387.637L338.911 390.608L338.654 391.548L336.623 392.981L335.341 394.84L335.512 395.61C337.819 396.502 340.247 397.043 342.715 397.213C344.014 397.044 345.329 397.044 346.627 397.213H349L347.204 391.89L346.798 387.808L347.29 382.464L351.201 378.189L355.754 372.931C355.989 371.861 356.146 370.775 356.224 369.682C356.224 368.634 355.626 368.634 356.459 367.801C357.105 367.206 357.823 366.696 358.597 366.283L361.76 363.846C362.193 363.135 362.786 362.534 363.492 362.094L364.539 361.516L369.562 359.999L372.021 355.916L372.363 351.94L373.645 348.905L375.398 347.387L377.257 346.575H380.421C381.776 344.134 382.865 341.554 383.67 338.88C383.798 337.127 384.952 331.997 384.952 331.997C385.853 330.473 386.523 328.823 386.94 327.103C386.833 326.055 386.235 323.597 386.235 323.597C387.168 322.22 388.024 320.793 388.8 319.322C388.8 318.98 389.74 315.368 390.211 313.615C390.681 311.862 391.258 310.344 391.258 310.344L390.916 309.532L389.505 304.509L389.74 301.26L389.505 298.097C389.505 298.097 389.035 292.026 389.035 290.637C389.035 289.247 389.163 284.801 389.163 284.801L389.869 278.154L391.728 270.117L393.588 266.611L395.234 262.764L395.469 259.728L395.961 258.51L288.765 250.174C288.765 250.174 285.751 244.616 284.832 244.616C283.912 244.616 282.694 246.005 281.818 243.911C280.941 241.816 280.193 240.448 279.509 240.213C278.825 239.978 276.966 239.294 276.495 238.075C276.139 237.315 275.576 236.671 274.871 236.216C274.871 236.216 273.717 236.216 273.952 234.356C274.187 232.496 275.341 231.128 274.636 230.188C273.967 229.379 273.253 228.609 272.498 227.879L270.639 224.417L268.501 217.47L266.171 216.08L265.017 215.375H264.91C264.156 217.766 263.271 220.114 262.259 222.407C261.64 223.327 260.87 222.878 260.87 224.417C261.018 226.268 261.275 228.11 261.64 229.931L261.041 232.86C260.54 234.458 260.176 236.095 259.951 237.755C260.101 238.518 260.208 239.288 260.272 240.063H209.805V242.842L208.074 247.865C207.85 247.961 207.651 248.105 207.491 248.287C207.331 248.47 207.214 248.686 207.148 248.92C207.083 249.154 207.07 249.399 207.112 249.638C207.154 249.877 207.249 250.104 207.39 250.302C208.416 251.862 209.976 254.577 209.976 254.577L209.121 258.403C209.063 259.392 208.949 260.377 208.779 261.353C208.593 262.327 208.472 263.312 208.416 264.303C208.794 265.375 209.087 266.476 209.292 267.594C209.292 268.3 209.463 274.712 209.463 274.712L209.292 277.683H226.392C227.548 278.686 228.914 279.416 230.389 279.821C231.779 279.821 233.852 279.992 233.852 279.992C233.852 279.992 235.434 282.771 235.241 283.818C235.049 284.865 233.51 286.597 233.104 287.452C232.635 288.026 232.324 288.712 232.2 289.443C232.076 290.173 232.145 290.924 232.399 291.62C232.889 293.02 233.535 294.36 234.322 295.617C234.322 295.617 239.88 300.491 238.832 301.346C237.785 302.201 235.177 304.124 235.177 304.124C234.626 304.225 234.121 304.499 233.737 304.907C233.352 305.314 233.108 305.834 233.04 306.39C232.869 308.292 232.527 309.169 232.527 310.558C232.527 311.948 230.389 313.508 230.389 313.508L227.952 319.065C227.559 319.643 227.092 320.168 226.563 320.626C226.05 320.968 224.661 322.015 224.661 322.015L221.903 323.661L220.835 322.956L227.097 327.124C227.48 327.462 227.73 327.926 227.8 328.431C227.871 328.937 227.758 329.451 227.482 329.881C227.009 331.35 226.877 332.907 227.097 334.434C227.675 336.019 228.39 337.549 229.235 339.008C230.005 340.056 230.539 348.007 230.539 348.007H225.195C226.627 348.52 230.924 353.736 230.924 353.736V368.485H261.832C261.832 368.485 261.447 371.349 261.191 372.396C260.287 375.032 259.973 377.834 260.272 380.604C260.528 386.076 265.102 386.739 266.278 388.299C267.454 389.86 270.831 389.347 270.831 389.347C271.561 390.971 272.085 392.68 272.391 394.434C273.316 394.263 274.252 394.156 275.191 394.113Z" fill="#ED8C24"/>
<path d="M391.259 310.045C391.259 310.045 390.682 311.563 390.211 313.316C389.741 315.069 388.801 318.681 388.801 319.023C388.025 320.494 387.168 321.921 386.236 323.298C386.236 323.298 386.834 325.756 386.941 326.804C386.524 328.524 385.854 330.174 384.953 331.698C384.953 331.698 383.799 336.828 383.671 338.581C382.865 341.255 381.776 343.835 380.422 346.276H377.258L375.398 347.089L373.646 348.606L372.363 351.641L372.021 355.617L369.563 359.7L364.54 361.217L363.492 361.795C362.786 362.235 362.193 362.836 361.761 363.547L358.598 365.984C357.824 366.397 357.105 366.907 356.46 367.502C355.626 368.335 356.225 368.335 356.225 369.383C356.147 370.476 355.99 371.562 355.755 372.632L351.138 377.933L347.226 382.208L346.734 387.552L347.141 391.634L348.936 396.957H347.632C347.971 397.524 348.23 398.135 348.402 398.773C348.435 399.913 348.549 401.049 348.744 402.172L350.646 402.407L352.783 402.279L353.574 402.407L354.13 403.519L353.019 404.78C353.019 404.78 351.758 405.336 351.758 406.02V407.708L357.187 409.076H360.692L363.856 412.582L372 414.954L379.011 417.776C380.961 418.993 382.845 420.313 384.654 421.73C384.747 421.924 384.826 422.124 384.889 422.329L387.155 422.03V418.46L389.292 416.814C389.738 416.674 390.174 416.503 390.596 416.301C390.874 416.13 391.216 414.997 392.263 413.522C393.311 412.047 394.764 409.696 394.764 409.696C394.764 409.696 396.325 409.012 397.457 408.649C398.9 408.138 400.379 407.738 401.882 407.452C403.271 407.259 407.098 405.613 407.803 405.442C408.508 405.271 410.667 407.58 410.667 407.58L411.608 407.046C412.057 406.789 412.741 406.105 414.301 404.908C415.445 404.111 416.752 403.578 418.127 403.348L422.21 403.241L428.815 402.813L434.885 405.25L444.867 398.047V397.085L444.525 394.392C444.525 394.392 445.038 392.04 445.124 391.698C445.123 390.947 445.066 390.197 444.953 389.454L442.815 388.92C440.678 388.407 440.678 387.701 440.977 386.59C441.276 385.478 443.756 384.067 443.756 384.067L446.813 381.716C447.153 380.859 447.327 379.945 447.326 379.023C447.326 377.804 444.632 374.94 444.632 374.94L442.495 371.563L443.799 369.425C444.455 368.695 445.016 367.883 445.466 367.01C445.683 366.382 445.855 365.739 445.979 365.086C446.414 364.337 446.907 363.622 447.454 362.949C448.33 361.816 452.669 362.158 452.669 362.158L452.135 359.636L451.451 356.515L451.109 354.164L452.669 352.176L451.365 348.606L453.011 346.469L455.149 347.067C457.286 347.687 457.286 346.469 457.286 346.469L457.628 343.262L458.676 340.911L459.894 342.386C460.457 342.732 460.956 343.173 461.369 343.69C461.967 344.459 464.661 344.737 465.452 344.994C466.242 345.25 466.413 345.25 466.328 341.339C466.178 340.309 466.263 339.258 466.578 338.266C466.893 337.273 467.428 336.365 468.145 335.61C468.487 335.354 463.271 331.014 463.271 331.014L462.502 328.065C462.502 328.065 462.502 325.2 462.673 324.068C462.844 322.935 463.1 321.93 463.1 321.93L463.549 319.686L462.053 318.467L461.711 316.544V311.82H453.161L448.886 314.513C447.158 315.322 445.334 315.904 443.457 316.244C442.341 316.332 441.236 315.979 440.379 315.261C440.379 315.261 438.818 320.156 438.241 319.814C437.664 319.472 438.049 318.767 437.194 316.95C436.339 315.133 437.194 317.121 434.5 316.779C431.807 316.437 431.764 316.202 431.764 316.202L430.204 314.556L427.554 315.774L425.416 315.646L423.599 313.508L419.559 308.656C419.559 308.656 418.961 308.998 418.918 309.126C418.875 309.255 417.7 310.687 417.7 310.687L415.562 310.815L414.451 309.383L412.698 310.217L410.56 315.56L407.29 313.85L401.519 311.713L397.671 309.96L395.063 308.442L397.372 301.752L395.234 302.757C394.096 303.755 393.11 304.915 392.306 306.198C391.73 307.035 391.006 307.76 390.169 308.336L390.468 309.361L391.259 310.045Z" fill="#ED8C24"/>
<path d="M605.223 287.217C604.347 287.217 602.615 286.341 600.521 285.999C598.426 285.657 600.35 284.438 600.35 283.562C599.985 281.916 598.987 280.48 597.571 279.565C596.398 278.559 595.55 277.227 595.134 275.739L594.621 272.789L597.571 273.152L601.739 272.447V269.241L603.128 266.633C603.128 266.633 602.957 265.073 602.786 264.196C602.347 263.191 601.764 262.255 601.055 261.417L599.666 257.955C599.666 257.955 599.302 254.642 599.302 253.958C599.302 253.658 599.302 252.696 599.452 251.692C598.768 251.371 598.127 251.072 597.913 251.008C596.91 250.224 595.98 249.351 595.134 248.4C594.671 247.385 594.271 246.343 593.937 245.279C593.937 245.279 592.548 243.89 591.8 243.356C591.052 242.821 589.534 241.111 588.679 240.235C587.451 239.544 586.087 239.128 584.682 239.016L579.83 237.285C578.838 236.658 577.786 236.136 576.687 235.725C576.174 235.725 571.493 237.114 571.493 237.114C571.493 237.114 570.959 239.358 570.446 239.358C569.718 239.467 569.002 239.646 568.308 239.893C568.495 240.593 568.616 241.308 568.672 242.03C568.672 242.736 567.09 243.591 565.893 244.168C564.707 244.518 563.475 244.691 562.238 244.681C561.565 246.04 560.748 247.322 559.801 248.507C559.117 249.02 553.389 251.799 553.389 251.799L552.512 251.286L552.854 249.148L553.218 246.562C552.953 246.048 552.717 245.52 552.512 244.98C552.341 244.467 551.999 242.201 551.999 242.201C551.014 241.467 550.085 240.66 549.221 239.786C548.459 238.951 547.399 238.452 546.271 238.396C545.827 238.313 545.39 238.191 544.967 238.033L535.391 247.716C535.391 247.716 532.334 247.951 531.629 247.951C530.678 248.208 529.77 248.604 528.936 249.127L525.516 251.008L520.813 253.145L518.676 252.803L515.491 250.559C515.491 250.559 513.139 250.666 511.729 250.666C510.318 250.666 509.014 248.079 509.014 248.079L505.124 249.96C505.124 249.96 501.725 252.568 501.597 253.851C501.469 255.133 505.124 258.126 505.124 258.126C505.113 259.681 504.755 261.215 504.076 262.614C503.008 264.367 498.198 271.314 498.198 271.314C497.405 271.371 496.608 271.328 495.826 271.186C494.308 270.951 493.838 270.01 492.064 270.609C489.231 272.329 486.556 274.296 484.069 276.487L480.884 275.546L477.721 273.409L476.417 270.929L475.947 266.334C475.038 265.346 474.209 264.288 473.467 263.17C473.467 262.807 471.95 262.7 471.479 263.042C471.012 263.886 470.694 264.804 470.539 265.757C469.902 266.888 469.188 267.973 468.401 269.006C468.081 269.219 464.746 270.951 464.126 271.485C463.053 272.344 462.078 273.319 461.219 274.392C460.557 275.354 460.022 277.192 459.274 278.261C458.526 279.33 456.795 282.258 456.795 282.258L456.367 283.434L459.274 287.003L461.754 287.538L462.502 287.858L460.792 290.124L460.343 292.497L460.557 295.297L461.006 300.256L462.716 303.163L463.036 304.766L461.861 307.459L461.519 311.863V316.587L461.861 318.51L463.357 319.729L462.908 321.973C462.908 321.973 462.651 322.935 462.48 324.111C462.309 325.286 462.309 328.108 462.309 328.108L463.079 331.057C463.079 331.057 468.294 335.332 467.952 335.653C467.236 336.408 466.7 337.316 466.386 338.309C466.071 339.301 465.985 340.352 466.136 341.382C466.136 342.343 466.136 343.049 466.136 343.519L467.29 345.165C467.29 345.165 466.242 348.927 468.658 348.521C471.073 348.115 475.562 343.391 475.562 343.391C475.562 343.391 488.002 338.047 490.525 335.952C493.047 333.858 491.251 333.131 494.393 333.238C497.536 333.345 499.417 333.558 499.417 333.558L502.559 335.012C502.559 335.012 500.87 339.821 501.917 340.356C502.965 340.89 505.786 342.344 505.786 342.344L508.415 343.177L513.011 339.629L519.424 342.13C519.424 342.13 524.34 347.153 526.135 347.58C527.931 348.008 532.719 349.718 533.98 349.141C534.798 348.784 535.566 348.325 536.267 347.773L543.492 354.891C543.922 355.9 544.237 356.954 544.432 358.033C544.539 359.187 549.135 357.52 551.443 357.712C553.752 357.905 558.668 358.76 558.668 358.76L565.572 363.27L567.347 365.984L563.884 372.397C563.884 372.397 561.383 375.026 561.383 375.646C561.587 376.523 561.903 377.371 562.323 378.168C562.323 378.168 558.241 377.42 557.92 378.895C557.6 380.37 556.787 384.645 556.787 384.645L556.68 387.359L560.656 390.822L562.217 392.96C562.217 392.96 563.991 394.734 563.691 395.247C563.439 395.799 563.232 396.371 563.072 396.957L565.637 398.795L568.244 400.591L571.215 402.728C571.215 402.45 571.365 402.172 571.429 401.959C572.07 399.607 579.252 392.041 579.252 392.041L578.868 390.352C578.462 388.663 580.3 375.881 581.476 371.841C582.651 367.801 584.853 359.957 584.853 359.957L581.86 343.134C581.506 342.044 581.333 340.903 581.347 339.757C581.476 338.453 581.732 335.055 581.732 335.055C581.732 335.055 584.083 329.048 584.212 328.001C584.34 326.953 583.036 326.697 581.476 325.521C579.915 324.346 581.86 323.576 581.86 323.576L583.164 320.434L583.036 317.57L587.311 313.145C589 312.219 590.742 311.391 592.526 310.666C593.574 310.409 594.365 309.105 595.925 307.93C598.358 305.255 600.58 302.396 602.573 299.38C604.026 297.456 607.81 290.188 608.985 287.965C607.168 287.474 605.501 287.217 605.223 287.217Z" fill="url(#paint0_linear_14390_38599)"/>
<path d="M536.138 136.139L536.245 140.414C535.649 141.386 534.985 142.314 534.257 143.192C532.868 144.924 530.688 147.788 530.688 147.788C529.756 147.803 528.827 147.889 527.909 148.045C526.978 148.136 526.087 148.468 525.323 149.006L521.945 151.678C521.945 151.678 521.176 154.201 520.727 155.846C519.841 157.933 518.399 159.737 516.559 161.062C514.421 162.964 516.046 162.345 518.226 164.268C520.406 166.192 517.948 167.304 517.435 169.206C516.922 171.108 518.996 174.934 519.167 177.756C519.234 178.547 519.121 179.342 518.836 180.083C518.551 180.824 518.101 181.49 517.521 182.031C515.876 183.659 514.651 185.661 513.951 187.866C513.524 190.56 517.093 195.668 517.093 195.668L518.483 197.058L518.654 200.178C518.063 201.862 517.273 203.469 516.302 204.966C515.255 206.185 511.878 205.65 510.317 205.821C508.757 205.992 508.842 205.65 507.795 205.308C506.748 204.966 505.893 204.09 504.845 204.176C503.798 204.261 499.801 204.432 499.031 204.624C498.262 204.817 496.894 207.489 496.68 207.831C494.814 209.765 492.814 211.565 490.695 213.217C488.442 214.899 485.919 216.186 483.235 217.022C481.155 217.771 479.121 218.641 477.143 219.63L475.668 221.554L473.937 227.026L471.158 234.143L467.332 241.176L467.503 243.869L468.465 247.417L470.816 250.624L469.854 253.766C469.636 255.053 469.494 256.352 469.427 257.656C469.427 258.276 468.55 264.795 468.55 264.795L470.688 265.693C470.843 264.741 471.161 263.822 471.628 262.978C472.099 262.636 473.616 262.743 473.616 263.107C474.358 264.225 475.187 265.283 476.096 266.27L476.566 270.866L477.87 273.345L481.033 275.483L484.218 276.423C486.705 274.233 489.38 272.266 492.213 270.545C493.987 269.947 494.35 270.887 495.975 271.122C496.757 271.264 497.554 271.307 498.347 271.251C498.347 271.251 503.157 264.304 504.225 262.551C504.904 261.151 505.262 259.618 505.273 258.062C505.273 258.062 501.639 255.134 501.746 253.787C501.853 252.44 505.273 249.897 505.273 249.897L509.163 248.016C509.163 248.016 510.467 250.602 511.878 250.602C513.289 250.602 515.64 250.495 515.64 250.495L518.825 252.74L520.962 253.082L525.665 250.944L529.085 249.063C529.92 248.541 530.827 248.144 531.778 247.888C532.483 247.888 535.54 247.652 535.54 247.652L545.201 237.884C546.872 236.08 548.769 234.499 550.844 233.182C552.457 232.399 553.908 231.318 555.12 229.997C555.784 229.368 556.298 228.597 556.623 227.742C556.949 226.888 557.078 225.97 557.001 225.059C556.735 223.933 556.208 222.886 555.462 222.002C555.096 221.073 554.782 220.124 554.521 219.16L554.649 216.808L557.941 213.645L559.352 206.099L557.471 204.924C557.471 204.924 551.828 199.281 551.699 194.813C551.569 191.542 551.255 188.281 550.759 185.045C550.872 182.845 550.872 180.64 550.759 178.44C550.524 177.863 545.33 174.443 545.33 170.809C545.115 168.769 545.525 166.712 546.505 164.91C547.306 163.737 547.683 162.328 547.574 160.912C547.102 159.111 546.257 157.429 545.095 155.975L544.753 153.624L543.449 148.194L544.154 145.138L544.753 142.551L545.693 141.504L545.052 139.879C543.577 139.879 542.316 139.772 541.461 139.73C539.623 139.687 536.737 136.716 536.138 136.139Z" fill="#ED8C24"/>
<path d="M594.193 192.483C597.571 190.175 596.331 189.705 596.331 189.705L598.789 186.477L600.499 183.249L602.807 179.103L604.325 175.255C605.389 174.563 606.53 173.997 607.724 173.566C609.054 172.95 610.31 172.183 611.464 171.279C611.336 170.895 608.857 169.975 608.857 169.975C606.906 168.891 605.035 167.669 603.256 166.32C602.594 165.551 602.722 164.503 602.337 164.503C600.803 163.516 599.37 162.377 598.062 161.105C596.737 159.929 593.103 156.68 592.441 156.017C591.778 155.355 592.184 153.88 592.184 153.88L590.047 153.346C588.556 152.687 587.126 151.901 585.772 150.994C585.772 150.994 582.245 148.387 581.86 147.874C580.14 146.731 578.356 145.689 576.516 144.753C576.516 144.753 570.253 140.478 568.158 139.259C566.497 138.466 564.633 138.198 562.815 138.49C562.815 138.49 555.761 138.875 551.593 139.516C549.408 139.848 547.198 139.991 544.988 139.943L545.629 141.568L544.689 142.615L544.09 145.202L543.385 148.258L544.689 153.688L545.031 156.039C546.193 157.493 547.038 159.175 547.51 160.977C547.619 162.392 547.242 163.802 546.441 164.974C545.461 166.776 545.051 168.833 545.266 170.873C545.266 174.507 550.46 177.927 550.695 178.504C550.808 180.704 550.808 182.909 550.695 185.109C551.191 188.345 551.505 191.606 551.636 194.877C551.764 199.345 557.407 204.988 557.407 204.988L559.288 206.163L557.877 213.709L556.937 214.607L560.271 215.526C560.271 215.526 562.259 215.996 563.199 216.146C563.982 216.188 564.766 216.079 565.508 215.825C565.508 215.825 568.415 214.756 569.035 214.607C570.42 214.605 571.787 214.919 573.032 215.526C574.652 216.599 576.195 217.785 577.649 219.074L580.727 222.751L581.945 223.221L584.874 221.831C584.874 221.831 581.945 223.221 587.011 219.373C592.077 215.526 588.999 216.146 588.999 216.146V214.136L587.93 211.999C586.862 209.861 587.93 211.999 587.161 209.22C586.391 206.441 587.161 209.22 587.011 207.232C586.936 206.706 586.979 206.17 587.138 205.663C587.297 205.157 587.568 204.692 587.93 204.304L590.068 197.229L590.666 194.771L594.193 192.483Z" fill="#ED8C24"/>
<path d="M652.633 214.67C652.248 213.751 652.12 210.502 651.714 209.07C651.308 207.638 650.153 202.144 650.153 202.144L649.619 200.285L642.629 200.947L635.405 200.007L630.317 199.259L627.71 197.72L625.465 197.292C625.615 197.292 625.657 197.741 624.781 198.788C623.413 200.477 624.781 198.788 624.632 200.926C624.482 203.063 624.482 204.602 624.482 204.602L623.413 207.231L620.784 208.92L620.934 206.783C620.934 206.783 619.566 206.013 619.095 205.714C617.946 205.35 616.765 205.093 615.568 204.944L612.79 206.312L610.802 205.543L607.638 202.978C607.824 202.691 607.975 202.382 608.087 202.059C608.258 201.588 610.225 198.062 610.225 198.062L612.533 195.283L612.063 193.295L609.925 193.915L604.988 194.364L602.337 196.565C600.685 198.162 598.881 199.594 596.951 200.84C595.262 201.61 592.184 199.622 592.184 199.622L590.196 197.313L588.059 204.389C587.696 204.777 587.425 205.241 587.266 205.748C587.107 206.255 587.064 206.791 587.14 207.317C587.289 209.305 586.52 206.547 587.289 209.305C588.059 212.062 586.99 209.925 588.059 212.084L589.127 214.221V216.23C589.127 216.23 592.205 215.611 587.14 219.458L586.562 219.907C587.179 220.595 587.851 221.231 588.572 221.809C590.709 223.37 592.847 221.275 593.595 221.467C594.343 221.66 593.253 223.199 594.984 223.028C596.716 222.857 599.152 222.493 599.152 222.493L605.565 217.812C605.565 217.812 608.857 215.204 609.391 214.862C609.925 214.52 611.806 213.473 611.806 213.473L615.975 216.423V217.812L613.367 220.249C612.929 220.669 612.631 221.214 612.512 221.809C612.512 222.493 613.025 223.199 611.977 223.712C611.155 224.219 610.431 224.871 609.84 225.635C609.84 225.635 612.79 225.272 613.303 227.025C613.816 228.778 614.35 230.488 614.35 230.488C614.415 230.649 614.513 230.796 614.636 230.919C614.759 231.043 614.905 231.14 615.067 231.206C615.228 231.272 615.401 231.304 615.575 231.302C615.75 231.3 615.922 231.263 616.081 231.193C617.526 230.543 618.919 229.786 620.25 228.927C620.955 228.414 624.076 225.101 624.076 225.101C624.076 225.101 623.392 224.417 625.294 224.054C627.197 223.69 631.023 223.541 631.707 223.37C633.241 223.013 634.748 222.548 636.217 221.98C637.264 221.467 638.825 220.762 638.825 220.762L640.385 219.715C640.304 219.191 640.396 218.655 640.646 218.189C640.897 217.722 641.293 217.35 641.774 217.128C643.506 216.252 645.6 215.375 645.6 215.375L648.892 216.252L652.269 217.898C652.572 216.85 652.695 215.759 652.633 214.67Z" fill="#ED8C24"/>
<path d="M630.316 199.258L635.404 200.006L642.628 200.946L649.618 200.284L646.497 189.361C646.497 189.361 644.809 185.855 644.36 184.808C643.911 183.761 642.778 179.721 642.778 179.721C641.044 178.709 639.21 177.878 637.306 177.241C634.185 176.194 631.962 177.754 631.171 177.626C630.381 177.498 623.22 176.579 621.916 176.707C620.612 176.835 619.18 175.146 618.795 175.018C618.411 174.89 617.491 174.505 617.491 174.505C617.491 174.505 613.216 173.458 612.917 173.458C612.618 173.458 611.613 171.769 611.485 171.32C610.33 172.224 609.075 172.991 607.744 173.607C606.55 174.038 605.41 174.604 604.346 175.296L602.828 179.144L600.52 183.29L598.81 186.518L596.351 189.746C596.351 189.746 597.591 190.216 594.214 192.524L590.815 194.833L590.217 197.291L592.205 199.6C592.205 199.6 595.283 201.587 596.971 200.818C598.896 199.612 600.7 198.224 602.358 196.671L605.115 194.363L610.053 193.914L612.19 193.294L612.661 195.282L610.352 198.061C610.352 198.061 608.364 201.587 608.215 202.058C608.102 202.381 607.952 202.689 607.766 202.977L610.844 205.585L612.832 206.354L615.61 204.986C616.807 205.135 617.988 205.392 619.137 205.756C619.608 206.055 620.976 206.824 620.976 206.824L620.826 208.962L623.455 207.273L624.524 204.644C624.524 204.644 624.524 203.105 624.673 200.968C624.823 198.83 623.455 200.497 624.823 198.83C625.699 197.783 625.657 197.441 625.507 197.334L627.751 197.761L630.316 199.258Z" fill="#ED8C24"/>
<path d="M649.234 233.46L649.896 229.185C649.896 229.185 650.687 225.808 650.944 224.76C651.2 223.713 652.098 219.737 652.504 216.98C652.504 217.258 652.504 217.578 652.354 217.878L648.977 216.232L645.685 215.355C645.685 215.355 643.548 216.232 641.859 217.108C641.378 217.33 640.982 217.702 640.731 218.169C640.481 218.635 640.389 219.171 640.47 219.694L638.91 220.742C638.91 220.742 637.349 221.447 636.302 221.96C634.833 222.528 633.326 222.993 631.792 223.35C631.086 223.521 627.26 223.692 625.379 224.034C623.498 224.376 624.161 225.081 624.161 225.081C624.161 225.081 621.04 228.394 620.335 228.907C619.004 229.766 617.611 230.523 616.166 231.173C616.007 231.243 615.835 231.28 615.66 231.282C615.486 231.284 615.313 231.252 615.152 231.186C614.99 231.12 614.844 231.023 614.721 230.899C614.598 230.776 614.5 230.629 614.435 230.467C614.435 230.467 613.922 228.736 613.388 227.005C612.853 225.273 609.925 225.615 609.925 225.615C610.516 224.85 611.24 224.199 612.062 223.692C613.11 223.179 612.597 222.473 612.597 221.789C612.716 221.194 613.014 220.649 613.452 220.229L616.06 217.792V216.403L611.913 213.41C611.913 213.41 610.01 214.458 609.497 214.8C608.984 215.142 605.671 217.749 605.671 217.749L599.259 222.43C599.259 222.43 596.843 222.794 595.091 222.965C593.338 223.136 594.407 221.575 593.701 221.404C592.996 221.233 590.751 223.307 588.678 221.746C587.957 221.168 587.285 220.532 586.669 219.844L587.246 219.395C582.159 223.243 585.108 221.853 585.108 221.853L582.18 223.243L580.962 222.772L577.713 219.096C576.259 217.807 574.716 216.621 573.096 215.548C571.85 214.941 570.483 214.627 569.098 214.629C568.479 214.778 565.572 215.847 565.572 215.847C564.83 216.101 564.046 216.21 563.263 216.168C562.323 216.018 560.335 215.548 560.335 215.548L557 214.629L554.649 216.894L554.521 219.246C554.782 220.21 555.096 221.159 555.461 222.088C556.207 222.972 556.735 224.019 557 225.145C557.077 226.056 556.949 226.974 556.623 227.828C556.297 228.683 555.783 229.454 555.119 230.083C553.907 231.404 552.457 232.485 550.844 233.268C548.768 234.585 546.872 236.166 545.201 237.97C545.625 238.128 546.061 238.25 546.505 238.334C547.633 238.389 548.694 238.888 549.455 239.723C550.319 240.597 551.248 241.404 552.234 242.138C552.234 242.138 552.576 244.404 552.747 244.917C552.952 245.457 553.187 245.985 553.452 246.499L553.089 249.085L552.747 251.223L553.623 251.736C553.623 251.736 559.351 248.957 560.035 248.444C560.982 247.259 561.799 245.977 562.472 244.618C563.709 244.628 564.941 244.455 566.127 244.105C567.324 243.57 568.906 242.715 568.906 241.967C568.851 241.245 568.729 240.53 568.543 239.83C569.236 239.583 569.952 239.404 570.68 239.295C571.193 239.295 571.728 237.051 571.728 237.051C571.728 237.051 576.409 235.662 576.922 235.662C578.02 236.073 579.073 236.595 580.064 237.222L584.916 238.953C586.321 239.065 587.685 239.481 588.913 240.172C589.768 241.048 591.35 242.779 592.034 243.292C592.718 243.805 594.171 245.216 594.171 245.216C594.506 246.28 594.905 247.322 595.368 248.337C595.732 248.85 597.292 247.29 597.976 246.777C599.523 245.479 600.954 244.049 602.251 242.502C602.444 241.967 602.251 240.578 603.299 241.112C604.316 241.83 605.423 242.412 606.59 242.844C607.91 243.084 609.159 243.617 610.246 244.404C611.259 245.803 612.358 247.138 613.537 248.401C614.905 248.787 616.298 249.08 617.705 249.278C617.705 249.278 621.361 248.23 621.874 248.23C622.387 248.23 626.042 248.914 626.576 248.23C627.21 247.077 627.924 245.97 628.714 244.917C629.248 244.575 632.711 243.357 633.416 242.779C633.996 242.246 634.634 241.78 635.319 241.39C635.832 241.219 635.318 241.048 637.221 240.877C639.123 240.706 641.752 240.514 642.949 240.343L644.168 240.172L647.053 241.198C647.619 240.221 648.085 239.19 648.443 238.12C648.781 236.58 649.045 235.025 649.234 233.46Z" fill="url(#paint1_linear_14390_38599)"/>
<path d="M629.677 264.966C630.665 263.466 631.335 261.778 631.643 260.007C631.643 260.007 633.588 258.062 636.324 255.732C637.896 254.119 639.326 252.375 640.599 250.517C642.94 247.697 645.008 244.663 646.777 241.454L643.891 240.428L642.673 240.599C641.476 240.77 638.868 240.941 636.944 241.133C635.02 241.326 635.555 241.475 635.042 241.646C634.357 242.036 633.719 242.502 633.139 243.035C632.434 243.548 628.971 244.767 628.437 245.173C627.648 246.226 626.933 247.333 626.299 248.486C625.765 249.17 622.131 248.486 621.597 248.486C621.063 248.486 617.429 249.534 617.429 249.534C616.021 249.336 614.629 249.043 613.261 248.657C612.081 247.394 610.982 246.059 609.969 244.66C608.882 243.873 607.633 243.34 606.314 243.1C605.146 242.668 604.039 242.086 603.022 241.368C601.975 240.834 602.167 242.223 601.975 242.758C600.677 244.305 599.247 245.735 597.7 247.033C597.016 247.546 595.455 249.17 595.092 248.593C595.938 249.544 596.868 250.417 597.871 251.201C598.405 251.372 601.526 252.932 601.526 252.932L607.254 256.053L610.033 257.442C611.129 258.196 612.296 258.84 613.517 259.366C614.359 259.613 615.17 259.957 615.933 260.392L617.322 260.926L618.369 263.064C619.251 263.907 620.243 264.626 621.319 265.201L623.457 265.885L626.278 268.237C627.069 267.232 628.373 266.313 629.677 264.966Z" fill="url(#paint2_linear_14390_38599)"/>
<path d="M615.847 275.653C616.509 274.349 623.819 270.288 624.204 270.031C624.956 269.427 625.67 268.778 626.342 268.086L623.52 265.735L621.383 265.051C620.307 264.476 619.315 263.757 618.433 262.914L617.386 260.776L615.996 260.242C615.234 259.807 614.423 259.463 613.581 259.216C612.359 258.69 611.192 258.046 610.097 257.292L607.318 255.903L601.589 252.782L599.452 251.734C599.452 252.739 599.302 253.701 599.302 254C599.302 254.684 599.666 257.997 599.666 257.997L601.055 261.46C601.764 262.297 602.347 263.233 602.786 264.239C602.957 265.115 603.128 266.676 603.128 266.676L601.739 269.283V272.404L597.571 273.109L594.621 272.746L595.134 275.696C595.549 277.184 596.398 278.516 597.571 279.522C598.987 280.437 599.985 281.873 600.35 283.519C600.35 284.395 598.447 285.657 600.521 285.956C602.594 286.255 604.347 287.174 605.223 287.174C605.544 287.174 607.168 287.431 609.092 287.73L609.327 287.281C610.118 285.892 615.205 276.893 615.847 275.653Z" fill="url(#paint3_linear_14390_38599)"/>
<path d="M465.516 344.865C464.725 344.609 462.032 344.331 461.433 343.561C461.02 343.045 460.521 342.604 459.958 342.257L458.74 340.783L457.692 343.134L457.35 346.34C457.35 346.34 457.35 347.558 455.213 346.939L453.075 346.34L451.43 348.478L452.733 352.047L451.173 354.035L451.515 356.386L452.199 359.507L452.733 362.029C452.733 362.029 448.458 361.687 447.518 362.82C446.971 363.493 446.478 364.208 446.043 364.958C445.919 365.611 445.748 366.254 445.53 366.882C445.08 367.755 444.519 368.566 443.863 369.297L442.559 371.434L444.696 374.812C444.696 374.812 447.304 377.676 447.39 378.894C447.391 379.816 447.217 380.731 446.877 381.588L443.82 383.939C443.82 383.939 441.405 385.328 441.041 386.461C440.678 387.594 440.785 388.278 442.88 388.791L445.017 389.325C445.13 390.068 445.187 390.818 445.188 391.57C445.188 391.912 444.59 394.263 444.59 394.263L444.932 396.956V397.918L434.949 405.122L428.879 402.685L422.274 403.112L418.191 403.219C416.816 403.45 415.509 403.983 414.365 404.78C412.805 405.998 412.121 406.682 411.672 406.917L410.731 407.451C410.731 407.451 408.594 405.186 407.867 405.314C407.14 405.442 403.336 407.131 401.946 407.323C400.443 407.609 398.964 408.01 397.522 408.52C396.389 408.884 394.828 409.568 394.828 409.568C394.828 409.568 393.353 411.919 392.327 413.394C391.301 414.869 390.938 416.001 390.66 416.172C390.238 416.374 389.803 416.546 389.356 416.685L387.219 418.331V421.901L384.953 422.2C385.124 422.713 385.295 423.29 385.295 423.29L383.029 425.791C383.029 425.791 384.034 428.762 384.397 430.579L388.416 430.088L390.318 427.779L392.798 427.373L393.375 427.544L395.512 428.442L401.925 428.848L406.713 429.682H410.026L412.42 431.669C412.42 431.669 412.163 435.56 412.826 436.051C413.489 436.543 414.066 436.799 415.071 435.068C416.075 433.337 417.465 433.978 417.465 433.978L418.277 437.035C418.818 435.942 419.485 434.916 420.265 433.978C421.945 433.579 423.668 433.385 425.395 433.401L432.491 432.738L436.467 431.263L439.609 430.515L443.563 431.178L445.551 434.063L445.722 436.714L446.214 439.364C446.214 439.364 448.608 442.336 448.352 442.913C448.095 443.49 447.261 445.221 447.261 445.221L447.774 448.107L449.677 452.168L450.66 453.9L453.46 454.819H457.436L458.27 456.785L458.099 459.03C457.041 460.996 456.209 463.075 455.619 465.228C455.79 466.126 456.453 468.862 456.453 468.862L455.94 471.342L459.082 474.484L460.578 477.775L462.716 480.105H467.183L470.004 478.951L471.159 476.301L472.313 475.723L485.694 472.325C486.193 472.207 486.712 472.207 487.211 472.325C488.085 471.5 489.054 470.783 490.097 470.187C491.56 469.56 493.077 469.066 494.629 468.712L504.397 465.87C504.397 465.87 512.947 465.463 513.759 465.57C514.571 465.677 514.807 467.131 514.807 467.131L527.952 460.312C527.658 459.03 527.84 457.685 528.465 456.529C529.513 454.391 531.843 446.44 531.843 446.44L534.472 444.73C534.422 443.059 534.494 441.388 534.685 439.728C535.027 438.146 535.22 436.586 535.904 436.073C536.847 435.452 537.91 435.037 539.025 434.854C539.73 434.854 542.68 435.025 542.68 435.025L544.069 433.978L547.361 427.394C547.703 426.689 548.579 425.663 549.627 424.081C550.674 422.499 551.358 422.521 551.187 420.961C551.016 419.4 551.529 418.353 550.845 416.963C550.236 415.856 549.52 414.811 548.707 413.843C547.675 412.843 546.575 411.914 545.416 411.064C547.15 411.314 548.9 411.443 550.653 411.449C550.78 410.786 550.844 410.114 550.845 409.439C550.845 409.439 549.391 406.661 549.306 406.276C549.129 405.612 548.84 404.983 548.451 404.416C548.259 404.288 547.19 403.155 547.19 403.155C547.19 403.155 548.002 400.804 548.152 400.654C548.301 400.505 550.118 399.543 550.118 399.543C550.99 399.032 551.89 398.568 552.812 398.153C553.872 397.663 554.9 397.106 555.89 396.486C555.89 396.486 557.621 395.033 558.027 395.097L560.4 395.375C561.227 395.647 562.04 395.961 562.836 396.315L563.328 396.657C563.489 396.071 563.696 395.5 563.948 394.947C564.247 394.434 562.473 392.66 562.473 392.66L560.913 390.522L556.937 387.06L557.044 384.345C557.044 384.345 557.877 380.07 558.177 378.595C558.476 377.12 562.58 377.868 562.58 377.868C562.16 377.071 561.844 376.224 561.639 375.346C561.639 374.726 564.14 372.097 564.14 372.097L567.603 365.685L565.829 362.97L558.925 358.46C558.925 358.46 554.008 357.626 551.7 357.412C549.391 357.199 544.796 358.887 544.689 357.733C544.494 356.654 544.178 355.6 543.748 354.591L536.524 347.473C535.823 348.025 535.054 348.485 534.237 348.841C532.975 349.354 528.166 347.687 526.392 347.281C524.618 346.874 519.68 341.83 519.68 341.83L513.268 339.329L508.672 342.877L506.043 342.044C506.043 342.044 503.221 340.569 502.174 340.056C501.127 339.543 502.815 334.712 502.815 334.712L499.673 333.259C499.673 333.259 497.792 333.045 494.65 332.938C491.508 332.831 493.282 333.558 490.781 335.653C488.28 337.747 475.818 343.091 475.818 343.091C475.818 343.091 471.308 347.794 468.914 348.221C466.52 348.649 467.546 344.865 467.546 344.865L466.392 343.219C466.349 345.1 466.114 345.058 465.516 344.865Z" fill="url(#paint4_linear_14390_38599)"/>
<path d="M537.892 449.923C537.786 449.214 537.715 448.501 537.679 447.785C537.679 447.037 536.845 446.097 536.204 445.349C536.004 445.132 535.758 444.964 535.484 444.857C535.21 444.749 534.915 444.706 534.622 444.729L531.694 446.631C531.694 446.631 529.364 454.604 528.316 456.72C527.691 457.877 527.509 459.222 527.803 460.503L514.658 467.322C514.658 467.322 514.337 465.869 513.61 465.762C512.884 465.655 504.248 466.061 504.248 466.061L494.48 468.904C492.928 469.257 491.411 469.751 489.948 470.379C488.905 470.974 487.936 471.692 487.062 472.516C487.765 472.721 488.39 473.13 488.858 473.692C489.521 474.333 490.846 476.321 492.171 476.235C493.496 476.15 495.463 475.915 495.463 475.915L496.382 476.663L496.04 478.801L494.843 480.788L495.463 482.691L497.301 482.434C497.301 482.434 499.781 482.05 500.294 482.05C500.807 482.05 503.158 481.772 503.564 481.772C503.97 481.772 508.117 482.178 508.117 482.178L519.467 481.13L531.33 482.178C531.812 481.944 532.252 481.634 532.634 481.259L534.344 478.907C534.101 478.614 533.926 478.269 533.834 477.899C533.741 477.529 533.733 477.143 533.81 476.77C534.088 475.338 534.729 475.209 534.857 474.632C534.985 474.055 536.289 472.922 537.465 471.747C538.766 470.81 540.21 470.088 541.74 469.609L545.245 468.177L549.157 465.035V462.555L547.981 458.772L549.563 454.86L550.568 452.723L539.004 451.697L537.892 449.923Z" fill="#ED8C24"/>
<path d="M496.487 476.579L495.568 475.831C495.568 475.831 493.58 476.088 492.276 476.152C490.973 476.216 489.626 474.249 488.963 473.608C488.584 473.113 488.069 472.738 487.481 472.53C486.893 472.321 486.257 472.287 485.65 472.433L472.269 475.831L471.115 476.408L469.961 479.059L467.139 480.213H462.672L460.534 477.883L459.038 474.591L455.875 471.492L456.388 469.012C456.388 469.012 455.725 466.277 455.554 465.379C456.144 463.225 456.976 461.146 458.034 459.18L458.205 456.936L457.371 454.969H453.31L450.509 454.05L449.526 452.319L447.624 448.257L447.111 445.372C447.111 445.372 447.859 443.64 448.201 443.063C448.543 442.486 446.063 439.515 446.063 439.515L445.572 436.864L445.401 434.214L443.413 431.328L439.459 430.666L436.316 431.414L432.341 432.889L425.244 433.551C423.517 433.536 421.795 433.729 420.114 434.128C419.335 435.067 418.668 436.092 418.126 437.185L417.314 434.128C417.314 434.128 415.903 433.466 414.92 435.218C413.937 436.971 413.338 436.693 412.676 436.202C412.013 435.71 412.269 431.82 412.269 431.82L409.875 429.832H406.562L401.774 428.998L395.362 428.592L393.224 427.694L392.647 427.523L390.168 427.93L388.265 430.238L384.247 430.73C384.31 431.126 384.31 431.53 384.247 431.927C383.956 432.809 383.538 433.644 383.007 434.406L381.083 435.988L377.343 436.907L375.761 439.045L373.174 442.657C373.174 442.657 373.046 444.795 372.939 445.714C372.798 446.558 372.606 447.394 372.362 448.215C372.362 448.215 370.78 448.428 370.674 449.112C370.567 449.796 370.332 451.143 370.332 451.143L368.536 453.964L366.954 456.679C366.954 456.679 364.817 455.546 365.031 457.128C365.244 458.71 365.928 458.71 365.821 459.501C365.668 460.166 365.439 460.812 365.137 461.424C365.137 461.424 360.734 466.512 360.392 467.089C360.05 467.666 361.397 468.222 358.362 469.119C356.391 469.451 354.508 470.178 352.825 471.257C351.824 472.377 350.761 473.441 349.64 474.442L349.277 475.724H348.85C350.303 475.416 351.793 475.315 353.274 475.425C353.467 475.425 358.49 475.425 358.49 475.425C359.741 475.958 361.084 476.241 362.444 476.259C363.406 476.3 364.365 476.118 365.244 475.724C365.244 475.532 365.715 474.078 365.715 474.078C365.715 474.078 370.396 476.943 372.127 476.75C373.38 476.67 374.636 476.67 375.889 476.75C376.445 476.75 379.523 476.579 379.523 476.579L383.285 478.995L386.149 479.914L387.239 481.367C390.154 481.011 393.088 480.84 396.024 480.854C398.632 480.983 399.594 480.983 399.829 481.047C400.064 481.111 401.967 482.18 401.967 482.18C402.383 483.137 403.147 483.901 404.104 484.317C405.494 484.787 406.242 487.16 406.712 488.592C407.182 490.024 407.93 490.836 407.631 492.611C407.393 493.806 407.306 495.027 407.375 496.244C407.375 497.463 407.503 498.061 407.503 498.061C407.503 498.061 412.847 505.649 412.911 505.949C412.665 507.181 412.336 508.395 411.927 509.582C411.876 510.078 411.919 510.578 412.056 511.057C412.056 511.228 418.661 511.228 418.661 511.228L423.47 511.463C423.47 511.463 425.03 511.955 425.03 512.147C425.03 512.34 424.496 514.627 424.496 514.627L424.261 516.572C424.349 516.793 424.508 516.978 424.714 517.098C424.919 517.218 425.158 517.266 425.394 517.235C426.313 517.235 428.792 516.743 429.284 516.807C429.776 516.871 431.037 518.389 431.037 518.389L432.383 519.693L432.918 519.03L438.518 513.558L449.206 506.911C449.206 506.911 450.51 505.094 451.942 503.512C454.261 501.746 456.753 500.221 459.38 498.959C459.38 498.959 466.177 496.095 466.947 495.56C468.163 495.146 469.448 494.972 470.73 495.047C472.311 495.061 473.886 495.233 475.433 495.56L476.48 494.256L479.986 491.52L485.607 487.737L487.959 483.462L490.417 480.854L492.383 479.807L494.863 480.726L496.06 478.738L496.487 476.579Z" fill="#ED8C24"/>
<path d="M429.242 516.72C428.751 516.72 426.271 517.083 425.352 517.148C425.116 517.179 424.877 517.131 424.672 517.011C424.467 516.891 424.307 516.706 424.219 516.485L424.454 514.54C424.454 514.54 424.989 512.231 424.989 512.06C424.989 511.889 423.428 511.376 423.428 511.376L418.619 511.141C418.619 511.141 412.078 511.141 412.014 510.97C411.878 510.491 411.834 509.991 411.886 509.495C412.295 508.307 412.623 507.094 412.869 505.862C412.869 505.562 407.461 497.974 407.461 497.974C407.461 497.974 407.461 497.376 407.333 496.157C407.265 494.94 407.351 493.719 407.589 492.523C407.888 490.749 407.098 489.916 406.67 488.505C406.243 487.094 405.452 484.743 404.062 484.23C403.105 483.814 402.341 483.05 401.925 482.092C401.925 482.092 399.98 481.002 399.787 480.96C399.595 480.917 398.59 480.96 395.983 480.767C393.077 480.828 390.179 481.071 387.304 481.494L386.214 480.04L383.35 479.121L379.588 476.706C379.588 476.706 376.51 476.877 375.954 476.877C374.701 476.797 373.445 476.797 372.192 476.877C370.375 477.069 365.78 474.205 365.78 474.205C365.78 474.205 365.352 475.659 365.309 475.851C364.43 476.244 363.471 476.427 362.509 476.385C361.149 476.368 359.806 476.085 358.555 475.552C358.555 475.552 353.532 475.552 353.339 475.552C351.858 475.441 350.368 475.542 348.915 475.851C345.998 477.294 343.335 479.2 341.027 481.494C339.445 483.183 339.766 486.41 339.51 487.735C339.253 489.061 335.085 490.407 335.085 490.407L333.375 493.207C333.375 493.207 332.969 497.483 332.905 497.76C332.607 498.072 332.277 498.351 331.921 498.594L329.378 500.86C329.538 502.001 329.538 503.16 329.378 504.301C328.777 506.112 328.425 507.996 328.33 509.901C327.976 513.502 327.369 517.073 326.514 520.589C326.364 521.102 325.06 522.726 324.547 523.838C324.385 524.123 324.311 524.449 324.334 524.776C324.357 525.103 324.476 525.416 324.675 525.676L326.364 526.317L330.639 525.804C332.325 525.762 334.004 526.022 335.598 526.574C336.752 527.365 336.902 529.46 337.03 531.405C337.581 533.298 338.561 535.039 339.894 536.492C339.894 536.492 339.787 537.326 339.723 538.352C341.103 538.239 342.469 538.003 343.806 537.646C344.661 537.219 344.319 537.219 345.516 538.074C346.31 538.624 347.163 539.083 348.06 539.442C348.398 539.695 348.773 539.897 349.171 540.04C349.428 540.04 355.819 539.442 355.819 539.442L357.7 540.297L363.407 541.494L365.117 541.836L368.879 543.439C368.879 543.439 375.612 543.097 376.04 543.695C376.467 544.294 377.151 545.32 377.151 545.32L379.609 544.208L379.866 542.071C379.866 542.071 377.985 540.874 379.267 539.933C380.458 539.135 381.753 538.502 383.115 538.052L386.086 537.454L387.71 537.197C387.71 537.197 389.848 533.884 391.216 533.799C392.584 533.713 395.128 535.744 395.384 535.573C395.627 535.156 395.977 534.811 396.398 534.574C396.819 534.338 397.295 534.218 397.778 534.226C398.878 534.083 399.991 534.083 401.091 534.226C402.674 534.549 404.221 535.029 405.708 535.658C405.965 536 405.879 537.112 406.563 537.112C407.247 537.112 407.568 538.223 408.85 537.112C409.496 536.463 410.213 535.889 410.988 535.402C411.798 534.862 412.694 534.464 413.638 534.226C414.75 534.055 418.833 533.628 418.833 533.628H422.979C423.578 532.538 424.647 530.828 424.924 530.357C425.202 529.887 430.674 522.021 430.674 522.021L432.491 519.884L431.145 518.58C431.145 518.58 429.734 516.784 429.242 516.72Z" fill="#ED8C24"/>
<path d="M413.489 534.142C412.545 534.38 411.648 534.778 410.838 535.318C410.064 535.805 409.346 536.379 408.701 537.028C407.418 538.139 407.098 537.028 406.414 537.028C405.73 537.028 405.815 535.916 405.559 535.574C404.071 534.944 402.524 534.465 400.942 534.142C399.842 533.999 398.728 533.999 397.629 534.142C397.146 534.133 396.669 534.253 396.249 534.49C395.828 534.727 395.478 535.071 395.235 535.488C394.978 535.659 392.499 533.629 391.066 533.714C389.634 533.8 387.561 537.113 387.561 537.113L385.936 537.37L382.965 537.968C381.603 538.417 380.309 539.05 379.118 539.849C377.835 540.875 379.716 541.987 379.716 541.987L379.46 544.124L377.002 545.236C377.002 545.236 376.318 544.21 375.89 543.611C375.463 543.013 368.729 543.355 368.729 543.355L364.967 541.751L363.257 541.409L357.55 540.212L355.669 539.357C355.669 539.357 349.257 539.956 349.022 539.956C348.624 539.812 348.249 539.611 347.91 539.357C347.013 538.999 346.16 538.54 345.366 537.989C344.169 537.134 344.511 537.134 343.656 537.562C342.319 537.919 340.953 538.155 339.574 538.267C339.574 538.93 339.574 539.657 339.574 540.405C339.574 542.115 337.436 552.289 337.436 552.289C336.688 552.719 335.973 553.205 335.299 553.743L336.09 553.144L339.424 553.914L341.669 553.401C341.669 553.401 344.597 553.23 344.939 553.914C345.281 554.598 345.623 554.085 345.623 554.085L349.086 551.947L356.332 554.534L365.48 554.876C365.993 554.876 367.896 557.825 367.896 557.825L372.171 559.193C374.647 560.298 377.015 561.629 379.246 563.169C382.345 565.414 384.953 567.444 384.953 567.444L388.566 573.301L392.199 575.032L394.957 575.374L402.374 575.716C403.137 575.971 403.802 576.456 404.276 577.106C404.96 578.153 403.421 578.666 402.716 579.863C401.711 581.683 401.065 583.678 400.813 585.741C400.642 587.986 398.056 589.012 399.616 588.499C400.687 588.205 401.816 588.205 402.887 588.499L405.601 590.636C406.816 589.331 407.951 587.953 409 586.511C410.445 584.586 412.109 582.835 413.959 581.295C415.54 580.012 417.296 578.961 419.175 578.175L420.863 575.567C421.953 572.453 422.824 569.268 423.471 566.034C423.491 564.989 423.859 563.98 424.518 563.169L424.262 559.514C424.105 557.97 423.797 556.445 423.343 554.961C422.709 552.14 422.231 549.285 421.911 546.411C421.911 546.411 422.167 542.243 422.424 541.196C423.187 539.749 424.112 538.394 425.181 537.156L423.728 535.852C423.728 535.852 422.424 534.548 422.424 534.142C422.521 533.827 422.658 533.525 422.83 533.244H418.683C418.683 533.244 414.6 533.971 413.489 534.142Z" fill="#ED8C24"/>
<path d="M405.601 590.765L402.886 588.628C401.816 588.334 400.686 588.334 399.616 588.628C398.055 589.141 400.642 588.115 400.813 585.87C401.065 583.807 401.71 581.811 402.715 579.992C403.421 578.795 404.96 578.282 404.276 577.235C403.801 576.585 403.136 576.099 402.373 575.845L394.956 575.503L392.199 575.161L388.565 573.43L384.953 567.573C384.953 567.573 382.345 565.436 379.245 563.298C377.014 561.758 374.646 560.427 372.17 559.322L367.895 557.954C367.895 557.954 365.993 555.005 365.48 555.005L356.331 554.663L349 552.076L345.537 554.214C345.537 554.214 345.195 554.727 344.853 554.043C344.511 553.359 341.583 553.53 341.583 553.53L339.338 554.043L336.004 553.273C335.421 553.679 334.871 554.129 334.358 554.62C332.623 555.597 330.713 556.222 328.736 556.458C328.736 556.458 325.744 558.147 323.521 559.451C321.298 560.754 321.041 560.498 320.015 561.802C318.989 563.106 313.346 565.585 311.914 566.504C310.482 567.423 308.387 569.24 305.651 571.185C302.915 573.131 305.138 571.848 304.753 572.618C304.368 573.387 303.706 573.537 301.996 576.016C300.773 577.724 299.376 579.3 297.828 580.719C296.707 582.467 295.441 584.119 294.044 585.656C292.74 586.832 292.869 586.191 292.227 586.832C291.621 587.678 291.139 588.607 290.795 589.589C290.795 589.589 286.52 593.501 285.708 594.527C284.896 595.553 284.276 595.574 282.972 596.878C281.668 598.182 281.262 597.284 279.83 597.926C278.398 598.567 274.871 604.573 274.614 605.364C274.358 606.155 276.047 606.796 276.047 606.796L279.83 605.236L286.242 603.269L292.121 606.54C292.121 606.54 299.153 614.235 300.2 615.539C300.891 617.14 301.163 618.891 300.991 620.626L307.511 615.924L311.016 619.835L315.847 624.538L317.023 623.619L320.036 625.756L324.589 626.654L326.278 627.958C326.278 627.958 330.061 632.404 331.237 633.451C332.413 634.498 335.512 634.755 337.756 636.187C340.001 637.619 339.595 639.586 339.723 641.659C339.851 643.733 348.594 646.746 348.978 648.307C349.363 649.867 341.668 655.617 341.668 655.617L341.283 663.569L344.682 665.001C348.465 664.359 357.058 653.394 359.644 647.409C361.183 643.861 364.732 638.538 366.698 637.363C368.665 636.187 377.514 628.62 381.661 625.628C385.808 622.635 391.173 615.325 396.773 604.253C399.184 599.43 402.146 594.904 405.601 590.765Z" fill="#ED8C24"/>
<path d="M342.737 397.063C340.269 396.893 337.84 396.352 335.533 395.46L335.362 394.69L336.645 392.83L338.675 391.398L338.932 390.458L339.274 387.487L338.59 384.109L337.735 384.772C337.735 384.772 335.277 386.653 335.02 386.91C333.932 387.942 332.918 389.049 331.985 390.223C331.301 391.334 329.356 390.992 329.356 390.992C328.876 390.78 328.418 390.522 327.988 390.223C327.731 389.966 326.128 388.449 325.85 388.278C325.102 388.093 324.334 388.007 323.563 388.021C323.05 388.021 322.366 389.047 322.366 389.047C322.366 389.047 320.229 389.795 319.245 390.052C318.192 390.508 317.114 390.907 316.018 391.249C314.476 390.711 312.976 390.061 311.529 389.304C310.108 388.346 308.751 387.297 307.468 386.161C305.929 384.708 300.243 383.874 300.243 383.874C300.243 383.874 298.554 382.677 297.635 383.19C296.716 383.703 293.36 384.879 293.36 384.879L289.384 385.648L287.781 387.337L283.506 392.339L281.903 392.681C280.948 393.059 280.013 393.487 279.103 393.963C277.243 394.882 277.585 394.284 275.213 393.963C274.297 393.866 273.376 393.83 272.455 393.856C272.584 395.673 276.111 400.269 276.111 400.269L274.678 401.573C273.889 404.508 272.844 407.369 271.558 410.123C270.254 412.26 272.584 414.163 272.584 414.163L269.335 419.378C268.238 421.513 267.322 423.737 266.599 426.026C267.271 427.682 268.194 429.225 269.335 430.6L264.119 434.234L266.855 438.295L269.206 444.409C269.206 444.409 268.95 448.32 269.078 451.719C269.206 455.117 267.774 466.852 267.774 466.852C268.386 467.165 269.042 467.381 269.719 467.494C270.382 467.494 271.558 467.365 273.994 467.365C275.883 467.436 277.76 467.701 279.595 468.156L288.465 469.717C288.465 469.717 290.817 468.541 291.458 468.285C292.19 467.929 292.903 467.536 293.595 467.109L294.771 467.365L296.716 469.503L298.854 469.888C298.854 469.888 301.59 470.678 301.996 470.678C302.704 470.838 303.368 471.152 303.941 471.598C304.475 471.982 304.069 472.902 304.326 473.735C304.913 474.662 305.633 475.497 306.463 476.215C306.388 477.402 306.216 478.582 305.95 479.742C305.544 481.174 306.335 481.879 306.998 483.14C307.476 484.371 307.861 485.636 308.152 486.924C308.875 490.454 309.403 494.022 309.734 497.611L311.166 498.53L314.543 499.556C314.543 499.556 317.685 498.915 318.818 498.787C319.951 498.659 322.067 496.307 322.73 496.051C323.392 495.794 327.817 498.915 327.817 498.915C327.817 498.915 328.586 499.962 328.993 500.475C329.042 500.587 329.085 500.701 329.121 500.817L331.664 498.552C332.02 498.309 332.35 498.029 332.648 497.718C332.648 497.526 333.118 493.165 333.118 493.165L334.828 490.365C334.828 490.365 339.103 489.04 339.253 487.693C339.402 486.346 339.253 483.14 340.77 481.452C343.078 479.157 345.741 477.252 348.658 475.809H349.085L349.448 474.526C350.642 473.531 351.777 472.468 352.847 471.341C354.529 470.262 356.413 469.535 358.383 469.204C361.419 468.306 360.072 467.729 360.414 467.173C360.756 466.617 365.159 461.509 365.159 461.509C365.46 460.896 365.69 460.25 365.843 459.585C365.843 458.794 365.266 458.794 365.052 457.212C364.839 455.63 366.976 456.763 366.976 456.763L368.558 454.049L370.353 451.227C370.353 451.227 370.588 449.881 370.695 449.197C370.802 448.513 372.384 448.299 372.384 448.299C372.627 447.478 372.82 446.643 372.961 445.798C373.068 444.9 373.196 442.741 373.196 442.741L375.783 439.129L377.364 436.991L381.105 436.072L383.029 434.491C383.56 433.729 383.978 432.893 384.268 432.011C384 429.967 383.506 427.96 382.794 426.026L385.059 423.525C384.905 422.95 384.713 422.386 384.482 421.836C382.673 420.419 380.789 419.099 378.839 417.882L371.828 415.061L363.962 412.688L360.799 409.182H357.293L351.864 407.814V406.04C351.864 405.356 353.125 404.801 353.125 404.801L354.237 403.539L353.681 402.428L352.89 402.3L350.752 402.428L348.85 402.193C348.655 401.069 348.541 399.934 348.508 398.794C348.336 398.156 348.077 397.545 347.738 396.977H346.755C345.418 396.827 344.066 396.856 342.737 397.063Z" fill="#ED8C24"/>
<path d="M565.85 398.623L562.793 396.486C561.997 396.132 561.184 395.818 560.357 395.545L557.984 395.268C557.514 395.268 555.846 396.657 555.846 396.657C554.857 397.277 553.829 397.834 552.768 398.324C551.797 398.706 550.848 399.141 549.925 399.628C549.925 399.628 548.109 400.59 547.959 400.74C547.809 400.889 546.997 403.241 546.997 403.241C546.997 403.241 548.066 404.373 548.258 404.502C548.647 405.068 548.937 405.697 549.113 406.361C549.113 406.746 550.652 409.525 550.652 409.525C550.652 410.199 550.587 410.872 550.46 411.534C548.707 411.528 546.957 411.4 545.223 411.149C546.382 412 547.482 412.928 548.515 413.928C549.327 414.896 550.043 415.941 550.652 417.049C551.336 418.438 550.823 419.486 550.994 421.046C551.165 422.606 550.481 422.606 549.434 424.167C548.386 425.727 547.51 426.774 547.168 427.48L543.876 434.063L542.487 435.111C542.487 435.111 539.537 434.94 538.832 434.94C537.717 435.122 536.654 435.537 535.711 436.158C535.027 436.671 534.835 438.296 534.493 439.813C534.301 441.473 534.229 443.145 534.279 444.815L534.578 444.623C534.872 444.6 535.166 444.643 535.44 444.751C535.714 444.858 535.96 445.026 536.16 445.243C536.801 445.991 537.635 446.931 537.635 447.679C537.671 448.395 537.742 449.108 537.849 449.817L539.003 451.292L550.567 452.318L550.994 451.42C551.429 450.151 551.73 448.84 551.892 447.508C552.042 445.82 554.649 445.371 554.649 445.371L557.257 442.891L560.121 439.236L567.026 427.416L569.505 424.551C570.204 422.935 570.644 421.218 570.809 419.464C570.809 419.464 570.552 418.289 570.039 414.249C569.865 410.317 570.363 406.384 571.514 402.621L568.543 400.483L565.85 398.623Z" fill="#ED8C24"/>
<path d="M234.301 295.19C233.513 293.933 232.868 292.592 232.377 291.192C232.124 290.496 232.055 289.746 232.179 289.015C232.302 288.284 232.614 287.598 233.083 287.024C233.425 286.169 234.985 284.438 235.22 283.391C235.455 282.343 233.831 279.564 233.831 279.564C233.831 279.564 231.693 279.393 230.368 279.393C228.893 278.988 227.527 278.258 226.371 277.256H209.271L209.442 274.285C209.442 274.285 209.271 267.872 209.271 267.167C209.066 266.048 208.773 264.947 208.394 263.875C208.451 262.885 208.572 261.9 208.758 260.925C208.928 259.949 209.042 258.965 209.1 257.976L210.062 254.278C210.062 254.278 208.501 251.67 207.475 250.003C207.334 249.805 207.24 249.578 207.198 249.339C207.156 249.1 207.168 248.854 207.234 248.621C207.3 248.387 207.417 248.171 207.577 247.988C207.737 247.806 207.936 247.661 208.159 247.566L209.891 242.543V239.764L207.283 237.498L203.008 240.619L201.982 240.277L200.229 240.106L198.092 237.156L195.954 235.767L195.441 233.159C195.441 233.159 194.394 233.33 192.32 231.77C190.5 230.083 188.918 228.155 187.618 226.041L175.306 225.699C174.494 227.434 173.566 229.113 172.527 230.722C171.651 231.77 169.919 230.893 169.919 230.893C169.935 232.59 169.756 234.282 169.385 235.938C168.872 237.498 166.435 238.204 166.435 238.204L164.704 242.885L153.418 243.056L153.589 247.053C152.443 248.589 151.163 250.019 149.763 251.328C148.566 252.204 149.421 249.768 149.421 249.768C149.421 249.768 148.908 248.207 148.031 248.207C147.155 248.207 143.756 247.865 143.756 247.865L143.414 251.328L140.807 250.452C140.095 251.271 139.275 251.991 138.37 252.589C137.151 253.273 135.954 250.687 135.954 250.687L128.644 249.81C128.047 251.673 126.971 253.347 125.523 254.662C124.322 255.591 123.034 256.4 121.676 257.078C124.134 257.078 128.088 257.441 128.088 258.531C128.079 258.588 128.079 258.646 128.088 258.702C129.585 258.189 131.829 257.42 132.663 257.249C133.966 256.992 138.006 256.736 138.006 256.736L141.661 255.688L145.445 255.817C145.445 255.817 146.364 260.092 146.749 264.046C147.134 268.001 144.932 267.829 144.398 269.646C143.863 271.463 146.535 274.349 147.005 276.059C147.476 277.769 145.445 277.235 145.188 279.586C144.932 281.937 147.326 285.571 147.796 287.794C148.266 290.017 152.627 294.206 152.627 294.206C154.761 295.68 156.725 297.387 158.484 299.294C159.146 300.597 167.034 303.569 167.034 303.569L171.309 301.88C172.228 301.495 175.22 304.017 175.584 304.488C177.459 304.981 179.377 305.289 181.312 305.407C181.718 305.407 182.36 305.15 183.151 306.967C183.941 308.784 193.838 313.102 193.838 313.102L198.263 314.149C198.263 314.149 202.538 318.83 203.093 319.237C204.293 319.497 205.524 319.583 206.749 319.493L220.963 322.486L222.032 323.191L224.789 321.545C224.789 321.545 226.179 320.498 226.692 320.156C227.22 319.698 227.687 319.173 228.081 318.595L230.518 313.038C230.518 313.038 232.655 311.477 232.655 310.088C232.655 308.699 232.997 307.822 233.168 305.92C233.237 305.364 233.481 304.844 233.865 304.436C234.25 304.029 234.754 303.755 235.306 303.654C235.306 303.654 237.913 301.752 238.961 300.875C240.008 299.999 234.301 295.19 234.301 295.19Z" fill="#ED8C24"/>
<path d="M395.041 77.7212C395.971 77.1109 396.968 76.6089 398.012 76.2249L399.722 75.8402L400.513 74.4722C400.513 74.4722 402.223 66.1145 402.651 63.635C403.078 61.1555 399.53 58.9539 399.53 58.9539L396.131 57.7783C395.178 55.8417 394.04 54.002 392.733 52.2849C391.685 51.3871 389.355 52.691 389.355 52.691C388.966 52.1695 388.656 51.5933 388.436 50.981L386.748 46.4281C386.748 46.4281 384.61 42.9012 384.14 42.1531C383.578 40.0559 383.227 37.9076 383.092 35.7405C382.964 34.0519 382.302 30.9311 382.302 30.9311L382.43 25.3095C382.43 25.3095 380.613 20.8849 380.079 18.897C379.544 16.9091 374.222 12.1211 374.222 12.1211L373.687 19.6879C373.687 19.6879 372.533 21.2482 371.871 22.4239C371.208 23.5995 366.142 29.328 363.919 32.7267C361.282 37.7208 358.927 42.8589 356.865 48.1167C356.609 48.7793 353.873 50.468 353.873 50.468L351.265 52.1566C350.505 52.3922 349.707 52.4793 348.914 52.4131C347.466 51.952 346.069 51.3431 344.746 50.5962C344.746 50.5962 342.779 51.6436 342.394 51.7718C340.858 51.2639 339.376 50.6052 337.97 49.8053C337.435 49.5488 336.666 50.3397 334.186 51.3871C332.309 52.0864 330.308 52.392 328.308 52.2849C326.738 51.704 325.251 50.9208 323.883 49.955L321.19 48.4587L320.186 53.0544L321.853 57.3294L322.045 59.4669L326.128 59.6592L328.543 60.7708L332.433 63.9343C333.534 64.511 334.728 64.8874 335.96 65.0458L340.235 65.7725C340.235 65.7725 342.822 68.1879 343.014 69.2994C343.207 70.4109 343.378 73.0187 343.378 73.0187L344.874 75.1562L349.512 78.8755L348.208 82.0176L348.572 85.9078C348.572 85.9078 350.239 88.879 350.987 90.3753C351.785 91.5889 352.791 92.6525 353.958 93.5174C354.872 94.0963 355.688 94.818 356.374 95.6549C356.68 96.7428 356.866 97.861 356.929 98.9894L357.848 101.127L358.768 102.987L359.708 106.321L361.739 107.433L361.931 109.57L365.266 110.126H367.125L369.904 109.762L371.4 108.459C371.4 108.459 372.512 107.518 372.512 106.962C372.632 105.777 372.818 104.6 373.068 103.435C373.122 102.695 373.311 101.971 373.623 101.298C374.179 100.015 374.35 99.6307 374.906 98.5192C375.36 97.4344 375.988 96.4309 376.765 95.548C377.914 94.5993 378.972 93.5476 379.929 92.4059C380.677 91.2944 381.404 90.2684 381.404 90.2684C381.404 90.2684 387.346 89.3492 387.538 88.7935C388.085 87.3579 388.897 86.0381 389.932 84.9032C390.979 83.9547 391.918 82.8938 392.733 81.7397C392.733 81.7397 391.984 80.2648 392.54 79.7091C393.096 79.1533 394.485 78.2769 395.041 77.7212Z" fill="#ED8C24"/>
<path d="M227.163 103.541C229.685 101.617 230.219 100.698 229.92 100.399C229.621 100.099 227.398 98.4109 228.616 96.6581C229.835 94.9054 234.11 85.2011 234.11 85.2011H252.813V67.4598L252.514 67.2888C250.979 67.1539 249.452 66.9399 247.939 66.6475C245.588 65.9849 241.676 61.0259 241.292 61.0259C240.907 61.0259 239.603 58.5464 239.154 58.0334C238.899 57.1452 238.812 56.2174 238.898 55.2974L239.56 52.4117C239.56 52.4117 236.952 50.2742 236.952 49.9536C236.595 48.9585 236.159 47.9936 235.649 47.0679C235.049 44.5824 234.656 42.0515 234.473 39.5012C234.601 37.6843 235.777 36.8934 235.905 36.2521C236.033 35.6109 236.824 29.9893 236.824 29.9893C236.824 29.9893 237.594 27.3815 238.256 26.9967C239.026 26.2209 239.74 25.3924 240.394 24.5172C240.791 23.6982 240.941 22.7815 240.828 21.8785C240.714 20.9755 240.34 20.1249 239.753 19.43C238.32 18.1261 238.833 14.984 238.833 14.984L231.929 12.5044L232.699 11.2006L234.665 6.64765C234.649 5.6646 234.476 4.69047 234.152 3.76203C233.374 2.54649 232.661 1.29072 232.015 0L230.583 0.641259L224.32 1.02603L224.448 2.45815L223.401 5.47205L222.353 9.12717L217.8 12.5044L215.064 13.2953L212.927 13.8083C212.22 14.2687 211.562 14.7986 210.96 15.3901C210.576 15.9031 209.528 16.5443 208.823 17.2069C206.549 18.413 204.191 19.4559 201.769 20.3277C200.905 20.539 200.007 20.5683 199.131 20.4138C198.255 20.2592 197.421 19.9242 196.682 19.43C196.418 19.1944 196.084 19.0538 195.731 19.0306C195.379 19.0073 195.029 19.1028 194.737 19.3017L190.462 20.3277L189.286 21.5034C189.286 21.5034 189.286 25.2867 189.158 25.7784C189.03 26.27 187.469 27.3388 186.55 27.9159C185.631 28.493 184.99 27.2746 184.99 27.2746C184.23 26.4896 183.517 25.6617 182.852 24.7951C182.275 24.2394 180.138 21.2896 180.138 21.2896C179.131 22.0099 177.978 22.499 176.76 22.7217C175.178 22.85 176.76 22.7217 176.76 22.337C174.929 22.1944 173.089 22.2374 171.267 22.4652C170.497 22.4652 168.403 23.6409 168.274 23.1279C168.146 22.6148 165.795 20.2422 165.667 19.8575C165.538 19.4727 162.396 19.8575 162.396 19.8575L158.634 19.7292L154.851 16.8649L154.701 19.0024L158.228 22.7858L162.674 27.0609L164.491 28.7495L164.747 31.1007C164.747 31.1007 164.619 33.965 164.491 34.7559C164.363 35.5468 164.234 36.8934 164.234 36.8934L167.227 41.1684L167.355 46.2557L168.659 47.8161L172.72 48.9917L177.786 48.3291L179.753 52.3689L181.591 52.711L182.51 53.8438L183.964 55.0622L185.866 55.5966L188.623 55.9172C189.21 56.8417 189.718 57.8142 190.141 58.8242C190.141 59.038 188.773 60.7266 188.773 60.7266C188.509 61.0074 188.326 61.3544 188.244 61.7306C188.161 62.1069 188.181 62.4985 188.303 62.8641C188.947 64.1005 189.661 65.2995 190.44 66.4551C190.44 66.4551 194.095 72.718 193.882 73.7227C193.668 74.7273 193.112 76.6297 193.112 76.6297C193.112 76.6297 191.359 75.5609 192.727 79.8359C193.587 82.6225 194.174 85.486 194.48 88.386L198.071 92.661L198.456 95.1833L195.442 100.377C195.493 100.518 195.516 100.667 195.509 100.816C195.502 100.965 195.466 101.111 195.402 101.246C195.339 101.381 195.249 101.503 195.138 101.603C195.028 101.703 194.899 101.781 194.758 101.831L192.856 102.665C192.856 102.665 198.648 108.158 199.268 108.692C199.888 109.227 203.693 112.967 203.693 112.967C205.195 113.237 206.675 113.623 208.117 114.122C208.641 114.807 209.126 115.52 209.571 116.259C209.571 116.259 207.433 111.834 207.904 109.611C208.305 107.6 208.584 105.565 208.737 103.52L210.725 101.147L213.547 99.3941L217.202 98.475C217.591 99.5623 218.219 100.548 219.04 101.361L223.016 104.888C223.016 104.888 224.534 105.443 227.163 103.541Z" fill="#ED8C24"/>
<path d="M128.046 258.553C127.811 256.95 119.603 257.078 119.603 257.078L113.554 252.803C113.554 252.803 98.5911 247.224 94.6367 245.514C90.6823 243.804 67.4904 231.834 66.4644 231.492C65.4384 231.15 61.3343 228.414 58.4914 228.179C55.6485 227.944 37.2873 222.258 37.2873 222.258L24.6333 219.971C24.6333 219.971 18.8193 217.684 17.323 217.128C16.4253 216.765 11.851 214.242 8.49511 212.361C8.08898 213.516 4.02773 215.354 4.02773 215.354C4.02773 215.354 3.77122 219.522 4.81859 219.778C5.86597 220.035 6.379 222.899 6.379 222.899C6.379 222.899 9.75625 229.697 9.90587 230.081C10.0555 230.466 12.0434 234.249 12.0434 234.249C12.0434 234.249 18.4559 241.944 19.7384 243.654C21.0209 245.364 16.3612 250.302 16.3612 250.302C16.3612 250.302 18.9689 249.511 26.2578 251.478C33.5467 253.444 32.5207 259.686 32.5207 259.686C32.5207 259.686 46.0939 259.814 47.4833 259.429C48.8727 259.045 59.2182 252.119 59.2182 252.119L59.4747 255.902V267.637C59.4747 267.637 59.0899 275.738 59.0899 276.508C59.0899 277.277 61.0351 278.859 61.0351 278.859C61.0351 278.859 64.6902 278.09 66.1223 277.684C68.5452 276.948 71.0382 276.468 73.5609 276.251C78.9284 276.266 84.2897 276.616 89.6135 277.299L90.2548 280.035L95.7268 278.218C95.7268 278.218 99.6598 272.853 100.558 271.805C101.455 270.758 105.773 273.366 105.773 273.366L109.556 268.663C111.19 267.715 112.89 266.887 114.644 266.184C116.571 265.142 118.365 263.872 119.988 262.4L126.657 259.28L128.089 258.767C128.06 258.699 128.045 258.626 128.046 258.553Z" fill="#ED8C24"/>
</g>
<defs>
<filter id="filter0_d_14390_38599" x="0" y="0" width="656.648" height="673" filterUnits="userSpaceOnUse" color-interpolation-filters="sRGB">
<feFlood flood-opacity="0" result="BackgroundImageFix"/>
<feColorMatrix in="SourceAlpha" type="matrix" values="0 0 0 0 0 0 0 0 0 0 0 0 0 0 0 0 0 0 127 0" result="hardAlpha"/>
<feOffset dy="4"/>
<feGaussianBlur stdDeviation="2"/>
<feComposite in2="hardAlpha" operator="out"/>
<feColorMatrix type="matrix" values="0 0 0 0 0 0 0 0 0 0 0 0 0 0 0 0 0 0 0.25 0"/>
<feBlend mode="normal" in2="BackgroundImageFix" result="effect1_dropShadow_14390_38599"/>
<feBlend mode="normal" in="SourceGraphic" in2="effect1_dropShadow_14390_38599" result="shape"/>
</filter>
<linearGradient id="paint0_linear_14390_38599" x1="456.538" y1="319.194" x2="609.092" y2="319.194" gradientUnits="userSpaceOnUse">
<stop stop-color="#2581C4"/>
<stop offset="1" stop-color="#2581C4"/>
</linearGradient>
<linearGradient id="paint1_linear_14390_38599" x1="545.052" y1="232.605" x2="652.504" y2="232.605" gradientUnits="userSpaceOnUse">
<stop stop-color="#2581C4"/>
<stop offset="1" stop-color="#2581C4"/>
</linearGradient>
<linearGradient id="paint2_linear_14390_38599" x1="595.135" y1="254.172" x2="646.819" y2="254.172" gradientUnits="userSpaceOnUse">
<stop stop-color="#2581C4"/>
<stop offset="1" stop-color="#2581C4"/>
</linearGradient>
<linearGradient id="paint3_linear_14390_38599" x1="594.621" y1="269.775" x2="626.278" y2="269.775" gradientUnits="userSpaceOnUse">
<stop stop-color="#2581C4"/>
<stop offset="1" stop-color="#2581C4"/>
</linearGradient>
<linearGradient id="paint4_linear_14390_38599" x1="382.987" y1="406.703" x2="567.56" y2="406.703" gradientUnits="userSpaceOnUse">
<stop stop-color="#2581C4"/>
<stop offset="1" stop-color="#2581C4"/>
</linearGradient>
</defs>
</svg>
