<svg width="102" height="102" viewBox="0 0 102 102" fill="none" xmlns="http://www.w3.org/2000/svg">
<path d="M51 0C37.3907 0 24.5763 5.30812 14.9422 14.9422C5.30812 24.5763 0 37.3673 0 51C0 64.6094 5.30812 77.4237 14.9422 87.0578C24.5763 96.6919 37.3673 102 51 102C64.6094 102 77.4237 96.6919 87.0578 87.0578C96.6919 77.4237 102 64.6327 102 51C102 37.3907 96.6919 24.5763 87.0578 14.9422C77.4237 5.30812 64.6094 0 51 0ZM51 98.5392C24.7868 98.5392 3.4608 77.2132 3.4608 51C3.4608 24.7868 24.7868 3.4608 51 3.4608C77.2132 3.4608 98.5392 24.7868 98.5392 51C98.5392 77.2132 77.2132 98.5392 51 98.5392Z" fill="#036CC2"/>
<path d="M71.999 65.9883L71.6015 68.7943C75.8105 69.3789 77.4942 70.6417 77.6813 71.5302C77.8683 72.489 76.629 74.3831 72.5602 76.6045C68.5382 78.8026 62.9495 80.6499 56.8229 81.8425C50.6964 83.0117 44.827 83.3624 40.2672 82.8246C35.6606 82.2868 33.8133 80.9773 33.6262 80.0185C33.4625 79.13 34.5616 77.3294 38.2562 75.2249L36.8532 72.7462C31.2645 75.9498 30.5162 78.7558 30.8436 80.533C31.358 83.2221 34.5148 84.9759 39.9398 85.6306C41.4364 85.8177 43.0499 85.8879 44.7803 85.8879C48.6152 85.8879 52.9412 85.4436 57.3608 84.6018C63.7679 83.3624 69.6372 81.3982 73.9165 79.0832C78.7335 76.4642 81.0017 73.6582 80.4873 70.969C80.1132 69.1919 78.3594 66.8769 71.999 65.9883Z" fill="#036CC2"/>
<path d="M54.3909 75.808C54.7884 76.0419 55.2561 76.112 55.677 76.0419C56.0979 75.9483 56.5188 75.7145 56.7994 75.3637C57.501 74.4518 73.7994 52.9153 70.5023 35.7282C68.164 23.6388 56.5188 15.6883 44.4996 18.0033C32.5037 20.3183 24.6234 32.0336 26.9617 44.123C30.2589 61.2633 53.4088 75.2234 54.3909 75.808ZM60.8916 34.3018C62.6922 35.167 63.3703 37.5288 62.3882 39.5632C61.7568 40.8727 60.6344 41.7145 59.4184 41.9483C58.7169 42.0886 58.0154 42.0185 57.3607 41.6911C55.5601 40.8259 54.882 38.4641 55.8641 36.4298C56.8462 34.4188 59.091 33.46 60.8916 34.3018ZM49.0126 31.6595C49.1529 30.5137 49.6908 29.4848 50.4858 28.7599C51.3276 27.9882 52.3799 27.6608 53.4322 27.8011C54.4844 27.9414 55.3964 28.5494 56.0278 29.4848C56.6124 30.3967 56.8696 31.5192 56.7059 32.665C56.4487 34.6526 55.0457 36.1725 53.3854 36.4999C53.0347 36.5701 52.6605 36.5934 52.2864 36.5233C50.1584 36.2661 48.6853 34.0914 49.0126 31.6595ZM53.4789 39.002L57.4542 43.1877C58.1089 43.8892 58.5298 44.7544 58.6468 45.7131C58.7637 46.6718 58.5766 47.6072 58.1089 48.449C57.6413 49.2908 56.9164 49.9222 56.0512 50.3197C55.7472 50.46 55.4198 50.5536 55.0924 50.6237C54.4844 50.7406 53.8765 50.7172 53.2685 50.6003C50.9301 50.0625 48.4514 50.5302 46.4638 51.8864L46.417 51.9332C45.622 52.471 44.71 52.7516 43.7513 52.7049C42.7926 52.6815 41.8806 52.3307 41.1323 51.7461C40.384 51.1381 39.8462 50.3431 39.6124 49.4077C39.3785 48.4724 39.4253 47.5137 39.7761 46.6251L41.9274 41.2702C42.8159 39.0487 44.7568 37.4353 47.0952 36.991C49.4335 36.4999 51.8421 37.2482 53.4789 39.002ZM43.0732 27.3101C45.3648 26.8658 47.633 28.6196 48.1241 31.2386C48.6151 33.8342 47.1653 36.3128 44.8971 36.7571C42.6055 37.2014 40.3373 35.4476 39.8462 32.8287C39.3318 30.2331 40.7816 27.7544 43.0732 27.3101ZM34.4446 40.0776C33.252 38.1602 33.6495 35.7282 35.3331 34.676C36.175 34.1615 37.2038 34.0446 38.2093 34.3486C39.1681 34.6526 40.0099 35.3307 40.5711 36.2427C41.1323 37.1547 41.3661 38.2069 41.2258 39.189C41.0622 40.2413 40.5243 41.1065 39.6825 41.621C39.3318 41.8314 38.9576 41.9717 38.5835 42.0419C37.0635 42.3692 35.3799 41.621 34.4446 40.0776Z" fill="#036CC2"/>
</svg>
