<svg width="33" height="46" viewBox="0 0 33 46" fill="none" xmlns="http://www.w3.org/2000/svg">
<path fill-rule="evenodd" clip-rule="evenodd" d="M0.331558 34.4653C1.06911 38.6013 3.27384 42.3323 6.54094 44.9734C7.00454 45.3752 7.55128 45.6694 8.14211 45.8346C8.73294 45.9998 9.35314 46.0319 9.9579 45.9288C10.4819 45.8358 10.9823 45.6402 11.4306 45.3532C11.8788 45.0663 12.266 44.6936 12.5698 44.2566C12.8736 43.8196 13.0881 43.3269 13.2011 42.8068C13.314 42.2867 13.323 41.7495 13.2278 41.2258C13.0647 40.2306 12.5254 39.3362 11.7214 38.7274C10.6954 37.9005 9.85694 36.8649 9.26159 35.6893C8.66625 34.5137 8.32753 33.2249 8.26814 31.9085C8.20876 30.5921 8.43006 29.2781 8.91714 28.0537C9.40422 26.8292 10.1461 25.7224 11.0935 24.8065C12.0409 23.8906 13.1723 23.1865 14.4125 22.7411C15.6527 22.2957 16.9733 22.119 18.2869 22.2228C19.6006 22.3267 20.8772 22.7086 22.032 23.3433C23.1868 23.9781 24.1934 24.8512 24.9852 25.9045C25.5175 26.6426 26.2814 27.1813 27.1553 27.4352C28.0292 27.6891 28.9629 27.6434 29.8078 27.3055C30.6527 26.9675 31.3603 26.3567 31.818 25.5702C32.2757 24.7837 32.4571 23.8667 32.3335 22.9651C32.1423 22.2857 31.8447 21.6409 31.4518 21.0546C29.1079 17.9059 25.7709 15.6393 21.98 14.621C18.189 13.6026 14.1655 13.892 10.5594 15.4424C6.95316 16.9928 3.97482 19.7136 2.10563 23.1653C0.236452 26.617 -0.414395 30.598 0.258003 34.4653H0.331558Z" fill="#3CBDEE"/>
<path d="M16.5016 37.2192C15.28 37.2182 14.0865 36.8526 13.0739 36.1691C12.0614 35.4856 11.2759 34.5153 10.8181 33.3827C10.3603 32.2501 10.2512 31.0065 10.5044 29.8113C10.7577 28.6162 11.3618 27.524 12.2397 26.6744C13.4246 25.6091 14.9775 25.0466 16.5698 25.1058C18.1621 25.165 19.6689 25.8413 20.7714 26.9916C21.874 28.1419 22.4859 29.676 22.4776 31.2693C22.4693 32.8627 21.8415 34.3904 20.727 35.5291C19.5915 36.6198 18.0761 37.2259 16.5016 37.2192ZM16.5016 26.1967C15.6874 26.2012 14.8866 26.4046 14.1689 26.7893C13.4513 27.1739 12.8385 27.7281 12.3839 28.4036C11.9293 29.0791 11.6467 29.8555 11.5606 30.6652C11.4746 31.4749 11.5877 32.2933 11.8901 33.0493C12.1925 33.8053 12.675 34.476 13.2957 35.0029C13.9164 35.5299 14.6566 35.8971 15.4517 36.0727C16.2468 36.2484 17.0728 36.227 17.8577 36.0106C18.6427 35.7942 19.3626 35.3893 19.9554 34.831C20.6674 34.1357 21.1574 33.2448 21.3633 32.2711C21.5691 31.2974 21.4817 30.2845 21.1121 29.3605C20.7425 28.4364 20.1072 27.6427 19.2867 27.0796C18.4661 26.5165 17.4968 26.2092 16.5016 26.1967Z" fill="#3CBDEE"/>
<path d="M16.0444 45.9988C17.5866 45.9988 18.8367 44.7486 18.8367 43.2064C18.8367 41.6642 17.5866 40.4141 16.0444 40.4141C14.5022 40.4141 13.252 41.6642 13.252 43.2064C13.252 44.7486 14.5022 45.9988 16.0444 45.9988Z" fill="#056FB5"/>
<path d="M16.4952 11.096C19.5593 11.096 22.0433 8.61203 22.0433 5.54794C22.0433 2.48386 19.5593 0 16.4952 0C13.4311 0 10.9473 2.48386 10.9473 5.54794C10.9473 8.61203 13.4311 11.096 16.4952 11.096Z" fill="#056FB5"/>
</svg>
