<svg width="90" height="75" viewBox="0 0 90 75" fill="none" xmlns="http://www.w3.org/2000/svg">
<circle cx="45" cy="31" r="31" fill="white"/>
<path d="M21 31.7817C21 31.6408 21 31.4857 21 31.3447C21.0745 31.1756 21.0745 30.9923 21 30.8231C21 30.654 21 30.4707 21 30.3015C21.0745 30.1324 21.0745 29.9491 21 29.78C21 29.639 21 29.4839 21 29.343C21.0596 29.3007 21.0447 29.2302 21.0447 29.1738C21.0447 29.1174 21.0596 29.0469 21 29.0046C21 28.8918 21 28.765 21 28.6522C21.1043 28.0601 21.0894 27.468 21.149 26.876C21.2979 25.4804 21.715 24.1411 22.2214 22.8442C22.981 20.9129 23.9641 19.0944 25.2302 17.4168C26.5856 15.5842 28.1794 14.0053 29.9817 12.652C32.6181 10.6643 35.5971 9.31103 38.8442 8.4934C40.0358 8.19736 41.2423 8.11278 42.4637 8.04229C42.5531 8.04229 42.6573 8.07049 42.7318 8C42.9552 8 43.1638 8 43.3872 8C43.5659 8.09868 43.7596 8.02819 43.9383 8.04229C44.1171 8.0141 44.3107 8.08458 44.4894 8C45.0108 8 45.547 8 46.0683 8C46.113 8.05639 46.1875 8.04229 46.247 8.04229C46.3066 8.04229 46.3811 8.05639 46.4258 8C46.5151 8 46.6045 8 46.7088 8C47.394 8.09868 48.094 8.07049 48.7792 8.15507C50.507 8.35243 52.1604 8.83173 53.769 9.46609C55.5266 10.1569 57.2098 11.0168 58.7439 12.0741C60.8888 13.5542 62.7209 15.3164 64.27 17.3464C66.0425 19.6724 67.2639 22.2239 68.0235 25.0011C68.3363 26.1711 68.5002 27.3553 68.53 28.5535C68.5598 29.8082 68.5449 31.0769 68.53 32.3315C68.5002 34.4461 68.0086 36.4479 67.2341 38.4215C66.3106 40.8039 64.985 42.9889 63.272 44.9484C61.6336 46.8233 59.7568 48.4445 57.5672 49.7414C55.4522 50.996 53.203 51.9405 50.79 52.5467C49.5388 52.8568 48.2728 52.9696 46.9918 53.0401C46.8875 53.0401 46.7684 53.0119 46.679 53.0824C46.5896 53.0824 46.5003 53.0824 46.396 53.0824C46.3513 53.026 46.2768 53.0401 46.2172 53.0401C46.1577 53.0401 46.0832 53.026 46.0385 53.0824C45.8896 53.0824 45.7257 53.0824 45.5768 53.0824C45.398 53.0119 45.2044 53.0119 45.0256 53.0824C44.8469 53.0824 44.6533 53.0824 44.4745 53.0824C44.2511 53.0119 44.0426 53.0119 43.8192 53.0824C43.7 53.0824 43.5659 53.0824 43.4468 53.0824C43.4021 53.026 43.3276 53.0401 43.268 53.0401C43.2085 53.0401 43.134 53.026 43.0893 53.0824C42.9701 53.0824 42.8361 53.0824 42.7169 53.0824C42.0913 52.9837 41.4657 52.9978 40.8401 52.9273C39.157 52.7441 37.5484 52.2789 35.9844 51.6868C33.3778 50.7141 31.0094 49.3467 28.9092 47.5845C26.2281 45.3149 24.128 42.6224 22.7129 39.4646C22.0575 37.9844 21.5362 36.4761 21.2383 34.8972C21.1043 34.1641 21.1043 33.417 21.0447 32.6699C21.0447 32.5994 21.0596 32.5289 21 32.4584C21 32.3456 21 32.2188 21 32.106C21.0596 32.0637 21.0447 31.9932 21.0447 31.9368C21.0447 31.8945 21.0596 31.824 21 31.7817Z" fill="#F8BA06"/>
<path d="M43.8477 53.0834C44.0711 52.9566 44.2796 52.9566 44.503 53.0834C44.2796 53.0834 44.0562 53.0834 43.8477 53.0834Z" fill="#F8BF1B"/>
<path d="M43.9222 8.08458C43.7435 8.05639 43.5349 8.15507 43.3711 8C43.5498 8 43.7435 8 43.9222 8C43.9967 8.02819 43.9967 8.05639 43.9222 8.08458Z" fill="#F8CB49"/>
<path d="M43.9238 8.08458C43.9238 8.05639 43.9238 8.02819 43.9387 8C44.1175 8 44.3111 8 44.4898 8C44.326 8.12687 44.1175 8.08458 43.9238 8.08458Z" fill="#F8C01C"/>
<path d="M21 29.752C21.1341 29.9211 21.1192 30.1044 21 30.2735C21 30.1044 21 29.9211 21 29.752Z" fill="#F8BE16"/>
<path d="M21 30.8086C21.1192 30.9778 21.1341 31.161 21 31.3302C21 31.161 21 30.9778 21 30.8086Z" fill="#F8BE16"/>
<path d="M45.0566 53.0821C45.2354 52.9694 45.429 52.9553 45.6078 53.0821C45.429 53.0821 45.2354 53.0821 45.0566 53.0821Z" fill="#F8BF1B"/>
<path d="M46.262 8.07049C46.1875 8.08458 46.113 8.07049 46.0684 8C46.1279 8 46.1875 8 46.2471 8C46.3216 8.02819 46.3216 8.04229 46.262 8.07049Z" fill="#F8D674"/>
<path d="M46.2637 8.07049C46.2637 8.04229 46.2637 8.0141 46.2637 8C46.3233 8 46.3828 8 46.4424 8C46.4126 8.08458 46.3381 8.08458 46.2637 8.07049Z" fill="#F9DE8E"/>
<path d="M21 28.9629C21.0883 28.9911 21.0883 29.0616 21.0736 29.1321C21.0442 29.1884 21.0294 29.2025 21 29.1321C21 29.0757 21 29.0193 21 28.9629Z" fill="#F9DE8D"/>
<path d="M21 29.1309C21.0294 29.1309 21.0442 29.1309 21.0736 29.1309C21.0883 29.2013 21.0736 29.2718 21 29.3141C21 29.2436 21 29.1872 21 29.1309Z" fill="#F8D674"/>
<path d="M21 31.7812C21.0736 31.8235 21.0883 31.894 21.0736 31.9645C21.0442 32.0209 21.0147 32.0209 21 31.9645C21 31.894 21 31.8376 21 31.7812Z" fill="#F8D675"/>
<path d="M21 31.9512C21.0294 31.9512 21.0589 31.9512 21.0736 31.9512C21.0883 32.0217 21.0883 32.0921 21 32.1203C21 32.0639 21 32.0076 21 31.9512Z" fill="#F9DE8E"/>
<path d="M43.1035 53.0814C43.1333 52.9968 43.2078 52.9968 43.2823 53.0109C43.3418 53.0391 43.3567 53.0532 43.2823 53.0814C43.2227 53.0814 43.1631 53.0814 43.1035 53.0814Z" fill="#F9DF91"/>
<path d="M43.2852 53.0832C43.2852 53.055 43.2852 53.0268 43.2852 53.0127C43.3596 52.9986 43.4341 53.0127 43.4788 53.0832C43.4192 53.0832 43.3447 53.0832 43.2852 53.0832Z" fill="#F8D776"/>
<path d="M46.0684 53.0832C46.113 53.0127 46.1875 52.9986 46.262 53.0127C46.3216 53.0409 46.3216 53.0691 46.262 53.0832C46.2024 53.0832 46.1279 53.0832 46.0684 53.0832Z" fill="#F8D777"/>
<path d="M46.2637 53.0814C46.2637 53.0532 46.2637 53.025 46.2637 53.0109C46.3381 52.9968 46.4126 52.9968 46.4424 53.0814C46.3828 53.0814 46.3233 53.0814 46.2637 53.0814Z" fill="#F9DF91"/>
<path d="M44.7591 33.6563C40.8268 33.6563 36.8945 33.6563 32.9771 33.6704C32.5452 33.6704 32.4111 33.5999 32.4111 33.1488C32.4409 30.7523 32.426 28.3699 32.426 25.9734C32.426 25.6914 32.3664 25.5082 32.0983 25.3249C31.2344 24.7328 31.011 23.6333 31.5174 22.7733C32.0238 21.8993 33.141 21.5328 34.124 21.8993C35.0922 22.2799 35.6433 23.2667 35.3603 24.2394C35.2709 24.5214 35.3305 24.6905 35.5391 24.8879C36.9839 26.354 38.4287 27.8342 39.8586 29.3144C40.0969 29.554 40.1863 29.5822 40.3501 29.258C41.229 27.5663 42.1227 25.8747 43.0164 24.183C43.1355 23.9575 43.1206 23.8024 42.9866 23.591C42.4503 22.7451 42.6589 21.702 43.4334 21.0817C44.208 20.4614 45.34 20.4473 46.1294 21.0676C46.9188 21.6879 47.1274 22.7169 46.6061 23.5628C46.4422 23.8165 46.4571 23.9998 46.5912 24.2394C47.4849 25.9029 48.3637 27.5522 49.2276 29.2298C49.3914 29.554 49.4808 29.5822 49.7489 29.3003C51.1937 27.806 52.6385 26.3258 54.0982 24.8456C54.277 24.6623 54.3217 24.5073 54.2472 24.2676C53.9493 23.2667 54.4855 22.2658 55.4686 21.8852C56.4516 21.5046 57.5539 21.8711 58.0752 22.7451C58.6114 23.6333 58.3731 24.7046 57.4794 25.3249C57.2411 25.4941 57.1815 25.6491 57.1815 25.9029C57.1964 28.3276 57.1815 30.7382 57.1964 33.1629C57.1964 33.5576 57.0623 33.6422 56.6751 33.6422C52.6832 33.6422 48.7211 33.6563 44.7591 33.6563Z" fill="#F9F9F9"/>
<path d="M44.7718 35.2914C49.0318 35.2914 53.2769 35.2914 57.5368 35.2914C58.4156 35.2914 58.6986 35.5593 58.6986 36.391C58.6986 37.4201 58.6986 38.4492 58.6986 39.4642C58.6986 40.1831 58.3858 40.4651 57.6113 40.4651C49.0467 40.4651 40.482 40.4651 31.9025 40.4651C31.1429 40.4651 30.8301 40.169 30.8301 39.4501C30.8301 38.3928 30.8301 37.3355 30.8301 36.2782C30.8301 35.5593 31.1429 35.2773 31.9174 35.2773C36.2072 35.2914 40.4969 35.2914 44.7718 35.2914Z" fill="#F9F9F9"/>
<rect y="55" width="90" height="20" fill="white"/>
<path d="M17.1027 61.98V69H15.3927V64.79L13.8227 69H12.4427L10.8627 64.78V69H9.15274V61.98H11.1727L13.1427 66.84L15.0927 61.98H17.1027ZM22.7024 67.76H20.0824L19.6624 69H17.8724L20.4124 61.98H22.3924L24.9324 69H23.1224L22.7024 67.76ZM22.2624 66.44L21.3924 63.87L20.5324 66.44H22.2624ZM27.4155 61.98V69H25.7055V61.98H27.4155ZM31.1947 69.07C30.6814 69.07 30.2214 68.9867 29.8147 68.82C29.408 68.6533 29.0814 68.4067 28.8347 68.08C28.5947 67.7533 28.468 67.36 28.4547 66.9H30.2747C30.3014 67.16 30.3914 67.36 30.5447 67.5C30.698 67.6333 30.898 67.7 31.1447 67.7C31.398 67.7 31.598 67.6433 31.7447 67.53C31.8914 67.41 31.9647 67.2467 31.9647 67.04C31.9647 66.8667 31.9047 66.7233 31.7847 66.61C31.6714 66.4967 31.528 66.4033 31.3547 66.33C31.188 66.2567 30.948 66.1733 30.6347 66.08C30.1814 65.94 29.8114 65.8 29.5247 65.66C29.238 65.52 28.9914 65.3133 28.7847 65.04C28.578 64.7667 28.4747 64.41 28.4747 63.97C28.4747 63.3167 28.7114 62.8067 29.1847 62.44C29.658 62.0667 30.2747 61.88 31.0347 61.88C31.808 61.88 32.4314 62.0667 32.9047 62.44C33.378 62.8067 33.6314 63.32 33.6647 63.98H31.8147C31.8014 63.7533 31.718 63.5767 31.5647 63.45C31.4114 63.3167 31.2147 63.25 30.9747 63.25C30.768 63.25 30.6014 63.3067 30.4747 63.42C30.348 63.5267 30.2847 63.6833 30.2847 63.89C30.2847 64.1167 30.3914 64.2933 30.6047 64.42C30.818 64.5467 31.1514 64.6833 31.6047 64.83C32.058 64.9833 32.4247 65.13 32.7047 65.27C32.9914 65.41 33.238 65.6133 33.4447 65.88C33.6514 66.1467 33.7547 66.49 33.7547 66.91C33.7547 67.31 33.6514 67.6733 33.4447 68C33.2447 68.3267 32.9514 68.5867 32.5647 68.78C32.178 68.9733 31.7214 69.07 31.1947 69.07ZM43.5162 61.98L41.0262 69H38.8862L36.3962 61.98H38.2162L39.9562 67.28L41.7062 61.98H43.5162ZM45.9409 63.35V64.77H48.2309V66.09H45.9409V67.63H48.5309V69H44.2309V61.98H48.5309V63.35H45.9409ZM55.921 69H54.211L51.351 64.67V69H49.641V61.98H51.351L54.211 66.33V61.98H55.921V69ZM59.7906 61.98C60.5306 61.98 61.1772 62.1267 61.7306 62.42C62.2839 62.7133 62.7106 63.1267 63.0106 63.66C63.3172 64.1867 63.4706 64.7967 63.4706 65.49C63.4706 66.1767 63.3172 66.7867 63.0106 67.32C62.7106 67.8533 62.2806 68.2667 61.7206 68.56C61.1672 68.8533 60.5239 69 59.7906 69H57.1606V61.98H59.7906ZM59.6806 67.52C60.3272 67.52 60.8306 67.3433 61.1906 66.99C61.5506 66.6367 61.7306 66.1367 61.7306 65.49C61.7306 64.8433 61.5506 64.34 61.1906 63.98C60.8306 63.62 60.3272 63.44 59.6806 63.44H58.8706V67.52H59.6806ZM66.1362 61.98V69H64.4262V61.98H66.1362ZM70.0054 61.98C70.7454 61.98 71.3921 62.1267 71.9454 62.42C72.4987 62.7133 72.9254 63.1267 73.2254 63.66C73.5321 64.1867 73.6854 64.7967 73.6854 65.49C73.6854 66.1767 73.5321 66.7867 73.2254 67.32C72.9254 67.8533 72.4954 68.2667 71.9354 68.56C71.3821 68.8533 70.7387 69 70.0054 69H67.3754V61.98H70.0054ZM69.8954 67.52C70.5421 67.52 71.0454 67.3433 71.4054 66.99C71.7654 66.6367 71.9454 66.1367 71.9454 65.49C71.9454 64.8433 71.7654 64.34 71.4054 63.98C71.0454 63.62 70.5421 63.44 69.8954 63.44H69.0854V67.52H69.8954ZM77.961 69.07C77.301 69.07 76.6944 68.9167 76.141 68.61C75.5944 68.3033 75.1577 67.8767 74.831 67.33C74.511 66.7767 74.351 66.1567 74.351 65.47C74.351 64.7833 74.511 64.1667 74.831 63.62C75.1577 63.0733 75.5944 62.6467 76.141 62.34C76.6944 62.0333 77.301 61.88 77.961 61.88C78.621 61.88 79.2244 62.0333 79.771 62.34C80.3244 62.6467 80.7577 63.0733 81.071 63.62C81.391 64.1667 81.551 64.7833 81.551 65.47C81.551 66.1567 81.391 66.7767 81.071 67.33C80.751 67.8767 80.3177 68.3033 79.771 68.61C79.2244 68.9167 78.621 69.07 77.961 69.07ZM77.961 67.51C78.521 67.51 78.9677 67.3233 79.301 66.95C79.641 66.5767 79.811 66.0833 79.811 65.47C79.811 64.85 79.641 64.3567 79.301 63.99C78.9677 63.6167 78.521 63.43 77.961 63.43C77.3944 63.43 76.941 63.6133 76.601 63.98C76.2677 64.3467 76.101 64.8433 76.101 65.47C76.101 66.09 76.2677 66.5867 76.601 66.96C76.941 67.3267 77.3944 67.51 77.961 67.51Z" fill="#F8BA06"/>
</svg>
