<svg width="120" height="139" viewBox="0 0 120 139" fill="none" xmlns="http://www.w3.org/2000/svg">
<path d="M88.6548 0C89.8472 0.420424 90.8734 1.21185 91.583 2.25826C92.2926 3.30467 92.6482 4.55103 92.5976 5.81433C92.897 12.1527 93.3462 18.466 93.7704 24.8043C94.2695 32.7064 94.7769 40.6085 95.2926 48.5107C95.2926 49.409 95.2926 50.3073 95.2926 51.2306C95.3395 51.5078 95.3257 51.792 95.2523 52.0634C95.1789 52.3348 95.0476 52.587 94.8674 52.8028C94.6871 53.0186 94.4623 53.1928 94.2083 53.3134C93.9543 53.434 93.6772 53.4982 93.3961 53.5015C93.1128 53.5198 92.8288 53.4774 92.5632 53.3773C92.2975 53.2772 92.0563 53.1216 91.8555 52.9209C91.6548 52.7201 91.4992 52.4789 91.3991 52.2132C91.299 51.9476 91.2567 51.6636 91.275 51.3803L90.751 43.8941C89.9524 31.0926 89.1539 18.2913 88.2556 5.48992C88.2556 4.94093 87.6567 4.46682 87.3073 3.94278C86.933 4.41691 86.2842 4.89092 86.2343 5.39001C85.9348 8.78375 85.7602 12.2025 85.5356 15.6213C85.0365 23.6065 84.5125 31.6168 84.0134 39.602C83.6141 45.8239 83.2232 52.0209 82.8405 58.1928C82.6409 61.0875 82.4163 63.9571 82.2915 66.8268C82.2018 67.3548 82.2313 67.8963 82.3777 68.4114C82.5241 68.9266 82.7838 69.4024 83.1378 69.8043C83.4918 70.2061 83.9312 70.5238 84.4238 70.734C84.9163 70.9442 85.4497 71.0417 85.9847 71.0192C86.7673 71.0753 87.5269 71.3089 88.2058 71.7023C88.8846 72.0958 89.4649 72.6388 89.9025 73.29C94.5211 79.7334 97.1262 87.4011 97.3887 95.3245C97.4384 95.8777 97.3451 96.4343 97.1179 96.9412C96.8907 97.448 96.5371 97.888 96.0911 98.2191C92.9035 101.29 91.0636 105.499 90.9747 109.924C90.8858 114.35 92.5553 118.629 95.617 121.826C96.6574 122.882 97.9081 123.707 99.2881 124.249C100.668 124.79 102.146 125.036 103.627 124.97C104.283 124.91 104.939 125.075 105.487 125.438C106.036 125.801 106.445 126.34 106.647 126.966C107.395 128.863 108.144 130.734 108.917 132.606C109.516 134.028 110.589 134.602 111.737 134.153C112.034 134.04 112.302 133.864 112.524 133.637C112.746 133.41 112.916 133.138 113.023 132.84C113.13 132.541 113.171 132.222 113.143 131.906C113.114 131.59 113.018 131.284 112.86 131.009C112.112 129.087 111.338 127.166 110.515 125.269C110.176 124.634 110.059 123.904 110.181 123.195C110.303 122.486 110.657 121.837 111.188 121.351C113.718 118.416 115.165 114.701 115.287 110.828C115.41 106.954 114.201 103.156 111.862 100.066C110.918 98.8272 109.728 97.7976 108.367 97.0417C107.005 96.2859 105.502 95.8201 103.952 95.6737C103.669 95.6738 103.389 95.6174 103.128 95.5077C102.868 95.398 102.632 95.2372 102.434 95.0349C102.236 94.8326 102.081 94.5929 101.977 94.3297C101.874 94.0666 101.824 93.7854 101.831 93.5027C101.232 85.2959 98.3824 77.4129 93.5957 70.7197C93.0653 69.9045 92.7479 68.9694 92.6724 67.9998C92.3979 65.5043 92.2482 63.0089 92.1234 60.5135C92.1234 58.8416 93.446 57.6438 94.7686 58.2926C95.1081 58.4789 95.404 58.7356 95.6364 59.0455C95.8688 59.3553 96.0324 59.7112 96.1161 60.0894C96.4156 62.3851 96.4655 64.7557 96.6651 67.0765C96.7193 67.73 96.9243 68.3621 97.264 68.923C101.804 75.3935 104.676 82.8854 105.624 90.7328C105.624 91.3567 105.798 91.8308 106.622 92.0803C109.73 92.9182 112.529 94.6356 114.685 97.0259C116.841 99.4162 118.261 102.378 118.774 105.556C119.552 108.625 119.61 111.832 118.944 114.927C118.277 118.022 116.904 120.921 114.931 123.398C114.809 123.611 114.73 123.847 114.7 124.091C114.67 124.335 114.69 124.583 114.757 124.82C115.356 126.467 116.079 128.064 116.678 129.811C117.022 130.57 117.209 131.39 117.228 132.222C117.248 133.055 117.099 133.883 116.79 134.656C116.482 135.43 116.021 136.133 115.434 136.724C114.847 137.315 114.147 137.782 113.376 138.096C112.605 138.411 111.778 138.566 110.946 138.553C110.113 138.54 109.291 138.359 108.53 138.021C107.769 137.683 107.084 137.195 106.516 136.587C105.948 135.978 105.509 135.26 105.224 134.477C104.6 133.03 104.076 131.533 103.428 130.11C103.331 129.906 103.192 129.725 103.02 129.579C102.847 129.433 102.646 129.325 102.429 129.262C99.294 128.936 96.3199 127.71 93.8666 125.73C91.4133 123.751 89.5858 121.103 88.6049 118.108L88.3055 117.558L87.7565 118.656C86.4147 122.122 83.9905 125.063 80.8442 127.041C78.0678 128.769 74.786 129.5 71.5386 129.115C68.2912 128.729 65.2718 127.25 62.9771 124.92C59.3015 121.052 57.252 115.92 57.252 110.584C57.252 105.248 59.3015 100.116 62.9771 96.2477C64.685 94.8171 66.5623 93.6018 68.5668 92.6294C69.1408 92.305 69.4402 92.0804 69.5151 91.3817C70.4191 83.3928 73.2914 75.7532 77.8747 69.1477C78.3101 68.4929 78.5681 67.7362 78.6233 66.9517C79.1723 58.7418 79.6714 50.507 80.1954 42.2971C80.5947 36.0586 80.969 29.8201 81.3683 23.5566C81.7675 17.2932 82.1169 11.354 82.5161 5.24029C82.5899 4.10314 83.0095 3.01577 83.7186 2.12377C84.4278 1.23177 85.3926 0.577757 86.4838 0.249479L88.6548 0ZM80.1954 72.8159L79.7213 73.5146C76.0093 79.4487 73.7995 86.1979 73.2831 93.1783C73.1584 95.1247 72.7591 95.6737 70.7877 96.0231C68.4083 96.6228 66.2887 97.9804 64.7489 99.8909C62.4594 102.782 61.1725 106.339 61.0824 110.026C60.9924 113.713 62.1041 117.329 64.2498 120.328C65.1149 121.641 66.2631 122.744 67.61 123.556C68.957 124.367 70.4686 124.866 72.0338 125.017C73.599 125.168 75.1781 124.966 76.6552 124.427C78.1323 123.888 79.4699 123.024 80.5697 121.9C82.1635 120.224 83.3867 118.23 84.1599 116.05C84.9331 113.87 85.2391 111.551 85.0579 109.245C84.8767 106.939 84.2124 104.696 83.1081 102.663C82.0039 100.631 80.4843 98.8528 78.6483 97.4455C78.1652 97.2006 77.775 96.8053 77.5364 96.3192C77.2978 95.833 77.2239 95.2823 77.3257 94.7504C77.6369 91.716 78.1538 88.7064 78.8729 85.742C80.0457 82.0488 81.7675 78.5304 83.2648 74.9121C82.3914 74.3631 81.2934 73.6144 80.0956 72.8159H80.1954ZM87.482 76.8334L87.1826 77.3076C83.9647 82.2109 82.0495 87.8534 81.6178 93.7024C81.6178 94.1016 81.9671 94.5508 82.2416 94.9001C83.6141 96.5471 85.1114 98.0942 86.409 99.8909C87.0879 100.991 87.6802 102.143 88.1807 103.335C88.9044 101.962 89.4783 100.59 90.2768 99.392C91.0754 98.1942 92.2233 97.0462 93.1466 95.8484C93.35 95.5571 93.4469 95.2047 93.4211 94.8503C93.1229 88.4462 91.0682 82.2476 87.482 76.9333V76.8334Z" fill="#2B76B0"/>
<path d="M23.4254 71.2939H17.4864C15.2403 71.3137 13.0127 70.8868 10.9331 70.0379C8.85348 69.1891 6.96343 67.9352 5.37283 66.3492C3.78223 64.7632 2.52281 62.877 1.66788 60.7999C0.812945 58.7228 0.379556 56.4963 0.392876 54.2502C0.392876 46.6974 0.392876 39.1363 0.392876 31.5669C0.455595 30.0381 0.656014 28.5182 0.991749 27.0254C1.02041 26.7352 1.11007 26.4542 1.25482 26.201C1.39957 25.9478 1.59615 25.7279 1.83172 25.556C2.0673 25.384 2.33654 25.2638 2.62182 25.2031C2.9071 25.1424 3.20197 25.1425 3.48715 25.2037C4.7099 25.4782 5.20901 26.4764 5.03433 27.9237C4.80974 29.945 4.53523 31.9413 4.51028 33.9626C4.51028 40.617 4.51028 47.2714 4.51028 53.9258C4.41947 56.6127 5.17194 59.2606 6.66219 61.4982C8.15243 63.7358 10.3057 65.4509 12.82 66.4028C14.482 66.9328 16.216 67.2022 17.9605 67.2014C29.4893 67.2014 41.018 67.2014 52.5468 67.2014C54.3219 67.3036 56.0987 67.0336 57.7632 66.4084C59.4278 65.7833 60.9432 64.817 62.2121 63.5716C63.4811 62.3261 64.4755 60.829 65.1316 59.1764C65.7878 57.5239 66.091 55.7524 66.022 53.9757C66.1467 46.4895 66.022 39.2029 66.022 31.8166C66.1334 28.749 65.1389 25.7434 63.2196 23.3478C61.3004 20.9522 58.5843 19.3261 55.5662 18.7656C54.7402 18.6448 53.9054 18.5948 53.0708 18.6159H17.4115C14.5673 18.5213 11.7762 19.4017 9.50108 21.1113C8.20347 22.0845 7.00568 22.0097 6.30697 21.1113C5.60826 20.213 5.75799 18.9403 7.13046 17.9171C9.70244 15.8303 12.902 14.6701 16.2137 14.6232C28.9652 14.6232 41.7167 14.4735 54.4433 14.6232C58.2592 14.8384 61.881 16.376 64.6862 18.9717C67.4914 21.5675 69.3049 25.0593 69.815 28.847C69.9734 30.1805 70.0568 31.5218 70.0645 32.8646C70.0645 40.0264 70.0645 47.1882 70.0645 54.35C70.0663 58.2099 68.7519 61.9553 66.3384 64.9676C63.9249 67.98 60.5564 70.0794 56.789 70.9195C55.5953 71.1441 54.385 71.2694 53.1706 71.2939C51.2492 71.2939 49.3028 71.2939 47.1817 71.2939V95.7987C47.2066 96.2476 47.2066 96.6974 47.1817 97.1462C47.1633 97.6036 46.9733 98.0372 46.6496 98.3609C46.3259 98.6845 45.8923 98.8746 45.4349 98.893C44.9622 98.9899 44.4703 98.8979 44.0646 98.6367C43.6588 98.3755 43.3714 97.966 43.2639 97.4956C43.1585 97.0123 43.1165 96.5173 43.1391 96.0232V71.3686H27.6427C27.6427 71.8677 27.6427 72.3169 27.6427 72.7411V115.438C27.4934 117.183 27.961 118.926 28.9641 120.362C29.9673 121.798 31.4423 122.837 33.1326 123.298C34.2957 123.662 35.5288 123.745 36.73 123.539C37.9313 123.332 39.0663 122.844 40.0413 122.112C41.0164 121.381 41.8036 120.428 42.3379 119.333C42.8722 118.237 43.1382 117.03 43.1142 115.812C43.1142 112.568 43.1142 109.324 43.1142 106.08C43.061 105.792 43.0681 105.495 43.135 105.21C43.2019 104.925 43.3273 104.656 43.5031 104.422C43.679 104.187 43.9015 103.992 44.1567 103.848C44.4119 103.704 44.6941 103.614 44.9857 103.584C45.2328 103.542 45.4859 103.551 45.7292 103.611C45.9726 103.671 46.2009 103.78 46.4 103.933C46.5991 104.085 46.7646 104.277 46.8863 104.496C47.0079 104.715 47.083 104.957 47.1068 105.206C47.3194 109.565 47.2444 113.933 46.8822 118.282C46.6157 119.776 46.0545 121.202 45.2312 122.476C44.408 123.751 43.3392 124.848 42.0872 125.706C40.8352 126.563 39.4251 127.162 37.9391 127.468C36.4531 127.775 34.9209 127.782 33.432 127.49C30.6093 127.061 28.0397 125.618 26.2028 123.432C24.3659 121.246 23.3876 118.467 23.4504 115.612C23.4504 101.463 23.4504 87.3144 23.4504 73.1904V71.2189L23.4254 71.2939Z" fill="#2B76B0"/>
<path d="M35.23 24.3304H53.1969C54.1823 24.2816 55.1672 24.4375 56.0892 24.7886C57.0113 25.1396 57.8505 25.6781 58.554 26.3698C59.2575 27.0616 59.8099 27.8916 60.1764 28.8076C60.5429 29.7237 60.7154 30.7058 60.6831 31.6919C60.6831 39.1282 60.6831 46.5562 60.6831 53.9758C60.7385 54.9523 60.5911 55.9296 60.2503 56.8464C59.9096 57.7631 59.3827 58.5993 58.703 59.3025C58.0232 60.0057 57.2053 60.5605 56.3007 60.9322C55.396 61.3038 54.4242 61.4843 53.4465 61.462C41.3354 61.462 29.2327 61.462 17.1383 61.462C16.1606 61.4883 15.1881 61.3105 14.2829 60.9399C13.3777 60.5693 12.5598 60.014 11.8812 59.3096C11.2026 58.6052 10.6783 57.767 10.3418 56.8486C10.0052 55.9303 9.86384 54.9519 9.92662 53.9758C9.92662 46.4896 9.92662 39.0034 9.92662 31.6919C9.89056 30.7048 10.0605 29.721 10.4257 28.8032C10.7908 27.8855 11.3431 27.0538 12.0473 26.3613C12.7516 25.6687 13.5925 25.1304 14.5163 24.7808C15.44 24.4311 16.4265 24.2778 17.4128 24.3304H35.23ZM35.23 57.3446H52.8975C53.4042 57.4261 53.9231 57.3862 54.4115 57.2282C54.8998 57.0702 55.3437 56.7985 55.7067 56.4356C56.0696 56.0726 56.3413 55.6287 56.4993 55.1404C56.6573 54.652 56.6972 54.1332 56.6156 53.6264C56.6156 46.4729 56.6156 39.3195 56.6156 32.166C56.6965 31.6462 56.6535 31.1145 56.4903 30.6143C56.327 30.1142 56.048 29.6597 55.6759 29.2877C55.3039 28.9157 54.8494 28.6366 54.3493 28.4733C53.8491 28.3101 53.3175 28.2671 52.7977 28.348H17.6624C17.1562 28.2697 16.6387 28.3105 16.1511 28.4672C15.6635 28.624 15.2191 28.8923 14.8533 29.2509C14.4876 29.6094 14.2104 30.0483 14.0439 30.5327C13.8774 31.0171 13.8262 31.5335 13.8943 32.0411C13.8943 39.2445 13.8943 46.448 13.8943 53.6514C13.8115 54.1573 13.8507 54.6757 14.0087 55.1634C14.1667 55.6511 14.4388 56.094 14.8026 56.4552C15.1663 56.8165 15.611 57.0857 16.0998 57.2404C16.5885 57.3951 17.1071 57.4308 17.6125 57.3446H35.23Z" fill="#2B76B0"/>
<path d="M95.4681 110.247C95.3756 107.48 96.2589 104.768 97.9635 102.586C98.5521 101.742 99.336 101.053 100.248 100.576C101.161 100.1 102.175 99.8516 103.204 99.8516C104.233 99.8516 105.247 100.1 106.159 100.576C107.072 101.053 107.856 101.742 108.444 102.586C110.025 104.751 110.899 107.35 110.948 110.029C110.997 112.708 110.219 115.338 108.719 117.559C108.167 118.489 107.387 119.263 106.452 119.808C105.518 120.353 104.46 120.651 103.379 120.673C102.297 120.696 101.228 120.442 100.272 119.937C99.3153 119.431 98.5038 118.69 97.9136 117.783C96.229 115.658 95.3456 113.008 95.4182 110.297L95.4681 110.247ZM99.5107 110.247C99.4571 112.192 100.113 114.091 101.357 115.587C101.559 115.881 101.829 116.121 102.144 116.286C102.46 116.452 102.81 116.539 103.166 116.539C103.523 116.539 103.873 116.452 104.188 116.286C104.504 116.121 104.774 115.881 104.976 115.587C106.157 114.048 106.798 112.162 106.798 110.222C106.798 108.282 106.157 106.396 104.976 104.857C104.781 104.532 104.505 104.262 104.174 104.075C103.844 103.888 103.471 103.789 103.092 103.789C102.712 103.789 102.339 103.888 102.009 104.075C101.679 104.262 101.402 104.532 101.208 104.857C100.004 106.343 99.3749 108.211 99.4358 110.122L99.5107 110.247Z" fill="#2B76B0"/>
<path d="M87.8065 66.4529C87.5268 66.4466 87.2513 66.3843 86.996 66.2698C86.7408 66.1554 86.5111 65.9909 86.3204 65.7863C86.1297 65.5816 85.9819 65.3408 85.8857 65.0782C85.7895 64.8155 85.7468 64.5364 85.7602 64.257C85.7634 63.9763 85.8224 63.6989 85.9335 63.4412C86.0447 63.1834 86.2059 62.9503 86.4079 62.7554C86.6098 62.5604 86.8485 62.4075 87.11 62.3054C87.3715 62.2034 87.6506 62.1541 87.9312 62.1607C88.4942 62.2041 89.0208 62.4556 89.4084 62.8662C89.796 63.2769 90.0166 63.8172 90.0274 64.3817C89.9894 64.9444 89.7387 65.4715 89.3262 65.8562C88.9138 66.2408 88.3704 66.4542 87.8065 66.4529Z" fill="#2B76B0"/>
<path d="M65.4727 110.246C65.3586 107.445 66.243 104.695 67.9681 102.485C68.5575 101.666 69.3333 100.998 70.2314 100.538C71.1296 100.078 72.1243 99.8379 73.1336 99.8379C74.1428 99.8379 75.1375 100.078 76.0357 100.538C76.9339 100.998 77.7097 101.666 78.2991 102.485C79.9523 104.666 80.878 107.312 80.9451 110.048C81.0123 112.784 80.2176 115.472 78.6734 117.732C78.0977 118.644 77.3003 119.396 76.3556 119.917C75.4109 120.438 74.3496 120.711 73.2708 120.711C72.192 120.711 71.1308 120.438 70.1861 119.917C69.2414 119.396 68.444 118.644 67.8683 117.732C66.2334 115.589 65.4032 112.939 65.5226 110.246H65.4727ZM69.5402 110.246C69.5123 112.101 70.1101 113.912 71.2371 115.386C71.4403 115.717 71.7248 115.989 72.0633 116.178C72.4018 116.368 72.7832 116.467 73.171 116.467C73.5588 116.467 73.9402 116.368 74.2787 116.178C74.6172 115.989 74.9017 115.717 75.105 115.386C76.2121 113.873 76.8089 112.046 76.8089 110.171C76.8089 108.296 76.2121 106.469 75.105 104.956C74.9084 104.591 74.6167 104.286 74.2608 104.073C73.905 103.861 73.4982 103.748 73.0836 103.748C72.6691 103.748 72.2624 103.861 71.9065 104.073C71.5506 104.286 71.2589 104.591 71.0624 104.956C69.9251 106.43 69.3501 108.261 69.4404 110.121L69.5402 110.246Z" fill="#2B76B0"/>
<path d="M26.2714 34.1607C26.2714 34.5572 26.1933 34.9498 26.0416 35.3161C25.8898 35.6824 25.6674 36.0153 25.387 36.2957C25.1066 36.5761 24.7738 36.7985 24.4075 36.9502C24.0411 37.1019 23.6485 37.18 23.2519 37.18C22.8554 37.18 22.4628 37.1019 22.0965 36.9502C21.7301 36.7985 21.3973 36.5761 21.1169 36.2957C20.8365 36.0153 20.6141 35.6824 20.4624 35.3161C20.3106 34.9498 20.2325 34.5572 20.2325 34.1607C20.2292 33.7555 20.3062 33.3537 20.459 32.9785C20.6117 32.6032 20.8373 32.2618 21.1226 31.9742C21.408 31.6865 21.7475 31.4581 22.1215 31.3023C22.4955 31.1465 22.8967 31.0664 23.3019 31.0664C24.0962 31.0859 24.8515 31.4152 25.4063 31.9841C25.9612 32.5529 26.2716 33.3161 26.2714 34.1107V34.1607Z" fill="#2B76B0"/>
<path d="M38.2481 34.1617C38.2514 34.5668 38.1744 34.9686 38.0216 35.3439C37.8689 35.7191 37.6433 36.0605 37.358 36.3482C37.0726 36.6358 36.7331 36.8641 36.3591 37.0199C35.9851 37.1757 35.5839 37.2559 35.1787 37.2559C34.3647 37.2559 33.584 36.9326 33.0084 36.357C32.4328 35.7814 32.1094 35.0007 32.1094 34.1866C32.1094 33.3726 32.4328 32.5919 33.0084 32.0163C33.584 31.4406 34.3647 31.1172 35.1787 31.1172C35.9754 31.1366 36.7333 31.4652 37.2922 32.0333C37.851 32.6015 38.167 33.3648 38.1732 34.1617H38.2481Z" fill="#2B76B0"/>
<path d="M50.1269 34.2119C50.1336 35.0085 49.8253 35.7754 49.2691 36.3456C48.7129 36.9158 47.9538 37.2431 47.1574 37.2562C46.5454 37.2761 45.9414 37.1126 45.4232 36.7865C44.9049 36.4605 44.496 35.9868 44.249 35.4266C44.0021 34.8663 43.9283 34.2448 44.0373 33.6423C44.1462 33.0398 44.4329 32.4837 44.8604 32.0453C45.288 31.607 45.8369 31.3066 46.4365 31.1827C47.0361 31.0588 47.6591 31.117 48.2254 31.3499C48.7916 31.5828 49.2753 31.9799 49.6141 32.4899C49.953 32.9999 50.1315 33.5996 50.1269 34.2119Z" fill="#2B76B0"/>
<path d="M32.2839 42.6219C32.2905 43.016 32.2186 43.4074 32.0723 43.7735C31.9261 44.1395 31.7084 44.4728 31.4319 44.7539C31.1555 45.0349 30.8259 45.2581 30.4624 45.4105C30.0988 45.5628 29.7085 45.6413 29.3143 45.6412C28.5513 45.5722 27.8416 45.2204 27.3248 44.6547C26.808 44.0891 26.5215 43.3506 26.5215 42.5844C26.5215 41.8182 26.808 41.0797 27.3248 40.5141C27.8416 39.9485 28.5513 39.5965 29.3143 39.5275C29.7193 39.524 30.1209 39.6021 30.4951 39.757C30.8693 39.9119 31.2085 40.1406 31.4926 40.4293C31.7766 40.718 31.9997 41.0609 32.1485 41.4375C32.2973 41.8142 32.3688 42.217 32.3587 42.6219H32.2839Z" fill="#2B76B0"/>
<path d="M44.1878 42.6707C44.1846 43.0639 44.1039 43.4528 43.9504 43.8148C43.7969 44.1769 43.5736 44.5052 43.2932 44.7809C43.0128 45.0567 42.6809 45.2745 42.3163 45.422C41.9517 45.5694 41.5617 45.6435 41.1684 45.6402C40.5551 45.6499 39.953 45.4755 39.4398 45.1397C38.9265 44.804 38.5256 44.3221 38.2888 43.7563C38.052 43.1905 37.9901 42.5668 38.1112 41.9655C38.2322 41.3642 38.5306 40.813 38.9679 40.3829C39.4052 39.9528 39.9614 39.6637 40.5646 39.5527C41.1678 39.4416 41.7905 39.5139 42.3522 39.7601C42.914 40.0063 43.3891 40.4151 43.7163 40.9339C44.0435 41.4527 44.2077 42.0577 44.1878 42.6707Z" fill="#2B76B0"/>
<path d="M38.2485 50.981C38.2485 51.7818 37.9304 52.5498 37.3642 53.1161C36.7979 53.6823 36.0299 54.0005 35.2291 54.0005C34.4283 54.0005 33.6603 53.6823 33.094 53.1161C32.5278 52.5498 32.2097 51.7818 32.2097 50.981C32.1926 50.5732 32.2591 50.1662 32.4051 49.785C32.551 49.4038 32.7734 49.0563 33.0585 48.7642C33.3437 48.4721 33.6855 48.2413 34.063 48.0861C34.4406 47.9309 34.8459 47.8546 35.254 47.8618C36.0528 47.8749 36.8144 48.2014 37.3745 48.7709C37.9347 49.3404 38.2486 50.1073 38.2485 50.9061V50.981Z" fill="#2B76B0"/>
<path d="M50.1268 50.9568C50.1268 51.7576 49.8086 52.5256 49.2424 53.0919C48.6761 53.6581 47.9082 53.9763 47.1073 53.9763C46.3065 53.9763 45.5385 53.6581 44.9723 53.0919C44.406 52.5256 44.0879 51.7576 44.0879 50.9568C44.0879 50.156 44.406 49.3881 44.9723 48.8218C45.5385 48.2555 46.3065 47.9375 47.1073 47.9375C47.9082 47.9375 48.6761 48.2555 49.2424 48.8218C49.8086 49.3881 50.1268 50.156 50.1268 50.9568Z" fill="#2B76B0"/>
<path d="M26.2713 50.9568C26.2713 51.7576 25.9532 52.5256 25.3869 53.0919C24.8207 53.6581 24.0526 53.9763 23.2518 53.9763C22.451 53.9763 21.683 53.6581 21.1168 53.0919C20.5505 52.5256 20.2324 51.7576 20.2324 50.9568C20.2324 50.5603 20.3105 50.1678 20.4623 49.8014C20.614 49.4351 20.8364 49.1022 21.1168 48.8218C21.3972 48.5414 21.73 48.3191 22.0964 48.1673C22.4627 48.0156 22.8553 47.9375 23.2518 47.9375C23.6484 47.9375 24.041 48.0156 24.4074 48.1673C24.7737 48.3191 25.1065 48.5414 25.3869 48.8218C25.6673 49.1022 25.8897 49.4351 26.0415 49.8014C26.1932 50.1678 26.2713 50.5603 26.2713 50.9568Z" fill="#2B76B0"/>
</svg>
