<svg width="60" height="39" viewBox="0 0 60 39" fill="none" xmlns="http://www.w3.org/2000/svg">
<path fill-rule="evenodd" clip-rule="evenodd" d="M3.98632 30.5582C3.99329 29.6025 4.28827 28.6711 4.83261 27.8856C5.37695 27.1001 6.14537 26.4969 7.03773 26.1547C7.93009 25.8126 8.90486 25.7473 9.83484 25.9676C10.7648 26.1879 11.6068 26.6834 12.2509 27.3894C11.2451 26.2355 10.4964 24.8808 10.0544 23.4153C9.61234 21.9498 9.48722 20.407 9.68717 18.8894C9.88712 17.3718 10.4075 15.9141 11.2141 14.6131C12.0206 13.3121 13.0947 12.1976 14.365 11.3435C15.6354 10.4895 17.073 9.91556 18.5821 9.65972C20.0913 9.40387 21.6375 9.47202 23.1184 9.85966C24.5992 10.2473 25.9805 10.9455 27.1708 11.908C28.3611 12.8704 29.3331 14.0752 30.022 15.4421C29.7586 14.8645 29.6269 14.2356 29.6365 13.6008C29.6222 12.5116 29.9859 11.4512 30.6655 10.6C31.3451 9.74874 32.2988 9.15928 33.3641 8.93208C34.4294 8.70488 35.5405 8.85391 36.5083 9.35379C37.476 9.85367 38.2405 10.6736 38.6718 11.6738C37.4402 9.04961 35.6609 6.71972 33.4534 4.84083C31.246 2.96195 28.6617 1.57769 25.8744 0.781211C23.0872 -0.0152665 20.1616 -0.20551 17.2947 0.223332C14.4277 0.652174 11.686 1.69008 9.25383 3.2673C6.82164 4.84451 4.75543 6.9244 3.19439 9.36699C1.63334 11.8096 0.613685 14.5583 0.20387 17.428C-0.205946 20.2977 0.00364639 23.2219 0.818596 26.0038C1.63355 28.7857 3.03504 31.3608 4.92853 33.5558C4.28379 32.6923 3.95147 31.6353 3.98632 30.5582Z" fill="#3BBEEF"/>
<path d="M38.2848 38.09H36.6147C32.7155 37.7956 28.9778 36.4109 25.828 34.0939C22.6781 31.7769 20.2431 28.6211 18.8009 24.9866C18.4812 24.1369 18.3075 23.2392 18.2871 22.3315C18.3109 21.6508 18.471 20.9818 18.7578 20.364C19.0447 19.7462 19.4523 19.192 19.957 18.7345C20.5327 18.2133 21.2111 17.8183 21.9485 17.575C22.686 17.3316 23.4663 17.2453 24.2391 17.3215C25.2964 17.3937 26.3085 17.7781 27.1471 18.4261C27.9856 19.0741 28.613 19.9565 28.9497 20.9613C29.4798 22.3236 30.2969 23.5558 31.3453 24.5744C32.3937 25.5931 33.6489 26.3743 35.0258 26.865C36.4028 27.3557 37.8692 27.5445 39.3255 27.4186C40.7819 27.2926 42.1941 26.8548 43.4663 26.1349C44.7385 25.415 45.8412 24.4299 46.6991 23.2463C47.557 22.0627 48.1501 20.7085 48.4385 19.2754C48.7268 17.8423 48.7036 16.3641 48.3703 14.9408C48.0369 13.5176 47.4012 12.1826 46.5065 11.0267C45.6957 9.97921 45.313 8.6628 45.4359 7.34392C45.5212 6.22739 45.9519 5.16511 46.668 4.30427C47.3841 3.44342 48.3503 2.82673 49.4327 2.53967C50.5151 2.25261 51.66 2.30944 52.7086 2.70224C53.7573 3.09504 54.6575 3.80434 55.2849 4.73186C58.3667 8.77323 59.8872 13.7907 59.5671 18.863V18.863C59.1571 24.1225 56.7771 29.0334 52.9028 32.6139C49.0285 36.1945 43.9455 38.1808 38.67 38.1756L38.2848 38.09ZM20.0855 24.6011C21.7687 28.6868 24.7793 32.0864 28.6319 34.2507C32.4844 36.4151 36.954 37.2181 41.3189 36.5302C45.6839 35.8423 49.6897 33.7036 52.6898 30.4593C55.6899 27.2149 57.5094 23.0543 57.8543 18.6489C58.1498 14.5587 57.1778 10.4767 55.0708 6.95854L54.0431 5.41702C53.522 4.80727 52.8399 4.3561 52.0748 4.11504C51.3098 3.87398 50.4924 3.85265 49.7158 4.05349C48.9392 4.25433 48.2346 4.6693 47.6824 5.25105C47.1301 5.8328 46.7524 6.55794 46.5922 7.34392C46.504 8.341 46.7945 9.33485 47.4058 10.1274V10.1274C49.1635 12.4612 49.9648 15.3776 49.6465 18.2818C49.3282 21.1861 47.9143 23.8596 45.6929 25.7573C44.5287 26.7757 43.1682 27.5444 41.695 28.0158C40.2219 28.4872 38.6676 28.6512 37.1285 28.4979C34.9841 28.3379 32.9281 27.5787 31.1943 26.3067C29.4605 25.0348 28.1188 23.3013 27.3224 21.3038V21.3038C27.0416 20.5629 26.5605 19.9145 25.933 19.4307C25.3055 18.9468 24.5561 18.6466 23.7682 18.5633C23.1952 18.52 22.6194 18.5924 22.075 18.7763C21.5306 18.9603 21.0287 19.2519 20.5994 19.6339C20.2236 19.9694 19.9198 20.3777 19.7063 20.834C19.4929 21.2904 19.3744 21.7853 19.3577 22.2888C19.3824 23.0033 19.5121 23.7103 19.7429 24.387V24.387L20.0855 24.6011ZM46.7205 10.6413H46.2924H46.7205Z" fill="#3BBEEF"/>
<path d="M8.7415 35.1822C11.3666 35.1822 13.4947 33.0541 13.4947 30.4289C13.4947 27.8038 11.3666 25.6758 8.7415 25.6758C6.11637 25.6758 3.98828 27.8038 3.98828 30.4289C3.98828 33.0541 6.11637 35.1822 8.7415 35.1822Z" fill="#3BBEEF"/>
<path d="M34.4349 18.1822C37.06 18.1822 39.1881 16.0542 39.1881 13.4291C39.1881 10.8039 37.06 8.67578 34.4349 8.67578C31.8097 8.67578 29.6816 10.8039 29.6816 13.4291C29.6816 16.0542 31.8097 18.1822 34.4349 18.1822Z" fill="#3BBEEF"/>
</svg>
