<svg width="32" height="27" viewBox="0 0 32 27" fill="none" xmlns="http://www.w3.org/2000/svg">
<path d="M1.27373 23.9275C3.99546 25.7409 7.13208 26.7592 10.3576 26.8764C13.0874 26.9806 15.8055 26.4536 18.318 25.3329C20.5011 24.3414 22.4612 22.8828 24.072 21.0508C25.6524 19.2465 26.8945 17.1479 27.7338 14.8642C28.5424 12.6893 28.9634 10.378 28.9759 8.04467C28.9759 7.76988 28.9759 7.49666 28.9594 7.22345L28.6245 7.83428C29.9112 6.86203 31.0229 5.65895 31.9078 4.28089C31.9829 4.14606 32.0133 3.98902 31.9943 3.83428C31.9753 3.67953 31.9079 3.5357 31.8026 3.42508C31.6938 3.32055 31.5566 3.25386 31.4101 3.23417C31.2635 3.21449 31.1146 3.24276 30.9841 3.31514L30.8594 3.37172C30.906 3.35131 30.9075 3.34974 30.8594 3.37172C30.8113 3.3937 30.7347 3.42507 30.6716 3.45176C30.535 3.50829 30.3968 3.56168 30.2571 3.60879C29.9888 3.70823 29.7169 3.79724 29.4415 3.87576C29.1662 3.95427 28.8868 4.02389 28.6034 4.08461C28.4668 4.11287 28.3301 4.13957 28.1934 4.16312L27.9877 4.19609H27.9591C27.9125 4.20394 27.866 4.20867 27.8194 4.21495L28.1604 5.53231C29.5787 4.63433 30.6402 3.23246 31.1508 1.58321C31.3355 0.989668 30.6506 0.484044 30.158 0.785527C29.8576 0.970813 29.5572 1.14515 29.2358 1.30375C29.0991 1.37284 28.9594 1.43875 28.8197 1.5047L28.7987 1.51413L28.677 1.56596L28.4322 1.66801C27.7881 1.92265 27.125 2.12114 26.4497 2.26152L27.1075 2.44369C26.0835 1.30961 24.7301 0.560553 23.2573 0.312696C21.7845 0.0648392 20.2747 0.332048 18.962 1.07289C17.6493 1.81373 16.6072 2.98675 15.9973 4.41C15.3874 5.83325 15.2439 7.42716 15.589 8.9444L16.2408 8.04942C16.0005 8.03686 15.7587 8.01954 15.5184 7.99598L15.1609 7.95834L14.9822 7.93633L14.8635 7.92062C14.9446 7.93161 14.9461 7.93161 14.8635 7.92062C14.3934 7.84839 13.9278 7.76364 13.4652 7.65372C12.5559 7.43854 11.6648 7.14656 10.8007 6.78067L10.64 6.71312C10.7902 6.77593 10.6084 6.69901 10.5889 6.68958C10.4838 6.64248 10.3786 6.59377 10.2735 6.54353C10.0642 6.43884 9.85695 6.33416 9.65169 6.22948C9.24315 6.01279 8.84263 5.78041 8.45012 5.53231C8.0576 5.28422 7.6781 5.01993 7.31162 4.73938C7.21849 4.67029 7.1269 4.59961 7.03678 4.52738L6.90008 4.41905C7.02474 4.51954 6.87454 4.39703 6.85802 4.38447C6.67929 4.23687 6.50356 4.08461 6.33083 3.93073C5.53968 3.22142 4.81036 2.44003 4.15148 1.59579C3.87061 1.23778 3.28938 1.37598 3.08962 1.7387C1.76489 4.138 1.88804 7.26588 3.48913 9.49559C3.96944 10.1657 4.55379 10.7468 5.21789 11.2149L5.55884 9.89758C5.44619 9.89758 5.33354 9.88653 5.2209 9.87711L5.02864 9.86929C5.12777 9.88185 5.01962 9.86928 4.97756 9.85986C4.74897 9.82171 4.52277 9.76927 4.30017 9.70284C4.09104 9.64094 3.88503 9.56808 3.68289 9.48455C3.48763 9.40447 3.79704 9.54269 3.60629 9.45005L3.45609 9.37936C3.35095 9.32597 3.2458 9.26786 3.14217 9.20976C3.03924 9.14906 2.92298 9.11741 2.80481 9.11784C2.68664 9.11826 2.57061 9.15079 2.46808 9.21222C2.36555 9.27365 2.28006 9.36184 2.21998 9.46822C2.15989 9.57461 2.12727 9.69554 2.12533 9.81907C2.11656 11.0834 2.42933 12.3274 3.03157 13.4238C3.63381 14.5203 4.50391 15.4297 5.55282 16.0591C6.16139 16.4206 6.82015 16.6808 7.50538 16.8301V15.4671C7.29968 15.5259 7.09112 15.5731 6.88057 15.6084C6.85954 15.6084 6.71083 15.6336 6.82498 15.6195L6.68832 15.6352C6.57417 15.6462 6.46001 15.6555 6.34436 15.6603C6.13472 15.6712 5.92469 15.6712 5.71505 15.6603C5.59789 15.6524 5.47922 15.6414 5.36057 15.6273C5.43567 15.6367 5.36057 15.6273 5.32753 15.6273C5.25543 15.6163 5.18485 15.6022 5.11276 15.5896C4.99746 15.5588 4.87654 15.5591 4.76143 15.5907C4.64632 15.6223 4.5408 15.6841 4.45488 15.7702C4.37038 15.8586 4.30988 15.9688 4.27953 16.0896C4.24918 16.2105 4.25009 16.3376 4.28217 16.4579C4.70848 17.8746 5.5509 19.1148 6.68978 20.0024C7.82866 20.8901 9.20609 21.38 10.6265 21.4026L10.1488 20.1967C10.2405 20.1229 10.0827 20.2485 10.0572 20.2689L9.87848 20.4055C9.74932 20.5029 9.61863 20.597 9.48646 20.6881C9.23312 20.864 8.97329 21.0299 8.70695 21.1859C8.4406 21.3418 8.16122 21.491 7.86884 21.6334L7.6691 21.7276C7.64057 21.7402 7.45881 21.8202 7.57145 21.7716C7.42126 21.8328 7.28309 21.8941 7.1359 21.9506C6.5702 22.1688 5.98986 22.343 5.39962 22.4719C5.25693 22.5033 5.11277 22.5316 4.97008 22.5583L4.75377 22.5944L4.63063 22.6133C4.57056 22.6227 4.55554 22.6227 4.63063 22.6133C4.31823 22.6525 4.00732 22.6839 3.69341 22.6996C2.99779 22.736 2.30046 22.7119 1.60867 22.6274C1.25571 22.585 0.917765 22.9822 0.932785 23.334C0.950808 23.7532 1.23318 23.995 1.60867 24.0406C4.22931 24.3495 6.87786 23.8177 9.2026 22.5159C9.87297 22.1322 10.5111 21.6899 11.1101 21.1938C11.3204 21.0242 11.3444 20.6536 11.2513 20.4228C11.1995 20.2954 11.1135 20.1865 11.0036 20.1092C10.8937 20.032 10.7648 19.9899 10.6325 19.9878C10.5138 19.9878 10.3936 19.98 10.275 19.9706L10.0827 19.9517L10.0017 19.9423C9.90102 19.9313 10.1203 19.9627 10.0197 19.9423C9.78235 19.8999 9.54504 19.8543 9.31074 19.7852C9.07643 19.7161 8.86015 19.6282 8.63485 19.545C8.56276 19.5168 8.6694 19.5607 8.67541 19.5639L8.57926 19.5199L8.43658 19.4508C8.32694 19.3943 8.21881 19.3362 8.11217 19.2734C7.9083 19.154 7.71122 19.0224 7.52191 18.8792C7.47535 18.8447 7.37171 18.7567 7.47234 18.8431C7.43028 18.8101 7.38972 18.7756 7.35067 18.7411C7.25755 18.661 7.16592 18.584 7.0773 18.4929C6.90701 18.327 6.74556 18.1514 6.59367 17.9669L6.47802 17.8209C6.43897 17.7722 6.38792 17.6937 6.4555 17.7926C6.38641 17.689 6.30533 17.5885 6.24675 17.4786C6.09746 17.2439 5.96345 16.9989 5.8457 16.7453C5.81866 16.6888 5.79313 16.6307 5.76759 16.5726L5.72553 16.472C5.74656 16.5223 5.76159 16.5647 5.73305 16.4878C5.68349 16.3512 5.63392 16.213 5.58286 16.0732L4.75227 16.9416C5.78375 17.1501 6.84694 17.1131 7.86286 16.8332C8.00572 16.7923 8.13175 16.7034 8.22159 16.5803C8.31144 16.4572 8.36009 16.3066 8.36009 16.1517C8.36009 15.9969 8.31144 15.8463 8.22159 15.7232C8.13175 15.6001 8.00572 15.5112 7.86286 15.4703C7.58837 15.4123 7.31789 15.3353 7.05328 15.2395C6.9932 15.2175 6.93464 15.1955 6.87757 15.1719C6.84452 15.1578 6.64175 15.062 6.79194 15.1374C6.66578 15.0745 6.53661 15.0149 6.41194 14.9458C6.18063 14.8197 5.95738 14.6781 5.74358 14.5218L5.57534 14.3946C5.54981 14.3742 5.47923 14.3083 5.59037 14.4057L5.52881 14.3539C5.42167 14.2638 5.31802 14.1696 5.21789 14.0712C5.02399 13.8826 4.84186 13.6812 4.67266 13.4682L4.60808 13.385C4.59907 13.374 4.54499 13.3018 4.59906 13.3725L4.57354 13.3379L4.51348 13.2516C4.43387 13.1354 4.36328 13.0176 4.28668 12.8966C4.14813 12.6627 4.02373 12.4199 3.9142 12.1697C3.90368 12.1461 3.89468 12.121 3.88266 12.0974C3.84211 12.0064 3.92769 12.2121 3.89164 12.1194C3.86911 12.0613 3.84659 12.0033 3.82557 11.9452C3.77901 11.8133 3.73397 11.6782 3.69491 11.5416C3.65586 11.405 3.61678 11.2511 3.58524 11.1035C3.57339 10.9518 3.54674 10.8019 3.50567 10.6559C3.52519 10.6654 3.52219 10.7957 3.50567 10.6842C3.50567 10.6403 3.49514 10.5963 3.49214 10.5507C3.48463 10.4707 3.4786 10.3937 3.47409 10.3089C3.46508 10.1519 3.46211 9.98552 3.46511 9.82221L2.44828 10.433C3.40167 10.9801 4.46441 11.2861 5.55132 11.3264C5.69899 11.3255 5.84237 11.2745 5.95992 11.1811C6.07747 11.0876 6.16285 10.9568 6.20319 10.8083C6.23824 10.658 6.22707 10.5001 6.17125 10.3568C6.11542 10.2136 6.01779 10.0924 5.89227 10.0106L5.71505 9.88025C5.6805 9.85513 5.52279 9.72329 5.63694 9.82221C5.51378 9.71858 5.3906 9.61179 5.27344 9.49874C5.05835 9.28917 4.85759 9.06407 4.67266 8.8251L4.60959 8.74031C4.6997 8.85964 4.63964 8.78111 4.62161 8.75441C4.58106 8.69632 4.5405 8.63981 4.50295 8.58014C4.41584 8.44981 4.33475 8.3148 4.25665 8.17662C4.17855 8.03844 4.12447 7.93008 4.0659 7.80446C4.03586 7.74165 4.00581 7.67724 3.97877 7.61286C3.96525 7.58145 3.95173 7.5485 3.93671 7.5171C4.01181 7.68197 3.9367 7.51707 3.92769 7.49195C3.82291 7.21536 3.73659 6.93157 3.66936 6.64251C3.63782 6.50747 3.61077 6.3708 3.58674 6.23263C3.58234 6.16319 3.57179 6.09431 3.55521 6.02692C3.59876 6.14625 3.56722 6.11645 3.55521 6.05835C3.54319 6.00025 3.54321 5.95472 3.5387 5.90133C3.51367 5.61372 3.50663 5.32474 3.51766 5.03617C3.51766 4.87915 3.53568 4.73935 3.5507 4.59018C3.55741 4.55546 3.56194 4.52032 3.56423 4.48498C3.56423 4.50697 3.53869 4.64204 3.56423 4.51642C3.57624 4.43791 3.58826 4.35936 3.60328 4.28242C3.66501 3.95069 3.75189 3.62463 3.86312 3.30732C3.89015 3.23037 3.9187 3.15026 3.94723 3.0796C3.88565 3.24448 3.98326 2.99955 4.00429 2.95087C4.07939 2.79385 4.16202 2.62429 4.24913 2.4657L3.18723 2.60854C5.65616 5.75526 9.03238 7.98284 12.8118 8.95859C13.933 9.24108 15.077 9.41403 16.2288 9.4752C16.6869 9.50032 16.9797 9.0041 16.8806 8.58014C16.8446 8.42312 16.8176 8.25509 16.7905 8.09021C16.7905 8.0541 16.762 7.95363 16.7905 8.11536C16.7905 8.08082 16.7905 8.04157 16.7785 8.00702C16.7695 7.91752 16.762 7.82641 16.756 7.73691C16.7342 7.42642 16.7342 7.1147 16.756 6.80421C16.762 6.7257 16.7695 6.64719 16.7785 6.56867C16.7785 6.52471 16.7785 6.44305 16.7785 6.60164C16.7812 6.56677 16.7862 6.53212 16.7935 6.49798C16.8161 6.34096 16.8461 6.1918 16.8806 6.03949C16.9524 5.7394 17.0417 5.44419 17.148 5.15547C17.16 5.1225 17.1916 5.02827 17.136 5.18215C17.148 5.15075 17.1615 5.11937 17.175 5.08954C17.2021 5.02673 17.2291 4.96393 17.2576 4.90269C17.3252 4.75823 17.3988 4.6153 17.4754 4.47555C17.552 4.3358 17.6256 4.22748 17.6962 4.10815C17.7323 4.05162 17.7698 3.99665 17.8089 3.94169C17.8269 3.91343 17.8464 3.88677 17.8659 3.8585C17.965 3.71875 17.7743 3.97622 17.8794 3.84118C18.0645 3.60237 18.2653 3.37728 18.4802 3.16754C18.5749 3.07333 18.6725 2.98383 18.7731 2.8959L18.8482 2.83157C18.9729 2.7248 18.7641 2.89438 18.8482 2.83157C18.9083 2.78604 18.9668 2.73891 19.0269 2.69494C19.2693 2.5185 19.5238 2.36105 19.7884 2.22388L19.9672 2.13279L20.0588 2.09039C20.209 2.01973 19.9597 2.12808 20.0588 2.09039C20.2 2.037 20.3396 1.97734 20.4838 1.93337C20.7675 1.83743 21.0577 1.76396 21.352 1.71355L21.4166 1.70259C21.3204 1.71829 21.4316 1.70259 21.4556 1.70259C21.5337 1.69317 21.6133 1.68526 21.6914 1.67897C21.8506 1.66641 22.0113 1.66019 22.1705 1.66019C22.3297 1.66019 22.519 1.66799 22.6917 1.68212L22.8119 1.69469H22.8735C22.7698 1.68213 22.9636 1.7088 22.9621 1.7088L23.1123 1.73556C23.4516 1.79999 23.7848 1.89559 24.1081 2.02131L24.2177 2.06371C24.2177 2.06371 24.392 2.14061 24.2988 2.09821C24.2057 2.05582 24.3334 2.11551 24.3514 2.12336L24.4836 2.18776C24.6338 2.26628 24.793 2.34481 24.9342 2.4453C25.0753 2.5458 25.197 2.61483 25.3217 2.70591C25.3622 2.73417 25.4012 2.76402 25.4388 2.79385L25.4854 2.82996C25.4193 2.77657 25.5154 2.85355 25.5304 2.86768L25.6626 2.98231C25.8008 3.10635 25.933 3.23668 26.0591 3.37172C26.1286 3.45697 26.2137 3.52685 26.3094 3.57727C26.4051 3.6277 26.5095 3.65766 26.6164 3.66537C26.7666 3.65652 26.9153 3.62911 27.0594 3.58372C27.4935 3.48292 27.9222 3.35811 28.3436 3.20994C29.2086 2.90423 30.0411 2.50592 30.8279 2.02131L29.835 1.22363C29.808 1.31156 29.7795 1.39948 29.7495 1.48584C29.7314 1.53452 29.7134 1.58165 29.6969 1.62876C29.6804 1.67586 29.6713 1.69156 29.6969 1.62876C29.6278 1.79677 29.5467 1.96166 29.4701 2.12183C29.3935 2.28199 29.2989 2.43587 29.2027 2.59289C29.1502 2.67612 29.0961 2.75935 29.039 2.841L28.9714 2.9383C29.027 2.85822 28.988 2.9163 28.9519 2.96184C28.7353 3.24422 28.4961 3.50686 28.237 3.74695L28.0387 3.92283C27.9906 3.96523 27.9891 3.96366 28.0387 3.92283L27.923 4.01238C27.7729 4.12544 27.6227 4.22907 27.4649 4.32643C27.3379 4.40712 27.2391 4.52836 27.1831 4.67229C27.1272 4.81622 27.117 4.97518 27.1541 5.12565C27.2382 5.3973 27.507 5.68148 27.8059 5.64379C29.1314 5.47726 30.426 5.10688 31.6479 4.54463L30.7227 3.57743C30.6041 3.76271 30.4824 3.94486 30.3548 4.12386L30.2766 4.23059C30.3472 4.13324 30.2631 4.24947 30.2451 4.27145C30.173 4.36881 30.0949 4.46299 30.0243 4.55721C29.484 5.23031 28.8801 5.84479 28.2219 6.39126L28.1814 6.42423L28.0793 6.50427C27.9248 6.59959 27.79 6.72611 27.6828 6.87643C27.5596 7.09783 27.5971 7.34747 27.6031 7.59714C27.6162 8.20795 27.5991 8.81907 27.5521 9.42805C27.528 9.72796 27.495 10.0248 27.4605 10.3231C27.4485 10.4283 27.486 10.1394 27.4605 10.2964C27.4605 10.3263 27.4529 10.3576 27.4484 10.3874C27.4379 10.4644 27.4274 10.5444 27.4154 10.6167C27.3929 10.7737 27.3673 10.9229 27.3403 11.0752C27.1257 12.2908 26.7977 13.4815 26.361 14.6302C26.334 14.7024 26.3054 14.7762 26.2769 14.8485C26.2649 14.8783 26.2529 14.9066 26.2424 14.9364C26.1838 15.084 26.2889 14.8249 26.2424 14.9207C26.1763 15.0777 26.1162 15.2238 26.0486 15.3745C25.9254 15.655 25.7958 15.9324 25.6596 16.2067C25.3831 16.7646 25.0798 17.3076 24.7509 17.8335C24.5827 18.1004 24.4085 18.3642 24.2282 18.6186C24.1471 18.7348 24.0705 18.8573 23.9804 18.9656C24.1081 18.8086 23.9399 19.0174 23.9158 19.0504L23.7566 19.2561C23.3703 19.7496 22.9592 20.2214 22.525 20.6693C22.0919 21.1135 21.6362 21.5328 21.1597 21.9254C21.1222 21.9553 21.0861 21.9883 21.0486 22.0165C21.0621 22.0055 21.1672 21.9208 21.0726 21.9961L20.8834 22.1531C20.7572 22.2505 20.628 22.3478 20.4989 22.442C20.239 22.632 19.9717 22.8142 19.7013 22.9869C19.1644 23.3318 18.6087 23.6438 18.0372 23.9213C17.887 23.9935 17.7368 24.0625 17.5866 24.13C17.555 24.1442 17.4709 24.1882 17.6121 24.1191C17.5745 24.1379 17.5355 24.152 17.4964 24.1693L17.2426 24.2746C16.9312 24.4023 16.6158 24.5195 16.2964 24.6263C15.656 24.8412 15.004 25.0163 14.3438 25.1507C14.1696 25.1852 13.9969 25.2182 13.8226 25.2481L13.5853 25.2873L13.4517 25.3077C13.4141 25.3077 13.2489 25.3375 13.4186 25.3077C13.0571 25.3559 12.6947 25.3946 12.3312 25.4239C11.5524 25.4831 10.7709 25.492 9.99113 25.4506C9.55256 25.4255 9.11699 25.3831 8.68142 25.325C8.80008 25.3407 8.68892 25.325 8.66789 25.325L8.47413 25.2952L8.2173 25.2512C7.983 25.2104 7.75021 25.1649 7.51891 25.113C6.7062 24.9337 5.90702 24.6929 5.12776 24.3923C4.94001 24.3201 4.75227 24.2447 4.56753 24.1646L4.41733 24.1018C4.52397 24.1489 4.41735 24.1018 4.40384 24.1018L4.05838 23.9448C3.68789 23.7658 3.32341 23.5742 2.96494 23.3701C2.60648 23.1659 2.25602 22.9492 1.91357 22.72C1.83689 22.6716 1.75178 22.6397 1.66319 22.6261C1.57461 22.6124 1.4843 22.6173 1.39753 22.6404C1.31076 22.6635 1.22926 22.7045 1.15775 22.7608C1.08624 22.8172 1.02614 22.8878 0.980968 22.9686C0.935793 23.0494 0.906454 23.1389 0.894612 23.2317C0.88277 23.3245 0.888669 23.4188 0.911993 23.5092C0.935318 23.5995 0.975592 23.6842 1.03047 23.7582C1.08535 23.8322 1.15374 23.8939 1.23167 23.94L1.27373 23.9275Z" fill="#26313C"/>
</svg>
