<svg width="32" height="23" viewBox="0 0 32 23" fill="none" xmlns="http://www.w3.org/2000/svg">
<path d="M30.9508 4.19593C30.7863 3.59651 30.496 3.03792 30.0987 2.55641C29.7015 2.07491 29.2062 1.68129 28.6449 1.40099C27.9304 1.05799 27.1794 0.951579 26.4012 0.851223C24.7325 0.649014 23.047 0.589156 21.3692 0.533735C19.8522 0.484806 18.3376 0.455298 16.8257 0.445312C16.3311 0.445312 15.8366 0.445312 15.342 0.445312C13.9261 0.453301 12.5102 0.476799 11.0943 0.515744C9.37403 0.565172 7.64765 0.625104 5.93644 0.795859C5.2958 0.843516 4.65981 0.939649 4.03408 1.08343C3.43491 1.24058 2.87564 1.5196 2.39208 1.90264C1.90852 2.28568 1.51137 2.76431 1.22608 3.30775C0.743667 4.24391 0.619229 5.32983 0.5009 6.36035C0.384089 7.36091 0.318859 8.36894 0.276382 9.3755C0.23694 10.2832 0.214175 11.1909 0.229345 12.0986C0.235196 13.9626 0.367527 15.824 0.625344 17.6706C0.685827 18.107 0.77395 18.5392 0.889269 18.9647C1.06902 19.5826 1.37923 20.1558 1.79949 20.6468C2.47346 21.4165 3.3955 21.9333 4.4103 22.1102C5.9516 22.3978 7.54752 22.4547 9.1131 22.5236C10.7894 22.597 12.4673 22.6344 14.1436 22.6539C14.7717 22.6539 15.4012 22.6689 16.0292 22.6674C17.168 22.6674 18.3073 22.6534 19.4471 22.6254C21.216 22.588 22.9879 22.5341 24.7568 22.4083C25.5244 22.3529 26.2905 22.284 27.052 22.1686C27.9474 22.0545 28.7941 21.7007 29.5005 21.1456C30.4107 20.4161 30.8795 19.3677 31.0949 18.2548C31.2791 17.2353 31.4023 16.206 31.4635 15.1722C31.55 13.9589 31.6001 12.7382 31.597 11.5219C31.597 10.0241 31.5303 8.50824 31.3877 7.01039C31.3182 6.06245 31.1705 5.12172 30.9462 4.19746C30.8981 4.02506 30.7827 3.87858 30.6252 3.79024C30.4677 3.70189 30.2812 3.67892 30.1066 3.72639C29.932 3.77386 29.7835 3.88789 29.6941 4.04336C29.6046 4.19884 29.5814 4.38299 29.6295 4.5554C29.7366 4.97204 29.8212 5.3941 29.8828 5.81964C29.8919 5.87956 29.8995 5.94096 29.9086 6.00088C29.9268 6.1237 29.8919 5.87052 29.9086 6.03079C29.9238 6.15511 29.9404 6.28093 29.9541 6.40825C29.9829 6.65689 30.0087 6.90704 30.0315 7.15718C30.1164 8.10082 30.1665 9.04899 30.1968 9.99563C30.2241 10.8224 30.2332 11.6433 30.215 12.4731C30.1953 13.3418 30.1604 14.2091 30.1013 15.0763C30.0664 15.5781 30.0239 16.0814 29.9678 16.5832C29.9556 16.7015 29.9405 16.8198 29.9268 16.9396C29.9192 16.9935 29.9116 17.0474 29.9056 17.1029C29.8889 17.2257 29.9056 17.0774 29.9056 17.0624C29.9036 17.1007 29.8985 17.1388 29.8904 17.1763C29.857 17.404 29.8206 17.6256 29.7781 17.8548C29.7357 18.084 29.6947 18.2623 29.6431 18.4645C29.6143 18.5813 29.5794 18.6981 29.5399 18.8135C29.5157 18.8824 29.4899 18.9482 29.4626 19.0156C29.5172 18.8823 29.4429 19.0501 29.4186 19.098C29.3592 19.2176 29.2928 19.3336 29.2199 19.4455C29.185 19.4979 29.15 19.5489 29.1136 19.5953L29.0499 19.6807C29.1394 19.5608 29.0605 19.6642 29.0408 19.6882C28.9548 19.79 28.8632 19.887 28.7663 19.9788C28.7147 20.0267 28.6631 20.0747 28.6146 20.1211C28.566 20.1675 28.4249 20.2634 28.5433 20.181C28.3169 20.3394 28.0768 20.4777 27.8257 20.5944C27.7362 20.6363 27.9334 20.5569 27.8379 20.5944L27.7362 20.6318C27.6771 20.6543 27.6164 20.6737 27.5557 20.6917C27.495 20.7097 27.4039 20.7337 27.3311 20.7501C27.0763 20.8116 26.8169 20.852 26.559 20.8895L26.4407 20.9059C26.515 20.8939 26.6136 20.8835 26.4862 20.8985L26.2328 20.9299C26.0584 20.9494 25.8824 20.9673 25.7064 20.9838C25.3165 21.0198 24.9267 21.0497 24.5353 21.0767C23.666 21.1351 22.7937 21.1755 21.9229 21.2085C20.3513 21.2669 18.7796 21.2969 17.208 21.3134C16.6816 21.3134 16.1567 21.3224 15.6303 21.3134C14.3954 21.3134 13.1601 21.2963 11.9242 21.2624C10.1917 21.222 8.4593 21.1665 6.7314 21.0317C6.36276 21.0018 5.99564 20.9688 5.62851 20.9284L5.38881 20.8999C5.3524 20.8999 5.316 20.891 5.28111 20.8865C5.17643 20.8745 5.3751 20.8999 5.37207 20.8999L5.29777 20.8895C5.15669 20.87 5.0156 20.849 4.87452 20.8236C4.55903 20.7708 4.24921 20.689 3.94911 20.5794C4.0902 20.6318 3.90663 20.5585 3.86415 20.539C3.82167 20.5195 3.75195 20.4821 3.69734 20.4521C3.57169 20.385 3.45056 20.31 3.33474 20.2274C3.31654 20.2154 3.22396 20.148 3.29526 20.2004C3.36656 20.2529 3.29532 20.2004 3.28015 20.1884C3.22554 20.1435 3.17088 20.0986 3.11778 20.0507C3.01135 19.9562 2.91008 19.8562 2.81437 19.7511C2.78555 19.7181 2.66272 19.5579 2.75223 19.6822C2.7143 19.6328 2.67786 19.5818 2.64297 19.5324C2.56114 19.4157 2.48663 19.2941 2.41993 19.1684C2.39111 19.113 2.36383 19.0561 2.33652 19.0007C2.28039 18.8884 2.33652 18.9917 2.33652 19.0142C2.32287 18.9812 2.30925 18.9468 2.29712 18.9138C2.24713 18.784 2.20453 18.6515 2.16964 18.5169C2.06275 18.0973 1.9792 17.6723 1.91934 17.2437C1.90471 17.1838 1.89608 17.1226 1.89356 17.061C1.89356 17.061 1.91177 17.2017 1.89356 17.1239C1.89356 17.0939 1.89355 17.0624 1.88141 17.031L1.83593 16.6521C1.80711 16.4034 1.78284 16.1533 1.76008 15.9031C1.71609 15.4073 1.68265 14.9086 1.65534 14.4053C1.59921 13.3912 1.56135 12.3757 1.57045 11.3601C1.57368 9.72764 1.66127 8.09638 1.8329 6.47269C1.84655 6.35436 1.86169 6.23601 1.87534 6.11768C1.88293 6.06376 1.88594 6.00836 1.89808 5.95444C1.85712 6.15365 1.89813 5.92594 1.90875 5.88101C1.94212 5.65633 1.97853 5.43165 2.02253 5.20698C2.06652 4.9823 2.10439 4.80256 2.15749 4.60784C2.18935 4.48501 2.22579 4.36373 2.26978 4.24391C2.28192 4.20946 2.29554 4.17648 2.30919 4.14203C2.32284 4.10758 2.35171 4.04764 2.31682 4.12403L2.33652 4.08213C2.35625 4.04169 2.37595 4.0012 2.39719 3.96226C2.45924 3.84393 2.52762 3.72896 2.60201 3.61778C2.6369 3.56685 2.6733 3.51593 2.70971 3.46799C2.78253 3.36614 2.7097 3.46048 2.7006 3.47845C2.72942 3.444 2.75674 3.4096 2.78556 3.37665C2.87301 3.27659 2.96569 3.18108 3.06319 3.09053C3.1087 3.04859 3.15575 3.00668 3.2043 2.96774L3.28615 2.90031C3.34835 2.84788 3.19063 2.96474 3.29682 2.89284C3.40301 2.82095 3.5183 2.74303 3.63511 2.67863C3.68973 2.64717 3.74587 2.61874 3.802 2.59028L3.89904 2.54383C3.91573 2.53485 4.05081 2.47794 3.96585 2.51239C3.8809 2.54684 4.05988 2.47939 4.08719 2.47041C4.15545 2.44644 4.22525 2.42398 4.29504 2.40451C4.36482 2.38504 4.42247 2.37005 4.4877 2.35507C4.7456 2.29665 5.00651 2.25472 5.26896 2.21728C5.32661 2.20979 5.47828 2.19781 5.23555 2.21728L5.34177 2.20382L5.59666 2.17383L6.12607 2.11993C6.94375 2.04354 7.76446 1.99413 8.58517 1.95369C10.2721 1.87131 11.9621 1.82937 13.652 1.80391C14.403 1.79342 15.1539 1.78438 15.9049 1.78438C16.8363 1.78438 17.7693 1.79643 18.7023 1.8129C20.4256 1.84286 22.149 1.88928 23.8693 1.98814C24.649 2.03307 25.4272 2.08696 26.2025 2.17383L26.4407 2.20228L26.5468 2.21581C26.295 2.18736 26.4725 2.20533 26.5287 2.21581C26.6698 2.23529 26.8093 2.25625 26.9489 2.28171C27.0885 2.30717 27.187 2.32664 27.3053 2.35361C27.366 2.36709 27.4267 2.38357 27.4874 2.40005C27.5481 2.41652 27.6103 2.43598 27.6695 2.45695C27.7287 2.47792 27.9303 2.5573 27.7862 2.49439C28.0313 2.60387 28.2655 2.73574 28.4856 2.88831C28.5114 2.90628 28.5857 2.96769 28.475 2.87931L28.5387 2.92876C28.5863 2.9677 28.6333 3.00815 28.6798 3.05009C28.7862 3.14458 28.8875 3.24458 28.9832 3.34966C29.0014 3.37063 29.1198 3.50995 29.0667 3.44554C29.0136 3.38113 29.0803 3.46501 29.0939 3.48299C29.1076 3.50096 29.1243 3.52638 29.141 3.54735C29.2173 3.65692 29.2877 3.77042 29.3519 3.88736C29.3867 3.95027 29.4186 4.01319 29.4504 4.07759C29.4611 4.10156 29.4717 4.12706 29.4839 4.15102C29.4217 4.0267 29.4672 4.10761 29.4839 4.13756C29.5354 4.27387 29.5824 4.41017 29.6219 4.54947C29.6457 4.63484 29.6863 4.71473 29.7413 4.78461C29.7964 4.85448 29.8649 4.91296 29.9429 4.9567C30.0209 5.00044 30.1068 5.02854 30.1958 5.03949C30.2848 5.05044 30.3751 5.04398 30.4616 5.02048C30.548 4.99697 30.6289 4.95689 30.6997 4.90251C30.7705 4.84812 30.8297 4.78056 30.874 4.70357C30.9183 4.62659 30.9468 4.54175 30.9579 4.45388C30.969 4.36602 30.9625 4.27683 30.9387 4.19147L30.9508 4.19593Z" fill="#26313C"/>
<path d="M13.3498 16.7535V7.68481L12.3286 8.28766L14.9698 9.82942L19.1618 12.2669L20.1273 12.8282V11.6302L17.4859 13.172L13.294 15.6095L12.3286 16.1506C12.1747 16.2447 12.063 16.3967 12.0174 16.5739C11.9717 16.751 11.9957 16.9394 12.0842 17.0988C12.1776 17.2549 12.3265 17.3681 12.4997 17.4147C12.6728 17.4612 12.8569 17.4375 13.0134 17.3486L15.6547 15.8068L19.8466 13.3693L20.8121 12.8081C20.913 12.7457 20.9963 12.6579 21.0542 12.5529C21.1121 12.448 21.1425 12.3296 21.1425 12.2091C21.1425 12.0887 21.1121 11.9703 21.0542 11.8653C20.9963 11.7604 20.913 11.6724 20.8121 11.6101L18.1708 10.0684L13.9788 7.63091L13.0134 7.06969C12.9099 7.0105 12.7931 6.97977 12.6744 6.98048C12.5558 6.98119 12.4393 7.01327 12.3364 7.07368C12.2336 7.13409 12.1478 7.22079 12.0875 7.32519C12.0272 7.4296 11.9943 7.54821 11.9922 7.66945V16.738C11.9922 16.922 12.0637 17.0985 12.191 17.2286C12.3183 17.3588 12.491 17.4318 12.671 17.4318C12.851 17.4318 13.0237 17.3588 13.151 17.2286C13.2783 17.0985 13.3498 16.922 13.3498 16.738V16.7535Z" fill="#26313C"/>
<path d="M13.3498 16.7535V7.68481L12.3286 8.28766L14.9698 9.82942L19.1618 12.2669L20.1273 12.8282V11.6302L17.4859 13.172L13.294 15.6095L12.3286 16.1506C12.1747 16.2447 12.063 16.3967 12.0174 16.5739C11.9717 16.751 11.9957 16.9394 12.0842 17.0988C12.1776 17.2549 12.3265 17.3681 12.4997 17.4147C12.6728 17.4612 12.8569 17.4375 13.0134 17.3486L15.6547 15.8068L19.8466 13.3693L20.8121 12.8081C20.913 12.7457 20.9963 12.6579 21.0542 12.5529C21.1121 12.448 21.1425 12.3296 21.1425 12.2091C21.1425 12.0887 21.1121 11.9703 21.0542 11.8653C20.9963 11.7604 20.913 11.6724 20.8121 11.6101L18.1708 10.0684L13.9788 7.63091L13.0134 7.06969C12.9099 7.0105 12.7931 6.97977 12.6744 6.98048C12.5558 6.98119 12.4393 7.01327 12.3364 7.07368C12.2336 7.13409 12.1478 7.22079 12.0875 7.32519C12.0272 7.4296 11.9943 7.54821 11.9922 7.66945V16.738C11.9922 16.922 12.0637 17.0985 12.191 17.2286C12.3183 17.3588 12.491 17.4318 12.671 17.4318C12.851 17.4318 13.0237 17.3588 13.151 17.2286C13.2783 17.0985 13.3498 16.922 13.3498 16.738V16.7535Z" fill="#26313C"/>
</svg>
